<svg data-name="Layer 1" xmlns="http://www.w3.org/2000/svg" viewBox="0 0 1440 263"><path d="M1445.23 119.7v148.1H819.72s108.43-160.99 625.51-148.1z" fill="#1c2f74"/><path d="M1085.78 140.32c3-1.25 9.74-2.86 9.82-1.76-.08-1.1-.08-1.1 4.42-2.8 0 .74 4.18-.29 6.82-.88-2.29-.08-5.31.44-11.38 1.47-2.59 1.33-6.85 2-11.08 2.63l-3.13.5c-1 .2-2 .42-2.93.65a18.09 18.09 0 0 0-4.68 1.74c3.8-.46 7.63-.27 12.14-1.55zM1111.31 140.12l.73-.57c-3.13.79-6.24 1.7-9.35 2.54 1.85-.73 8.22-2.44 8.62-1.97z" fill="#fff"/><path d="M1141.89 133.73c-.74.91 4.2.67 4.21 1.4-.42-1.56 7.58-1.42 11.75-2.22l1.51-1.46a58.47 58.47 0 0 0-9.89.81c-4.18.58-8.93 1.28-13.27 2 1.89-.16 3.8-.4 5.69-.53z" fill="#1c2f74"/><path d="M1149.88 133.5l2.63-1.17c-2.27.53-7.57 1.42-2.63 1.17zM1143.33 130.06c-6.86.88 4.19-.06-2.65 1.18 2.32-.54 4.94-.98 2.65-1.18z" fill="#fff"/><path fill="#1c2f74" d="M1172.26 128.4l-14.43 2.67 6.08-.33 8.35-2.34zM1173.4 130.91c-1.9.24-4.93.24-2.28-.58 5.31.26 8.38-1.41 13.32-1.18l-4.58 1c.76.94 9.53-2.17 9.5-.33 6.11-2-4.93-1 3.09-2.85a195.61 195.61 0 0 1-19.81 1.94c1.91.14 2.66 0 5.33 0-4.58.52-10.65 2-16 2.89 3.09.71 6.87-.94 11.43-.89zM1196.6 128.45c4.94-.49 12.55-1.34 13.74-2.78-5.32-.52-6.11.85-8.4 1.67-1.53 0-6.47.43-4.55-.52.76.18-3.07 1.37-.79 1.63zM1216 126.65l3.49-1.55-2.3.42-.36-.85c-.39.25-2 2-6.92 2.36 2.65.43 3.45-.45 6.09-.38zM1216.61 120.51c3.43.29 5.36-.24 9.19-.94-5.36.61-13 1.27-14.57 1.92l.4-.25s-1.25.27-2.94.69a51.69 51.69 0 0 0-5.53 1.67c2.68-.78 6.51-1 9.43-1.33s4.94-.74 4.02-1.76zM1209.72 121l3.86-1.07zM1231.28 124.96l-7.61.29 1.89.2 5.72-.49zM1221.89 122.11c6.11-.39-3.41-.66 2.33-1.16 1.54-.28-8.42.8-8.82 1.43 1.52.08 5.77-1.24 6.49-.27zM1236.23 124.6l6.15-1.49zM1251.86 124l1.18-.73c6.08.14 14.18-1.31 18.66-.2-1.09-.74 2.41-1.83-2.92-1.72-.8.49-2.7.6-2.36 1.1-2.29 0-1.86-.62-3.39-.75-3.85 1-9.94.84-13 1.69a13.64 13.64 0 0 1 3-.12c-6.56 1.58-7.93-1.13-10.7 1 2.32-.8 6.45.2 9.53-.27zM1251 119.58l-5.36.11c1.59-1 6.52-.48 7.34-1.33-.36-.49-5.7-.38-3.78-.87-.49 2.08-7.29.6-4.35 2.69-6.9.77-2.23-1.09-9.51-.34l-2 1.27a70 70 0 0 1 8.8-.87 74 74 0 0 0 8.86-.66zM1271.64 118.52l2.63.49-1.46-.86a51.15 51.15 0 0 1 8.12 0c2.46.23 4.7.59 6.79 1 4.18.71 7.76 1.4 11.34 1a62.32 62.32 0 0 1 13.17-.75c4.36.1 8.75.32 13.33.18 4.45-.92-4.3-.4-4.79-.9 1.24-1.64 4.38.76 6.43-.6.27-.59-2.08-.86-5-1.06s-6.4-.21-8.39-.5c-3.42.31-3.35.67-4.37 1.38-.9-.62-4.39-.67-5.29-1.28-7.1 1.22-10.93-.35-17.91.93-2.24-.79 5.26-.39 2.92-.43l-3.83.19.41.13c-5.17 1-14.83 1-18.23.55 2.64.12 4.52.74 1.43 1.22l-2.61-.86-6.61 1.95c5.03-1.43 11.03.17 11.92-1.78zM1264.11 117.15c-8 0 1.05 1.48-7.73 1.58l9.2-.72z"/><path d="M1302.44 117.71l4 .54c-2.23-1.36-8.35.84-4-.54zM1317.01 117.08l-2.04 1.41 3.69-.91-1.65-.5z" fill="#fff"/><path d="M1330.35 118.35c2.94-.74-.61-1.23-4-1 3.06 0 4.65.54 4 1z" fill="#1c2f74"/><path d="M1352.27 120.48c-6.68.13 5.93.21 1.15 1.5.86-.58 4.23-1.4-1.15-1.5z" fill="#fff"/><path d="M1373.91 123.47c-2.42.24-3.4 0-3.73-.32a15.89 15.89 0 0 1 3.73.32zM1290.5 121.41c-.77 0-1.59.07-2.35.06zM1292 121.36h-1.53c.6.02 1.11.01 1.53 0zM1341.71 122.59c-.18 0-.34-.06-.52-.11zM1130.6 137.43c-1.27.29-2.25.48-3 .6l3-.6s-.01 0 0 0zM1126.74 136.22c5.28-1.76 6.12 1 14.8-1.11-3.51.75-7.2 1.55-11 2.32-5.22-.43 3.8-1.37-3.8-1.21zM1200.18 124.41l.3-.07c.52-.11.26-.04-.3.07z" fill="#1c2f74"/><path fill="#fff" d="M897.86 210.5l.13.34-4.52 1.97 4.39-2.31zM898.77 210.75c2.51-1.18 5.13-2.16 7.69-3.24a410.09 410.09 0 0 0-42.24 25.17l1-1.33c-.25-.06 1.77-1.47 4.93-3.53l5.44-3.51c2-1.25 4.21-2.51 6.38-3.81s4.33-2.58 6.37-3.75l5.57-3.08c3.24-1.79 5.24-2.97 4.86-2.92zM900.57 209.1c3.57-3.53 7.34-3.15 12.1-6.78-3.18 2.43-5.29 4.4-8.83 5.78z"/><path d="M914 199c2.54-.86 5.12-2.78 6.58-3.22-.39 1.43-4.49 2.38-6.58 3.22z" fill="none"/><path d="M918.51 192c.37-.2.74-.38 1.12-.54-.41.27-.78.53-1.06.74z" fill="#1c2f74"/><path d="M918.57 192.16l.16.5c-.87.19-.73-.06-.16-.5zM919.63 191.42a30.12 30.12 0 0 0 2.57-1.82l-1.08.42c1.37-.8 3.7-2.37 4.5-2.42-2.84 1.24-2.73 1.59-2.51 2.3l4.59-2.05c-.15 1.97-3.97 1.76-8.07 3.57z" fill="#1c2f74"/><path d="M933.92 184.48l-4.34 3c-1.69-.34 2.57-2.24 4.34-3z" fill="none"/><path d="M941.35 182.5c-1 .74-5.63 2.64-2.67 1.85a11.93 11.93 0 0 1-2.53 1.26c3.02-1.56-.37-1.37 5.2-3.11zM936.15 185.61c-.36.19-.76.39-1.31.62.43-.23.88-.43 1.31-.62z" fill="#1c2f74"/><path d="M890 213.24c.61-.18.65-.06.47.18z" fill="none"/><path d="M951.29 179.59l1.79-.7c-.51.2-1 .41-1.42.61z" fill="#1c2f74"/><path d="M819.74 267.81c1.15.59 2.29 1.21 3.42 1.85l.42.25v.09a.13.13 0 0 1 0 .06l.35-.38.78-.83 1.67-1.71 3.56-3.53c1.28-1.21 2.57-2.53 4-3.93s2.94-2.94 4.61-4.62c-1-.79 2.67-2.73 2.25-4.09-1.85 1.63-1 .91 1.12-1 1.07-1 2.56-2.18 4.19-3.57s3.44-2.93 5.34-4.39l5.5-4.38 4.63-3.51c2.51-1.94 3.63-2.92 1.92-1.9l-1.61 1.78 1.29-2.48c2-1.26 4.62-2.48 6.94-3.74a24.73 24.73 0 0 0 5.58-3.71 44.84 44.84 0 0 1-4.9 3.39c-1.57 1-3.43 2.21-5.39 3.53l-6.07 4.23c-1 .73-2.08 1.42-3.07 2.16l-2.9 2.16c-1.87 1.41-3.62 2.69-5 3.82-2.84 2.3-4.61 3.77-4.24 3.6-1 .29 1.2-1.84 5.07-5.12 2-1.6 4.36-3.5 7-5.55l8.58-6.22c3-2.07 6.09-4.09 9-6 1.45-1 2.89-1.89 4.27-2.74l3.9-2.43c2.44-1.51 4.48-2.86 6-3.77a21.13 21.13 0 0 0 2.56-1.67l1 .37c3-2.16 5.45-4.07 7.76-5.88s4.61-3.37 7.26-5l1.69.2c-4.21 1.82-5 2.93-9 5.47 7.08-3.89 8.67-4 14.06-7-.74-1-5 1.83 1.64-2.26 2.26-.49-1.81 2.94 4.34-.25a21.31 21.31 0 0 0 6.44-3.74 22.61 22.61 0 0 1 2-1.64 18.89 18.89 0 0 1 3.59-2c-1.58.49-3.13 1.06-4.68 1.63 2.39-1.27 6.94-3.45 9.59-3.88a44.42 44.42 0 0 0-5.83 3c-2 1.23-3.46 2.51-3.11 3 .67-.39 1.57-.84 2.59-1.32s2.16-.9 3.29-1.35c2.27-.9 4.5-1.75 5.72-2.32l-1.16 1.45c3-.42 4.1-2.22 7.81-3 3-1.85-2.44-.31-.78-1.42a32.29 32.29 0 0 0 4.17-1.29 25.37 25.37 0 0 0 5.11-2.26c-2.24-1.08-7.36 3.44-12 3.61 2-.74 4-1.56 6.09-2.24 1.56-1.56-.88-.68-3.46.53s-5.38 2.49-4.7 1.4c1.87-1.82 4.38-2.44 6.83-3.05s4.87-1.16 6.53-3.1c-1.48.34-4.47 1.39-7 2.22s-4.47 1.57-4 1c3.37-.76 5.15-2.82 9.44-4.77l5.59-1.3c2-1.41.22-.71-1.66-.37a68.32 68.32 0 0 0 6.86-2.24c2.5-1 5.26-1.88 8.09-2.94s5.77-2.08 8.72-3.05c1.47-.49 3-1 4.42-1.39s3-.75 4.4-1.06c6.55-2.4.58-1 3.39-2.62 3.88-.09 9.57-2.9 13.25-4.08 1.11-.3 2.79-1.91 1.6-2-3 1.18-6.05 2.43-9.07 3.64.27-.7-1.38-1.17-4.67 0 1.48.63-1.88 1.39-5.62 2.29s-7.79 2.13-7.73 3.36l-.23-1.08-11.5 4.93h.4c0-.16-2.47.85-5.68 2.29a105.88 105.88 0 0 1-10.5 4.26c1.71-1.06 12.61-4.92 5.85-3.54 4.5-2.58 13.51-4.65 22.14-8.27l-2-.08c1.12-.54 2.29-1.06 3.51-1.57l1.87-.75 1.94-.67c2.63-.87 5.39-1.7 8.2-2.52l8.43-2.44 4.12-1.23c1.36-.39 2.69-.78 4-1.19l-2.8 1.87c3.77-.71 8.71-1.29 11.92-3.12-4.44 1.35-2.31.13-1.63-.52 2.93-1.15 6.65-2.21 10.65-3.34s8.34-2.09 12.43-3.37c0 0-.35.32 0 .37l8.54-2.86a29.16 29.16 0 0 1 4.74-.69c1.24 0 2.31.05 3.66.08 1.49-.48 5.27-1.33 3.7-1.58a15 15 0 0 0-2.18.45c4.17-2.09 3.17-.4 8.54-2.32-4.06 1.88 1.63 1 1.33 2 6.37-1.88.23-1.78.94-2.38 4-.64 6.27-.81 8.55-1s4.57-.44 8.54-1.14c.34-.65-5.7.73-6.5.25a23.08 23.08 0 0 0 5.28-1.2l-5 .53a190.77 190.77 0 0 0 25.4-4.66l-.77-.15c1.89-.36 3.78-.77 5.68-1.06-.61.48-1.23.93-1.84 1.43 3-.83 6.49-.42 8-1.57l-1.14.12 3.78-1-3.76 1.74c5-.38 11.33-3.74 19.33-4.92 2 1.15-13.66 2.86-14.35 4.9 2.68-.15 7.23-.61 8.74-1.38-.4-.45-2.3-.13-4.2.18a85.52 85.52 0 0 1 11.81-2.31l2.94-.47c1-.15 1.87-.3 2.71-.47a15.64 15.64 0 0 0 4.19-1.34l-5.35.16c6.1-1.07 10.33.33 12.22-1l-4.54 2.55c6.07-1.8 14.08-2.77 19.8-4.3 0-1.1-8.39 1.24-8 1l2.66-1.18a43.56 43.56 0 0 1 6.16-.23 18.15 18.15 0 0 0 2.06 0c1.09 0 2.76-.09 5.53-.26v-.74c3.82.68 13.4-2.6 9.93-.23l-3-.1.36.84 12.64-2.08c-1.17.8 5-.11 3.4.94l4.6-1.32c2.26 1-8.44 2.49-8.84 3.49.23.55 2.43.22 3.5 0-5.53 1.58-8.55-.25-14.16.38l-2.7 1.11v-1.1a14.89 14.89 0 0 0-5 2c-5.73-.9-11.42 1.82-19.79 2.67 6.83-1.61-4.58-.4-3.44-.85-3.81.55-12.91 3.74-16.35 3-2.29-.14 4.52-1.57-.79-.9-3.41.71-5.67 1.68-3.38 1.82-7.57 1.63-16.67 2.91-25 4.4.62-.38 1.24-.72 1.86-1.07a34.93 34.93 0 0 0-12.76 3.71c-.77-.15-1.14.15-.42-.44a20.68 20.68 0 0 0-8 1.88c-1.28.5-2.68 1.06-4.45 1.61s-3.91 1.07-6.62 1.66c.42.43 1.84.37 3.58.1a31.36 31.36 0 0 0 5.48-1.36l-.66 1.32c4.7-.91 9.68-2 14.41-3.05s9.24-2.26 13-3.21l-3.36 1.45c6.88.41 4.47-2.3 11-1.6 4.52-1.2-3.43 0-.05-1.11 3.31-.22-.49 2.13 5 1.27-5.07 1-10.33 2-15.7 3l-16.25 3.39-8.23 1.69-4.11.84c-1.37.29-2.73.63-4.09 1l-16.07 3.79c-.36.31.78.13 1.9-.05a32 32 0 0 1-4.85 1.46c-1.15.29-2.45.59-3.87.91l-4.59 1.13-10.75 2.5-5.85 1.34c-2 .45-4 .88-5.93 1.42-7.85 2-15.54 4.08-21.32 5.84-5.72 1.92-9.55 3.49-9.78 4.37-1.16-.09 2-1.64-2.34-.17-.33.33-1.36 1-.19 1.05a81.68 81.68 0 0 0-9.13 2.24c-3.14 1-6.4 2.23-9.71 3.48s-6.7 2.52-10.1 3.73-6.73 2.54-10.09 3.57c.48.36-2.29 1.76-2.2 2.11a20.74 20.74 0 0 0-4 1.06c-.72.25-1.45.53-2.18.82s-1.46.66-2.19 1a55.4 55.4 0 0 1-8 3.33h1.57c-4.32 1.88-8.66 3.69-12.89 5.76-.29.37 1.45-.44 2.51-.85-2.67 1.57-3.57 1.26-4.06.93l-5.13 3.55a94.53 94.53 0 0 0-13.33 5.84l-3.4 1.77c-1.15.59-2.28 1.22-3.4 1.9l-6.8 4.07c-4.61 2.68-9.08 5.76-13.68 8.58-2.31 1.39-4.52 2.93-6.81 4.32s-4.59 2.74-6.84 4.11c-2 2.66-4 4.48-8.27 7.69.76-.43 1.51-.88 2.29-1.28-3.86 3.85-.56-.24-4 2.82-2.1 2.36.15 1.79 3.19-1.17 2.34-1.25 1.2 0-.15 1.28-3.35 2.48-6.73 4.82-9.88 7.28-1.59 1.22-3.22 2.36-4.74 3.58l-4.58 3.56c-1.49 1.18-2.95 2.36-4.4 3.52s-2.82 2.33-4.23 3.45-2.71 2.29-4 3.4l-1.97 1.67-.9.82-.43.38v-.13l-.33-.19c-1.22-.69-2.4-1.34-3.6-1.95zM1433.23 126.73c-1.84-.52 7.32-.23 2.87-1.37-7.09-1.16-16.45-1.5-26.13-1.79l-3.64-.11h-3.65l-7.24-.12c-4.76-.12-9.38-.33-13.6-.73-4.5-.79-5.7-.81-9.76-1.24a.46.46 0 0 0 .11.57h-8.33c-3.01 0-6 0-8.31-.17-1.31.24-2.26 1.05.24.81-7 .83-12.08-1.24-16-.54 3.41.46-3.36.82.7 1.16-7.32.25-6.72-2.56-12.53-2.78-.34.22-.69.45.48.5-6.36-1.19-19.38 1.34-20.15-.61l-2.52.93c-2.8-.52-2.13-1-6.77-1.06-3 .44.15.72-.94 1.07-1.31-.74-9.39 0-13.13-1-.28-1.23 6.64 1.38 10.25.11.1-.25-.43-.3-1.18-.3 9.61-.25 18.1.33 26.15.78 8 .62 15.66 1.12 23.54.5a10.48 10.48 0 0 0 7.67-1c-2.86-.34-11-1-11.16.72l-5-1c-1.87.13-1.87-1.63-2.69-1.9 3.49.13 7.4-1.64 2.68-2.18 9.18-.38-2.87 3.74 5.24 3.14l1.16-1.27c-1.52.7 5.51 1.14 8.13.67l-1.09-.23h8.42c2.9 0 5.89-.06 9 0h19l19.38-.19c6.4 0 12.69.09 18.66.11 5.8 3.26 17.57-.65 23 2 2.65-.35-3.71-1.2 1.35-1.45 2.54-.13 2.73.69 2.61.92l2.32-.19c1.68 3.07-2.85 5.65-19.14 7.24z" fill="#1c2f74"/><path d="M0 156.31S408.66 109 613.29 264.16H0z" fill="#1e2d54"/><path d="M342 168.73c-3 .26-9.42-.39-9.13-1.55-.29 1.16-.29 1.15-4.75 1.37.21-.77-3.73-1.08-6.22-1.34 2 .85 4.78 1.25 10.37 2.28 2.68-.46 6.59.31 10.45 1.11s7.67 1.62 10.22 1.07c-3.36-.96-6.56-2.67-10.94-2.94zM319.63 160.31l-.82.36 9.06.46c-1.87.14-8.03-.23-8.24-.82z" fill="#fff"/><path d="M290.5 158.22c.9-.79-3.63-1.76-3.46-2.53 0 1.76-7.22-.31-11.2-.47l-1.7 1.19c3.74 1.35 13.45 1.75 21.61 2.8z" fill="#1e2d54"/><path d="M283.22 156.51l-2.67.62c2.18-.03 7.2.31 2.67-.62zM288.28 161.73c6.37.79-3.78-1 2.67-.58-2.18-.01-4.68-.15-2.67.58z" fill="#fff"/><path d="M261.76 156.69l13.68.49c-1.86-.38-3.73-.71-5.59-1.06zM261.23 153.78c1.78.15 4.55.87 2 1.13-4.8-1.48-7.94-.16-12.43-1.38l4.38-.15c-.52-1.15-9.15.52-8.8-1.45-6 1 4.36 2-3.34 2.47a145.75 145.75 0 0 1 18.51 1.71 42.73 42.73 0 0 0-4.88-1c4.3.24 10.13.15 15.16.41-2.65-1.52-6.45-.67-10.6-1.74zM239.45 152c-4.64-.36-11.8-.83-13.12.64 4.84 1.3 5.77.11 8-.4 1.4.33 6 .69 4.1 1.37-.65-.33 3.07-.89 1.02-1.61zM221.22 150.82l-3.45 1.18 2.19-.13.21 1c.4-.22 2.11-1.88 6.75-1.57-2.39-.87-3.25-.04-5.7-.48zM219.81 157.36c-3.11-.79-5-.49-8.58-.27 5 .09 12.14.45 13.67 0l-.41.21s1.19-.12 2.8-.33 3.64-.5 5.33-.87c-5.16.56-14.22-1.18-12.81 1.26zM226.21 157.76l-3.69.61zM206.83 150.56c2.36.22 4.73.43 7.09.69l-1.72-.48zM215.16 154.9c-5.68-.44 3.06 1.18-2.29.92-1.46.09 7.85.31 8.31-.3-1.38-.31-5.48.48-6.02-.62zM202.19 150.3l-5.89.81zM187.56 149.27l-1.17.68c-2.83-.35-6.16-.32-9.3-.4s-6.08-.21-8.14-1c1 .89-2.37 1.79 2.61 2.11.78-.47 2.56-.44 2.28-1 2.13.19 1.69.82 3.1 1.08 3.68-.71 9.34 0 12.3-.63a10.74 10.74 0 0 1-2.85-.16c6.27-1.09 7.28 1.93 10.07 0-2.23.51-5.98-.95-8.9-.68zM188 154.13l5 .37c-1.57.91-6.09-.08-6.93.77.29.56 5.25.93 3.42 1.28.66-2.2 6.81 0 4.29-2.51 6.47-.09 2 1.43 8.76 1.52l2-1.12c-7.69.35-8.97-.76-16.54-.31zM168.7 153.47l-2.42-.75 1.31 1.06a44.46 44.46 0 0 1-7.55-.63c-2.28-.38-4.35-.87-6.28-1.35-3.87-1-7.19-1.88-10.56-1.57a51.6 51.6 0 0 1-12.33.34 104.6 104.6 0 0 0-12.48-.49c-4.16 1 4 .44 4.47 1-1.17 1.78-4.09-.84-6 .65-.51 1.27 8.8 1.17 12.49 1.93 3.2-.22 3.15-.62 4.12-1.35.81.7 4.07.87 4.89 1.58 6.66-1.08 10.16.85 16.71-.25 2.05 1-4.91.2-2.74.34h3.58l-.38-.16c4.87-1 13.86 0 17 .71-2.45-.36-4.15-1.18-1.25-1.45l2.37 1.15c2.09-.53 4.19-1.06 6.29-1.55-4.81.94-10.28-1.25-11.24.79zM175.6 155.57c7.43.71-.86-1.71 7.29-1-2.87 0-5.73-.06-8.6 0z" fill="#1e2d54"/><path d="M140 152.65l-3.7-.72c1.99 1.55 7.77-.63 3.7.72zM126.36 152.83l1.93-1.47-3.46.86 1.53.61z" fill="#fff"/><path d="M113.91 151.33c-2.75.8.57 1.33 3.77 1.08-2.89.01-4.41-.59-3.77-1.08z" fill="#1e2d54"/><path d="M93.35 149.12c6.26-.21-5.56-.17-1.11-1.62-.79.64-3.93 1.56 1.11 1.62z" fill="#fff"/><path d="M72.94 146.49c2.25-.38 3.19-.16 3.51.17a13.32 13.32 0 0 1-3.51-.17zM151.27 149.15h2.19zM149.83 149.13h1.44c-.54.03-1.02.02-1.44 0zM103.23 146.71a4.43 4.43 0 0 1 .49.13zM301.61 157.46c1.22 0 2.16.15 2.91.25-1-.09-1.92-.17-2.87-.23z" fill="#1e2d54"/><path d="M304.74 159.84c-5.2.32-5.22-2.76-13.58-3 3.36.16 6.88.38 10.49.63 4.57 1.97-3.75.34 3.09 2.37zM235.49 155.72h-.29c-.51.05-.2.02.29 0z" fill="#1e2d54"/><path d="M522.75 215.39l.22-.34c1.31.81 2.61 1.65 3.91 2.48-1.37-.72-2.74-1.45-4.13-2.14zM522.49 214.47c-2.25-1.35-4.5-2.71-6.77-4A407.81 407.81 0 0 1 557 231.89l-1.57-.31c.09.48-8.12-4.53-16.51-9s-16.92-8.7-16.43-8.11zM520.21 214.08a13.23 13.23 0 0 1-5.74-2.16 18.69 18.69 0 0 0-6.31-2.71c3.68.75 6.42 1.07 9.47 2.93.87.63 1.72 1.29 2.58 1.94z" fill="#fff"/><path d="M504.88 210.62c-2.13-1.29-5.11-1.76-6.29-2.54 1.27-.83 4.41 1.53 6.29 2.54z" fill="none"/><path d="M496.94 212.48a9.47 9.47 0 0 1-1-.43 10.67 10.67 0 0 0 1.16.23z" fill="#1e2d54"/><path d="M497.06 212.28l.27-.5c.67.52.38.6-.27.5zM495.9 212.05a19.69 19.69 0 0 0-2.84-.5l.94.47c-1.38-.39-3.89-.9-4.4-1.46 2.58 1.14 2.77.79 3.14.09l-4.2-1.81c1.46-1.43 3.64 1.57 7.36 3.21z" fill="#1e2d54"/><path d="M482.29 207.16l4.79.68c.83 1.43-3.15-.04-4.79-.68z" fill="none"/><path d="M476.21 203.6c1.14.08 5.42 1.76 3 .34a9.33 9.33 0 0 1 2.48.74c-3.02-.84-.69 1.37-5.48-1.08z" fill="#1e2d54"/><path d="M481.67 204.68c.36.11.75.23 1.27.43a10.53 10.53 0 0 1-1.27-.43z" fill="#1e2d54"/><path d="M529 220.18c-.45-.39-.37-.5-.09-.5z" fill="none"/><path d="M467.7 199.34l-1.67-.6c.48.17.93.3 1.37.43z" fill="#1e2d54"/><path d="M601.85 258.16a22.08 22.08 0 0 1-3.06-1.72c-1.17-.76-2.42-1.6-3.77-2.54-2.69-1.84-5.78-3.92-9.68-6.22-.6 1.23-3.21-1.77-4.45-.9 3.89 2.62-3.43-2.33-11.21-7.05s-16-9.11-12.95-6.93l2.25.62h-2.73c-3.64-2.63-8.42-6.68-11.5-7.44-.25-.41 8.15 4.21 16.21 9.23s15.85 10.33 15.36 9.74c1 1.67-10-5.51-21.91-12.24s-24.72-13-25.52-13l-.17-1.05c-3.3-1.13-6.08-1.9-8.74-2.59s-5.16-1.35-7.91-2.28l-.77-1.49c3.72 2.09 5.09 1.88 9.2 3.36-3.44-1.55-5.43-2.54-7.2-3.49a53.89 53.89 0 0 0-6-2.81c-.36 1.32 4.24 2.59-2.68.38-1.69-1.35 3.33-.83-2.75-3.09-3.54-1.7-5.15-1.9-6.67-2a17.39 17.39 0 0 1-6.11-1.3c1.37.7 2.72 1.45 4.08 2.16-2.35-.9-6.82-2.29-8.81-3.83a37.48 37.48 0 0 0 5.84 1.75c2.12.47 3.95.64 4.1 0-2.78-.83-8.58-3.58-11-4.42l1.78-.34c-2.28-1.82-4.25-1.08-7.25-3.06-3.28-.63 1.41 2-.45 1.7-.51-.57-6.39-3.15-8.69-3.29.81 2.4 7.38 1.91 10.54 5.16-1.86-.79-3.7-1.62-5.57-2.38-2.12.31.18 1.07 2.67 1.93s5.23 1.75 4 2.15c-2.48.19-4.51-1.1-6.56-2.27s-4.08-2.24-6.49-1.71c1.24.7 3.95 1.79 6.19 2.74s4 1.83 3.33 2c-2.69-1.79-5.29-1.19-9.45-2.37-1.54-.88-3.1-1.71-4.66-2.55-2.3-.11-.61.46.91 1.39-6.92-3.59-19.69-6.14-29.78-10.4-6.27-1.47-1 .62-4 .51-3-2-8.85-2.62-12.29-3.46-1-.34-3.15.34-2.29 1.05 3 .47 5.92 1 8.86 1.51-.58.5.42 1.85 3.55 2.53-1.51-2.85 11.75 4.73 13.08 2.44l-.46 1.11c3.72.83 7.46 1.62 11.17 2.54l-.28-.26c-.08.18 2.29.71 5.41 1.5a73.43 73.43 0 0 1 9.88 3.18c-1.84-.25-11.73-4-6.24-.79-4.63-.85-12.29-4.38-20.64-6.3l1.37 1.24c-8.91-1.42-19.94-6-29.69-8.08l3.13-.34c-3.28-1.28-7.47-3.19-10.9-3 4.16.92 1.88 1 1 1.31-2.86-.37-6.31-1.2-10-2l-5.67-1.4c-1.94-.41-3.91-.76-5.86-1.05 0 0 .43-.15.13-.38-2.74-.32-5.46-.68-8.2-1a24.11 24.11 0 0 1-7.21-2.94c-1.44-.14-4.95-.76-3.73.11a12.7 12.7 0 0 0 2 .41c-4.31.46-2.81-.85-8.07-1 4.14-.31-1-1.64-.35-2.57-6.1-.62-.86 1.7-1.7 2-7.2-1.82-8-2.82-15.34-4.18-.51.54 5.16 1.24 5.67 2.05a17.48 17.48 0 0 0-4.95-.66l4.43 1.22c-3.75-1-7.48-1.78-11.33-2.43q-2.88-.48-5.89-.86c-2-.23-4.09-.42-6.24-.58l.63.41-5.28-.73 2.05-.92c-2.88-.09-5.82-1.51-7.46-.75l1 .21h-3.63l3.83-.72c-4.5-1-11.06.57-18.44-.38-.71-.88 2.5-.68 6-.5s7.4.42 8-.56c-2.41-.61-6.57-1.48-8.13-1.08.24.58 2 .79 3.78 1a72.41 72.41 0 0 1-11.1-.91c-3.75-.48-7.21-.81-9.35-.09 1.6.38 3.21.73 4.82 1.13-5.7-.35-9.17-2.83-11.19-1.84l4.68-1.61a86.77 86.77 0 0 1-9.54 0c-3.28-.1-6.5-.21-9.24-.05-.23 1.17 7.82.59 7.42.8l-2.65.65c-8.39-1.35-2.35-1-12.52-2.41l-.16.79c-3.33-1.45-12.64.25-9.05-1.63l2.74.68-.17-1-5.94-.08h-5.94c1.2-.64-4.53-.76-2.95-1.62l-4.42.61c-1.92-1.47 8.12-1.17 8.65-2.18-.12-.63-2.18-.67-3.2-.64 5.34-.7 7.79 1.79 13 2.19l2.66-.68-.22 1.18a12.79 12.79 0 0 0 4.91-1.15c5.05 2 10.75.5 18.53 1.49-3.27.06-2.25.44-.57.81s4.05.81 3.48.92c3.54.35 12.54-.94 15.42.87 2 .78-4.44.38.47 1.17 3.23.2 5.5-.18 3.49-1 1.8.1 3.67.25 5.6.43s3.9.44 5.89.69l11.95 1.56-2 .53a29.28 29.28 0 0 0 12.35.36c.63.42 1 .24.22.6a16.48 16.48 0 0 0 7.63.83 37.24 37.24 0 0 1 10.73.61c-.4-1.18-5-2-8.28-2l1-1.13c-4.43-.66-9.13-1.33-13.65-1.8s-8.85-.77-12.49-.86l3.42-.49c-6-2.51-4.66 1.08-10.25-1.56-4.38-.07 3.05 1-.28 1.16-3-.72 1.05-2.08-4.07-2.77 19.34 1.56 41.22 4.79 61.26 8.18.43-.16-.62-.43-1.65-.7 3.61-.26 19.15 3.32 33.92 7.15s28.8 7.85 30.11 6.49c.86.73-2.46.4 1.73 1.46.44-.13 1.59-.15.73-.87 10.07 4.59 24.62 6.91 36.74 12.29-.1-.64 2.75 0 2.93-.32 3.85 2.68 11.58 4 15.29 6.21l-1.05-1.1c4.15 1.59 8.31 3.18 12.43 4.87.45-.07-1.22-.76-2.19-1.24 2.82.81 3.15 1.72 3.21 2.34 2 .31 4 .67 6 1 7.57 4.46 16.58 8.19 25.83 12.34s18.72 8.72 27 14.5c3.15.62 5.62 1.56 10 4.19l-1.94-1.62c4.89 2 0 .63 3.93 2.62 2.89 1 1.67-.91-2.1-2.58-2-1.68-.42-1.18 1.27-.41 6.84 4.41 13.21 9 19 13.63 2.88 2.29 5.62 4.59 8.19 6.74 1.27 1.06 2.53 2.13 3.69 3s2.46 1.85 3.17 2.31zM17 147c1.78.39-6.83 1-2.55 1.76 6.76.55 15.55.14 24.64-.39s18.49-1 26.46-.54a90.75 90.75 0 0 0 9.22.91.57.57 0 0 0-.13-.62c4.32-.12 11.29-.74 15.63-.32 1.22-.27 2.09-1.16-.25-.88 6.54-1 11.37 1.22 15 .44-3.21-.49 3.15-.89-.67-1.26 6.88-.27 6.33 2.79 11.78 3 .31-.25.64-.5-.46-.55 6 1.13 18.2-1 18.88 1.09l2.38-.93c2.61.68 2 1.14 6.31 1.42 2.83-.34-.11-.8.92-1.12 1.2.86 8.79.46 12.24 1.67.2 1.35-6.15-1.8-9.58-.58-.11.27.39.35 1.09.38-2.24 0-4.43-.13-6.55-.26s-4.2-.26-6.22-.42c-4-.34-7.92-.77-11.69-1.15-7.54-.69-14.69-1.24-22.08-.53a8.61 8.61 0 0 0-7.17 1.11c2.68.35 10.32 1 10.44-.89l4.67 1.12c1.75-.13 1.76 1.77 2.52 2.07-3.26-.14-6.9 1.79-2.49 2.38-8.56.41 2.66-4.08-4.93-3.42l-1.06 1.39c1.41-.78-5.18-1.19-7.62-.65l1 .24c-20.23 0-47.18 1.85-69.45 3.82-5.71-3.07-16.27 2.35-21.62 0-2.42.64 3.58.95-1.09 1.7-2.34.38-2.62-.49-2.54-.75l-2.03.41c-2-3.16 1.87-6.38 17-9.65z" fill="#1e2d54"/><path d="M1035.34 173.43S1067.69 71.68 972 50.73M1034.33 41s-21.26 1.26-24.62 25.94M1038.9 115.84s-51.75 2-74.66-31.19M1061 70.35s-2.31 17.8-25.81 31.21M1003.66 89.64s8.43 13.58-2.69 20.63M1080.83 89.64s-1.94 34.41-40.23 38.9M1080.83 65.7s-2.27 23.52-28.15 21.32M981 100.83s-18.43 8.26-32.58-5M1102.4 103.69s-7.34 23.56-36.45 14.66" fill="none" stroke="#6d6c6c" stroke-linecap="round" stroke-miterlimit="10" stroke-width="5.47"/><g opacity=".8" fill="#ce007f"><path d="M978.46 44.77c-.09-.42-.37-.43-.6-.19s-1.24-1-2.27-1.12a2.82 2.82 0 0 0-1.44.13 4.69 4.69 0 0 0-3.76.52c-.18 0-.72 0 0 .9-1.47.1-3.07.24-3.68 1.55-.33.45-1.43.09-1.76.56-.39.91-1.9.65-2.44 1.41 0 .22.3.85.16.87-1.75.05-1.16 2.22-1.33 3.58-.14.48-.15.93-.47 1.22.37.37.25.39.31.6-.19.24-2.35.83-2.94.49-.43-.06 1.77-3.17 1.3-3.5-.33-.16-1.55 1.93-1.79 2 .21-2.67.46-4.46.54-5.52s.06-1.43-.06-1.33a10.19 10.19 0 0 0-.85 4c-.37.27-.07 1.32-.54 2-.07-.67-.85-2.68-.77-2.94.1-1.42-.58-1.79.38-2.72.77-.75.93-3.2 1.36-4.14.29 1 1 3.24.34 3.6 1.82-.35-.59-3 .81-4a1 1 0 0 0 .16-.59l.69-.11c1.06-.85 1.41-2.3 2.7-2.89-.07.1-.51-.32-.65-.31-1.61-.05-1.54 1.6-2.64 2.23-.28 0 .09.92-.1 1.08-.33.39-1 .28-1.62.39.15-1.2 1.11-1.85 1.79-2.66.1-.2-.1-.83-.18-1.18a7.93 7.93 0 0 0-1.15.93c-1.12 1.39-.73 4.79-2.69 4.56v.23a.33.33 0 0 0-.14 0 .8.8 0 0 1-.84.27l.52-.39c-.22-2.54 1.89-3.25 2.79-5 .12-.49 1.3-.22 1.44-.71a3.62 3.62 0 0 1 3.25-2 28.48 28.48 0 0 1 7.71-.43 12.59 12.59 0 0 1 7 2.58.63.63 0 0 1 .22-.07l-.14-.35.25.33c.4-.06.83.09 1.16.79.12.43-.26 0-.36.46l.15.17v.52c.06-.12.08.2.11.4a9.87 9.87 0 0 0-2.05.24c.25.68.42.5.54.59.18-.18.39-.37.62-.17.55-.17 1.06 1.08 1.24 1.5a4.31 4.31 0 0 1 0 .74.68.68 0 0 1 0 .37 2 2 0 0 0-.13.36c-.1.13-.14.27-.15.15zm-13.09-6.18a10.65 10.65 0 0 1 1.52.49h.37a.39.39 0 0 0 .36-.26c.76 0 1.5.13 2.23.24a4.41 4.41 0 0 0-2.88-.9c1.83-.93 4.66.5 6.69 1.5a11.21 11.21 0 0 0 1.49.09 2.27 2.27 0 0 0 .85-.39 22.85 22.85 0 0 0-8.32-2.06 14.67 14.67 0 0 0-8.44 1.7 43.51 43.51 0 0 1 6.13-.41zm0 .95a5.89 5.89 0 0 0-1.61 1.05c-1.51.86-3.06 2-2.64 4a11.21 11.21 0 0 1 2.64-4c-1.34.81-.3.3 1.43-.84-.05-.08.03-.14.13-.21z"/><path d="M974.33 36.42a12.85 12.85 0 0 1 2.43 2.06 10.07 10.07 0 0 0-1.1-2c-1.12-1.21-2.18-1-3.39-1.52a11.93 11.93 0 0 0-10 .59.66.66 0 0 0-.6.44 26 26 0 0 1 6.19-1 12.78 12.78 0 0 1 6.47 1.43zM956.89 37.92a4 4 0 0 1-1 1.37 2.39 2.39 0 0 0 1.75-.56 13.77 13.77 0 0 1 1.56-1.59 4.93 4.93 0 0 0-2.31.78zM961.7 36l-.48.14a5.31 5.31 0 0 0-2 1c.94-.11 1.93-.11 2.84-.2-.33-.45-.41-.76-.36-.94z"/></g><g opacity=".8" fill="#ce007f"><path d="M1032.56 106.12c-.09-.41-.37-.42-.61-.18s-1.23-1-2.26-1.12a2.7 2.7 0 0 0-1.44.13 4.6 4.6 0 0 0-3.76.52c-.18 0-.73-.06 0 .9-1.47.09-3.07.23-3.68 1.55-.33.44-1.43.08-1.76.56-.39.91-1.9.64-2.44 1.4 0 .22.29.85.16.87-1.75 0-1.16 2.22-1.33 3.59-.14.47-.15.92-.48 1.21.38.37.25.4.32.61-.19.24-2.36.83-2.94.49-.43-.07 1.77-3.17 1.3-3.5-.33-.17-1.55 1.92-1.79 2 .21-2.68.46-4.46.54-5.53s.06-1.43-.07-1.33a10.51 10.51 0 0 0-.84 4c-.37.26-.07 1.32-.54 2-.07-.68-.85-2.68-.77-2.94.1-1.42-.58-1.79.37-2.72.78-.75.94-3.2 1.37-4.15.29 1 1 3.25.33 3.6 1.83-.35-.58-3 .81-4a.9.9 0 0 0 .17-.59l.69-.11c1.05-.85 1.4-2.3 2.7-2.9-.07.1-.51-.32-.65-.3-1.62 0-1.54 1.59-2.64 2.22-.29.05.08.92-.1 1.09-.33.38-1.06.28-1.62.39.15-1.21 1.11-1.86 1.78-2.66.11-.21-.09-.83-.17-1.19a7.48 7.48 0 0 0-1.15.94c-1.12 1.39-.74 4.79-2.69 4.56v.23a.34.34 0 0 0-.15 0 .78.78 0 0 1-.83.27l.52-.4c-.22-2.54 1.89-3.25 2.79-5 .12-.5 1.3-.23 1.43-.71a3.63 3.63 0 0 1 3.26-2.05 28.09 28.09 0 0 1 7.71-.44 12.77 12.77 0 0 1 7 2.58.81.81 0 0 1 .22-.07l-.14-.35.25.33c.4-.05.83.1 1.16.8.12.42-.26 0-.36.45l.14.17v.52c.06-.11.08.21.11.4a10.1 10.1 0 0 0-2.06.25c.25.68.43.5.55.59.18-.18.39-.37.62-.17.54-.18 1.06 1.07 1.24 1.5a4.26 4.26 0 0 1 0 .74.64.64 0 0 1 0 .36 2 2 0 0 0-.12.37c-.1.2-.14.34-.15.22zm-13.09-6.12a10.65 10.65 0 0 1 1.52.49h.37a.39.39 0 0 0 .36-.26c.75.05 1.49.13 2.23.24a4.42 4.42 0 0 0-2.89-.9c1.84-.93 4.67.5 6.7 1.5a13.09 13.09 0 0 0 1.49.08 2.5 2.5 0 0 0 .85-.38 22.65 22.65 0 0 0-8.32-2.06 14.75 14.75 0 0 0-8.44 1.72 43.5 43.5 0 0 1 6.13-.43zm-.05.94a6.64 6.64 0 0 0-1.62 1c-1.5.87-3 2-2.63 4a11.45 11.45 0 0 1 2.63-4c-1.33.81-.3.31 1.44-.83 0-.11.08-.11.18-.22z"/><path d="M1028.43 97.77a12.85 12.85 0 0 1 2.43 2.06 10 10 0 0 0-1.1-2c-1.12-1.21-2.18-1-3.39-1.53a12 12 0 0 0-10 .59.67.67 0 0 0-.6.45 26 26 0 0 1 6.19-1 12.69 12.69 0 0 1 6.47 1.43zM1011 99.27a3.92 3.92 0 0 1-1 1.38 2.4 2.4 0 0 0 1.74-.56 13.11 13.11 0 0 1 1.57-1.59 4.93 4.93 0 0 0-2.31.77z"/><path d="M1015.8 97.31l-.48.13a5.19 5.19 0 0 0-2 1.06c.94-.11 1.92-.11 2.84-.2a1.27 1.27 0 0 1-.36-.99z"/></g><g opacity=".8" fill="#59c3e8"><path d="M1108.66 36.71a3.65 3.65 0 0 0-2.45.77 3.07 3.07 0 0 1-2 .28 6.41 6.41 0 0 0-2.31 0 6.69 6.69 0 0 0-2.07.66 11.26 11.26 0 0 0-2.5.36 7 7 0 0 0-2.28 1.11c-.21 0-.87.06-.07 1-1.76.39-3.64.75-4.42 2.32-.42.54-1.64.29-2 .88-.51 1.08-2.19 1-2.85 1.92 0 .24.28.92.14 1a1.73 1.73 0 0 0-1.47 1.65c-.13.83 0 1.81-.16 2.6a3.2 3.2 0 0 1-.56 1.45c.41.36.27.41.34.63-.21.31-2.56 1.31-3.17 1-.23 0 .2-.95.7-2s1-2 .74-2.2-1.75 2.44-2 2.56c.23-3.09.61-5.16.74-6.39s.14-1.62 0-1.49a12.66 12.66 0 0 0-1.1 4.7c-.41.36-.11 1.52-.62 2.38-.08-.76-.89-2.92-.79-3.24.16-1.63-.59-2 .51-3.16.89-1 1.2-3.78 1.74-4.9.26 1.1.9 3.52.18 4 2-.67-.49-3.31 1.12-4.59a1.39 1.39 0 0 0 .23-.68l.78-.21c1.22-1.11 1.73-2.72 3.19-3.56-.08.12-.55-.29-.71-.25-1.79.16-1.84 1.93-3.08 2.79-.33.09 0 1-.18 1.23-.41.46-1.2.46-1.84.65.21-1.39 1.36-2.21 2.15-3.21.12-.24-.07-.91-.14-1.29a9.42 9.42 0 0 0-1.33 1.19 5.36 5.36 0 0 0-.78 1.55l-.55 1.82c-.39 1.15-.83 2.11-1.94 2.13v.25a.33.33 0 0 0-.16 0 1.09 1.09 0 0 1-.94.44 7.7 7.7 0 0 1 .6-.54 4.64 4.64 0 0 1 1.24-3.31 18.84 18.84 0 0 0 2.16-2.75c.16-.57 1.46-.43 1.65-1a4.85 4.85 0 0 1 3.74-2.62c5.69-1.57 11.64-2.14 17.31-.68a1.59 1.59 0 0 1 .27-.18l-.28-.28.42.2a2 2 0 0 1 1.92.16c.37.32-.37.17-.36.66l.29.06.16.52c0-.15.21.14.35.3a17.26 17.26 0 0 0-1.67.69c-.54.28-1.08.55-1.65.78.45.6.71.33.92.36.29-.32.58-.64 1-.57.87-.55 2.34.34 3.32.34a5.06 5.06 0 0 1 .72.53c.33.35.14 1.3-.2 1.18zm-19.2-2.15a11.85 11.85 0 0 1 1.72.34l.43-.1a.51.51 0 0 0 .42-.33c.86-.06 1.7-.11 2.57-.1a5 5 0 0 0-3.3-.53 4.39 4.39 0 0 1 1.74-.55 9.9 9.9 0 0 1 2 .08c.69.09 1.4.23 2.09.37s1.39.34 2 .47a10 10 0 0 0 1.91-.4 3.82 3.82 0 0 0 1.11-.71 73.94 73.94 0 0 0-10.11-.3 19.33 19.33 0 0 0-9.58 2.94c1.23-.2 2.35-.47 3.46-.7a29.88 29.88 0 0 1 3.54-.48zm-.08 1a10 10 0 0 0-1.9 1.35 11.75 11.75 0 0 0-2.4 2 3.63 3.63 0 0 0-.82 2.81 27.32 27.32 0 0 1 1.37-2.55 14.34 14.34 0 0 1 1.85-2.27c-1.54 1.08-.37.36 1.68-1.09 0-.03.09-.11.22-.2z"/><path d="M1099.69 30.64c1.17.45 2.27.79 3.37 1.29a12.74 12.74 0 0 0-1.81-1.63 4.71 4.71 0 0 0-2.1-.61 12.33 12.33 0 0 1-2-.1 15.6 15.6 0 0 0-11.06 2 .87.87 0 0 0-.68.55c4.59-1.61 9.11-2.7 14.28-1.5zM1080 34.86a5.41 5.41 0 0 1-1.15 1.65 3.14 3.14 0 0 0 2-.84 16.19 16.19 0 0 1 1.84-2 6.17 6.17 0 0 0-2.69 1.19z"/><path d="M1085.43 32.15l-.55.2a6.55 6.55 0 0 0-2.25 1.37c1-.23 2.15-.35 3.19-.54a1.19 1.19 0 0 1-.39-1.03z"/></g><g opacity=".8" fill="#ed7100"><path d="M1121.35 87a1.46 1.46 0 0 0-1.75-.13 2.08 2.08 0 0 1-1.53-.47 5.2 5.2 0 0 0-1.89-.78 4.37 4.37 0 0 0-1.88.09 6.07 6.07 0 0 0-4.64.31c-.21 0-.86-.13-.12 1-1.76 0-3.67 0-4.54 1.47-.45.49-1.69 0-2.14.51-.56 1-2.31.6-3 1.46 0 .26.25 1 .1 1-2.07-.07-1.59 2.52-1.9 4.11-.21.55-.26 1.07-.65 1.39.41.45.26.48.31.72-.23.27-2.8.85-3.44.41-.24 0 .29-.94.87-1.89s1.18-1.92.9-2.13-2 2.18-2.25 2.25c.44-3.14.91-5.24 1.12-6.49s.22-1.68.06-1.57a12.22 12.22 0 0 0-1.39 4.69c-.46.3-.2 1.56-.8 2.34 0-.79-.78-3.2-.65-3.5.24-1.68-.52-2.15.7-3.2 1-.85 1.44-3.73 2.07-4.82.23 1.22.77 3.89 0 4.27 2.2-.29-.37-3.58 1.41-4.62a1.2 1.2 0 0 0 .27-.68l.83-.09c1.36-.92 2-2.6 3.57-3.18-.09.11-.56-.42-.73-.41-1.91-.2-2 1.74-3.41 2.4-.35 0 0 1.09-.26 1.28-.44.42-1.28.25-2 .34.33-1.41 1.54-2.12 2.45-3 .15-.23 0-1-.06-1.41a11.47 11.47 0 0 0-1.49 1 11.31 11.31 0 0 0-1.58 3.35c-.46 1.16-1 2.06-2.15 1.88v.27a.27.27 0 0 0-.16-.05 1 1 0 0 1-1 .28l.66-.45c0-3 2.62-3.74 3.92-5.79.21-.58 1.58-.17 1.8-.73a4.53 4.53 0 0 1 4.13-2.14 33.89 33.89 0 0 1 9.17.23 18.94 18.94 0 0 1 8.22 3.48l.28-.08c-.06-.14-.11-.27-.17-.4l.32.37a1.54 1.54 0 0 1 1.6.84c.22.48-.35 0-.48.57l.23.18v.61c.08-.14.14.22.2.45a28 28 0 0 0-3 .37c.28.79.55.6.71.7.29-.25.61-.47.94-.22.4-.14.86.15 1.26.54s.78.86 1.11 1.08a5.54 5.54 0 0 1 .33.86c.12.25 0 .6-.1.86s-.28.45-.38.27zm-16.91-7.89a12 12 0 0 1 1.73.71h.45a.49.49 0 0 0 .46-.27c.88.13 1.75.29 2.61.49a5.22 5.22 0 0 0-3.31-1.32c2.29-.91 5.44 1 7.82 2.32a12.05 12.05 0 0 0 1.85.18 3.28 3.28 0 0 0 1.13-.44 36 36 0 0 0-9.84-3 17.5 17.5 0 0 0-10.23 1.28 47.16 47.16 0 0 1 7.33.09zm-.19 1.1a7.71 7.71 0 0 0-2 1.08c-1.9.88-3.88 2.12-3.62 4.5a13.59 13.59 0 0 1 3.62-4.5c-1.68.84-.4.33 1.8-.85-.05-.05.07-.12.2-.19z"/><path d="M1115.3 77.39a22.85 22.85 0 0 1 2.89 2.44 13.37 13.37 0 0 0-1.3-2.36 4.2 4.2 0 0 0-1.89-1.27 19.62 19.62 0 0 1-2-.69 14.38 14.38 0 0 0-11.79-.25.82.82 0 0 0-.77.47 30.6 30.6 0 0 1 7.44-.58 16.35 16.35 0 0 1 7.42 2.24zM1094.45 77.65a5.09 5.09 0 0 1-1.32 1.56 3 3 0 0 0 2.15-.54 17.34 17.34 0 0 1 2.07-1.76 6.12 6.12 0 0 0-2.9.74zM1100.43 75.73l-.59.11a6.61 6.61 0 0 0-2.49 1.07h3.4a1.41 1.41 0 0 1-.32-1.18z"/></g><g opacity=".8" fill="#ce007f"><path d="M1120.76 50.28a2.48 2.48 0 0 0-2.3.06 2.39 2.39 0 0 1-1.89-.32 5.91 5.91 0 0 0-2.22-.65 4.42 4.42 0 0 0-2.12.19 8.74 8.74 0 0 0-2.6-.25 7.4 7.4 0 0 0-2.48.69c-.23 0-.91-.1-.17 1.11a15 15 0 0 0-2.79.21 3.44 3.44 0 0 0-2.11 1.38c-.49.53-1.78 0-2.28.56-.64 1.07-2.44.68-3.25 1.55 0 .27.24 1.07.08 1.08-2.17 0-1.76 2.66-2.13 4.32a3.34 3.34 0 0 1-.73 1.47c.42.46.26.49.32.75-.27.28-2.94.92-3.6.47-.24 0 .32-1 1-2s1.28-2 1-2.24-2.13 2.31-2.42 2.39c.55-3.29 1.11-5.5 1.38-6.81s.28-1.76.11-1.65a13.28 13.28 0 0 0-1.61 4.94c-.48.32-.26 1.63-.9 2.47 0-.83-.73-3.34-.59-3.67.31-1.75-.48-2.25.84-3.36 1.06-.9 1.65-3.92 2.35-5.06.18 1.26.69 4.07-.16 4.46 2.32-.33-.27-3.75 1.65-4.84a1.27 1.27 0 0 0 .3-.72l.88-.09a9.19 9.19 0 0 0 1.83-1.8 5.26 5.26 0 0 1 2-1.53c-.1.12-.57-.43-.76-.42a2.21 2.21 0 0 0-2 .92 5.09 5.09 0 0 1-1.63 1.6c-.37 0-.07 1.12-.32 1.32-.47.46-1.35.28-2.08.38.39-1.47 1.69-2.22 2.69-3.15.16-.24 0-1 0-1.46a12 12 0 0 0-1.6 1.06c-.82.79-1.24 2.3-1.78 3.49s-1.11 2.18-2.34 2v.28a.32.32 0 0 0-.17 0 1 1 0 0 1-1.08.31l.71-.48a4.87 4.87 0 0 1 1.67-3.43 16.54 16.54 0 0 0 2.65-2.64c.25-.6 1.68-.18 1.92-.78a4.15 4.15 0 0 1 1.84-1.66 5.78 5.78 0 0 1 2.57-.56 39.12 39.12 0 0 1 4.84-.23c.81 0 1.61 0 2.39.08s1.61.18 2.4.3 1.54.23 2.33.45 1.54.43 2.28.68a20.92 20.92 0 0 1 4.26 2 2.85 2.85 0 0 1 .31-.12l-.22-.39.38.34a1.83 1.83 0 0 1 1.85.76c.28.48-.4.07-.51.61l.27.17v.62c.07-.15.17.22.26.45-1.16 0-2.3.47-3.49.62.33.8.64.59.83.68.33-.26.68-.52 1.08-.32.46-.22 1 .09 1.53.45a8.24 8.24 0 0 0 1.46 1 5.25 5.25 0 0 1 .51.82 1.15 1.15 0 0 1 0 .89c-.14.18-.29.37-.44.25zm-19-7.35a13.27 13.27 0 0 1 1.8.7h.48a.52.52 0 0 0 .5-.27c.93.12 1.85.28 2.75.44a5.72 5.72 0 0 0-3.46-1.3c2.43-1 5.71 1 8.3 2.22a9.35 9.35 0 0 0 2 .09 5.29 5.29 0 0 0 1.23-.5c-.77-.32-1.57-.56-2.4-.83s-1.71-.57-2.6-.82a39.53 39.53 0 0 0-5.53-1.13 19 19 0 0 0-10.81 1.38c2.81-.03 5.12-.35 7.79.02zm-.22 1.14a7.51 7.51 0 0 0-2.2 1.13c-2 .92-4.16 2.23-4 4.71a15.12 15.12 0 0 1 4-4.71c-1.8.89-.44.33 1.93-.89.06-.1.18-.17.32-.24z"/><path d="M1113.32 40.86a31 31 0 0 1 3.21 2.37 15 15 0 0 0-1.51-2.34c-1.45-1.46-2.7-1.19-4.16-1.84-.54-.24-1.07-.45-1.62-.64a16 16 0 0 0-1.59-.39 15.58 15.58 0 0 0-9.14.91.92.92 0 0 0-.82.48c1.34-.21 2.59-.45 3.9-.55a29.82 29.82 0 0 1 3.89-.1 26 26 0 0 1 3.93.58 20.8 20.8 0 0 1 3.91 1.52zM1091.36 41.43a6 6 0 0 1-1.44 1.63 3.41 3.41 0 0 0 2.27-.58 16.41 16.41 0 0 1 2.24-1.83 6.41 6.41 0 0 0-3.07.78zM1097.69 39.41l-.64.11a7.48 7.48 0 0 0-2.62 1.13h3.56a1.43 1.43 0 0 1-.3-1.24z"/></g><g opacity=".8" fill="#199e8e"><path d="M985.55 70.73a.46.46 0 0 0-.36-.32c-.12 0-.27.06-.39.2-.38.26-1.37-1-2.43-1a2.71 2.71 0 0 0-1.44.25 4.6 4.6 0 0 0-3.79.8c-.19 0-.75 0 .1.94-1.49.21-3.14.5-3.61 1.91-.28.49-1.46.21-1.75.74-.29 1-1.88.85-2.35 1.69.07.22.41.85.28.88-1.81.23-.93 2.41-.93 3.83-.08.5 0 1-.33 1.3.44.34.31.38.4.58-.16.27-2.32 1.1-3 .81-.46 0 1.41-3.44.88-3.73-.36-.13-1.35 2.15-1.59 2.24-.14-2.77-.1-4.65-.15-5.76s-.11-1.48-.23-1.37a10.63 10.63 0 0 0-.38 4.25c-.34.31.1 1.37-.3 2.12-.15-.68-1.23-2.66-1.17-2.94-.08-1.48-.83-1.79 0-2.86.71-.86.58-3.42.92-4.44.42 1 1.4 3.26.78 3.7 1.85-.56-1-3.06.37-4.2a1 1 0 0 0 .11-.63l.7-.19c1-1 1.21-2.53 2.48-3.28-.06.11-.56-.29-.71-.26-1.68.11-1.43 1.81-2.49 2.58-.3.08.19 1 0 1.15-.31.43-1.07.39-1.65.57 0-1.27.95-2 1.56-3 .08-.22-.19-.85-.32-1.21a8 8 0 0 0-1.09 1.09c-1 1.57-.21 5.06-2.27 5l.06.23a.44.44 0 0 0-.15 0 .8.8 0 0 1-.84.37l.5-.47c-.54-2.61 1.58-3.58 2.31-5.54.08-.54 1.34-.37 1.43-.89a3.76 3.76 0 0 1 3.29-2.44 28.53 28.53 0 0 1 8-1.15 13.28 13.28 0 0 1 7.43 2.16.9.9 0 0 1 .21-.08l-.17-.36.29.32a1 1 0 0 1 .64.06 1.73 1.73 0 0 1 .64.67c.18.43-.27 0-.33.51l.17.16v.55c0-.12.11.21.16.41a10.5 10.5 0 0 0-2.13.44c.32.68.48.48.61.58.17-.21.38-.45.63-.23.26-.11.6.1.86.47.14.18.26.37.37.53a3.88 3.88 0 0 0 .28.44 5.13 5.13 0 0 1 .13.77c.11.24 0 .54-.08.79s-.13.39-.16.26zm-14.19-5.39a10.66 10.66 0 0 1 1.62.37l.39-.08a.43.43 0 0 0 .35-.3c.78 0 1.56 0 2.32.06a4.51 4.51 0 0 0-3.04-.69c1.81-1.14 4.89.12 7.06 1a9.73 9.73 0 0 0 1.54 0 2.05 2.05 0 0 0 .85-.47 23.18 23.18 0 0 0-8.8-1.49 14.87 14.87 0 0 0-8.6 2.61 41.59 41.59 0 0 1 6.31-1.01zm0 1a6.19 6.19 0 0 0-1.57 1.24c-1.47 1-3 2.4-2.28 4.43a11.49 11.49 0 0 1 2.28-4.43c-1.29 1-.28.35 1.4-1 .04-.1.12-.17.22-.25z"/><path d="M980.43 62.32a14.35 14.35 0 0 1 2.69 2 11.19 11.19 0 0 0-1.31-2 3.78 3.78 0 0 0-1.81-1 14.25 14.25 0 0 1-1.83-.38 12.23 12.23 0 0 0-10.33 1.5.69.69 0 0 0-.58.52 25.41 25.41 0 0 1 6.36-1.62 13 13 0 0 1 6.81.98zM962.45 65.47a4.24 4.24 0 0 1-.85 1.53 2.51 2.51 0 0 0 1.75-.77 13.61 13.61 0 0 1 1.47-1.82 5.1 5.1 0 0 0-2.37 1.06z"/><path d="M967.26 62.93l-.49.19a5.26 5.26 0 0 0-1.95 1.3c1-.21 2-.31 2.94-.49-.41-.44-.53-.76-.5-1z"/></g><g opacity=".8" fill="#199e8e"><path d="M973.66 121.44c-.13-.28-.34-.28-.51-.09s-.92-.66-1.63-.68a1.87 1.87 0 0 0-1 .17 3.07 3.07 0 0 0-2.55.54c-.13 0-.51 0 .07.63-1 .14-2.12.33-2.43 1.28-.19.34-1 .15-1.18.5-.2.66-1.27.57-1.58 1.14 0 .15.27.57.18.59-1.21.15-.62 1.62-.62 2.58-.06.34 0 .65-.22.87.29.23.21.26.27.4a3.24 3.24 0 0 1-2 .54c-.31 0 1-2.32.59-2.51s-.91 1.45-1.07 1.51c-.09-1.87-.07-3.13-.1-3.88s-.08-1-.16-.92a7.27 7.27 0 0 0-.25 2.86c-.23.21.06.92-.2 1.43-.11-.46-.83-1.8-.79-2-.06-1-.56-1.2 0-1.92s.39-2.3.62-3c.28.69.93 2.2.52 2.49 1.25-.37-.65-2 .25-2.83a.69.69 0 0 0 .07-.42l.47-.13c.67-.67.82-1.7 1.68-2.21 0 .08-.38-.19-.48-.17-1.13.08-1 1.22-1.68 1.74-.2 0 .12.64 0 .77-.2.29-.72.27-1.11.38 0-.85.64-1.37 1.05-2 .06-.16-.13-.58-.21-.82a5.11 5.11 0 0 0-.74.73c-.68 1.06-.14 3.41-1.53 3.39v.16a.24.24 0 0 0-.1 0 .57.57 0 0 1-.57.25l.33-.32c-.36-1.76 1.07-2.41 1.56-3.73 0-.36.9-.25 1-.6a2.55 2.55 0 0 1 2.14-1.66 19.22 19.22 0 0 1 5.38-.77 8.89 8.89 0 0 1 5 1.45h.15l-.12-.24.2.22c.27-.08.58 0 .86.48.12.29-.18 0-.23.35l.12.11v.37c0-.09.07.14.1.27a8.25 8.25 0 0 0-1.43.29c.21.46.32.33.41.4.12-.14.26-.3.42-.16.38-.16.83.69 1 1a3.5 3.5 0 0 1 .09.52c.08.16 0 .37 0 .53s-.02.2-.04.12zm-9.55-3.63a5.86 5.86 0 0 1 1.09.25l.26-.06a.28.28 0 0 0 .24-.2h1.56a3.1 3.1 0 0 0-2.07-.47c1.22-.76 3.29.09 4.76.69a7 7 0 0 0 1 0 1.47 1.47 0 0 0 .57-.32 15.48 15.48 0 0 0-5.92-1 10.15 10.15 0 0 0-5.79 1.76 28.29 28.29 0 0 1 4.3-.65zm0 .66a4.36 4.36 0 0 0-1 .84c-1 .7-2 1.61-1.54 3a7.72 7.72 0 0 1 1.54-3c-.88.65-.19.23.94-.68-.05-.05.02-.1.09-.16z"/><path d="M970.21 115.78a9.54 9.54 0 0 1 1.79 1.32 7.9 7.9 0 0 0-.89-1.37c-.85-.8-1.57-.62-2.45-.9a8.25 8.25 0 0 0-7 1c-.12 0-.36.13-.39.36a17.5 17.5 0 0 1 4.28-1.1 8.7 8.7 0 0 1 4.66.69zM958.11 117.9a2.84 2.84 0 0 1-.57 1 1.69 1.69 0 0 0 1.18-.52 9.69 9.69 0 0 1 1-1.22 3.32 3.32 0 0 0-1.61.74z"/><path d="M961.35 116.19l-.33.12a3.78 3.78 0 0 0-1.32.88c.65-.14 1.35-.21 2-.33-.29-.3-.37-.51-.35-.67z"/></g><g opacity=".8" fill="#199e8e"><path d="M1120.66 96.77c-.13-.28-.34-.28-.51-.08s-.92-.67-1.63-.69a1.87 1.87 0 0 0-1 .17 3.07 3.07 0 0 0-2.55.54c-.13 0-.51 0 .07.63-1 .14-2.12.34-2.43 1.28-.19.34-1 .15-1.18.5-.2.66-1.27.58-1.59 1.14.05.15.28.57.19.59-1.21.16-.62 1.62-.62 2.58-.06.34 0 .65-.22.87.29.23.21.26.27.4a3.24 3.24 0 0 1-2 .54c-.31 0 1-2.32.59-2.51s-.91 1.45-1.07 1.51c-.09-1.87-.07-3.13-.1-3.88s-.08-1-.16-.92a7.27 7.27 0 0 0-.25 2.86c-.23.21.06.92-.2 1.43-.11-.46-.83-1.8-.79-2-.06-1-.56-1.21 0-1.92s.39-2.31.62-3c.28.69.93 2.2.52 2.49 1.24-.37-.66-2 .25-2.82a.74.74 0 0 0 .07-.43l.47-.12c.67-.67.82-1.71 1.67-2.21 0 .07-.37-.19-.47-.17-1.13.07-1 1.21-1.68 1.73-.2 0 .12.64 0 .77-.2.29-.72.27-1.11.39 0-.86.64-1.38 1-2 .06-.15-.13-.58-.21-.82a5.68 5.68 0 0 0-.74.73c-.68 1.06-.14 3.41-1.53 3.39v.16a.26.26 0 0 0-.11 0 .53.53 0 0 1-.56.25l.33-.31c-.36-1.76 1.07-2.41 1.56-3.74 0-.35.9-.24 1-.59a2.52 2.52 0 0 1 2.14-1.66 18.86 18.86 0 0 1 5.37-.78 9 9 0 0 1 5 1.45h.15l-.12-.24.2.22c.27-.07.58 0 .86.48.12.29-.18 0-.23.35l.12.11v.37c0-.09.07.14.1.27a7.47 7.47 0 0 0-1.43.3c.21.46.32.32.41.39.12-.14.26-.3.42-.16.38-.16.83.69 1 1a3.09 3.09 0 0 1 .09.52c.08.15 0 .36 0 .52s.04.21.02.12zm-9.55-3.63a8.41 8.41 0 0 1 1.09.25l.26-.06c.12 0 .19-.08.24-.2h1.56a3 3 0 0 0-2.07-.46c1.22-.77 3.29.08 4.76.69a8.68 8.68 0 0 0 1 0 1.47 1.47 0 0 0 .57-.32 15.56 15.56 0 0 0-5.92-1 10.07 10.07 0 0 0-5.79 1.75 28.29 28.29 0 0 1 4.3-.65zm0 .66a4.36 4.36 0 0 0-1.05.84c-1 .7-2 1.61-1.54 3a7.72 7.72 0 0 1 1.54-3c-.88.65-.19.23.94-.67 0-.06.07-.11.14-.17z"/><path d="M1117.21 91.11a9.17 9.17 0 0 1 1.82 1.33 7.63 7.63 0 0 0-.89-1.38c-.85-.8-1.57-.61-2.45-.9a8.22 8.22 0 0 0-7 1 .46.46 0 0 0-.39.35 17 17 0 0 1 4.28-1.09 8.7 8.7 0 0 1 4.63.69zM1105.11 93.23a2.84 2.84 0 0 1-.57 1 1.73 1.73 0 0 0 1.18-.51 9.79 9.79 0 0 1 1-1.23 3.41 3.41 0 0 0-1.61.74zM1108.35 91.52l-.33.13a3.62 3.62 0 0 0-1.32.87c.65-.14 1.35-.21 2-.33a.9.9 0 0 1-.35-.67z"/></g><g opacity=".8" fill="#ec7200"><path d="M978.74 113.23a1.49 1.49 0 0 0-1.81-.14 2.13 2.13 0 0 1-1.59-.49 5.42 5.42 0 0 0-2-.81 4.44 4.44 0 0 0-2 .1 6.34 6.34 0 0 0-4.86.33c-.22 0-.9-.13-.12 1.11-1.84 0-3.84 0-4.75 1.56-.46.52-1.77 0-2.24.54-.57 1.1-2.41.64-3.16 1.54 0 .28.28 1.07.11 1.08-2.16-.06-1.64 2.66-2 4.33-.21.58-.26 1.12-.68 1.46.44.47.28.5.34.76-.25.28-2.93.9-3.61.44-.25 0 .3-1 .91-2s1.21-2 .92-2.24-2 2.3-2.34 2.37c.44-3.29.92-5.5 1.13-6.81s.22-1.76 0-1.65c-.33.23-1.2 2.73-1.43 4.93-.47.31-.19 1.63-.82 2.46 0-.83-.84-3.35-.71-3.67.24-1.76-.55-2.25.72-3.36 1-.9 1.49-3.93 2.14-5.07.25 1.28.84 4.08 0 4.48 2.3-.32-.41-3.76 1.45-4.86a1.35 1.35 0 0 0 .28-.71l.87-.09c1.41-1 2-2.74 3.72-3.36-.1.12-.59-.44-.77-.43-2-.2-2.12 1.84-3.56 2.54-.36 0 0 1.14-.26 1.34-.47.44-1.35.27-2.07.37.33-1.48 1.6-2.23 2.55-3.17.16-.25 0-1-.07-1.48a10.41 10.41 0 0 0-1.55 1.07 11.35 11.35 0 0 0-1.64 3.52c-.48 1.22-1 2.16-2.25 2v.29a.38.38 0 0 0-.17-.06 1.05 1.05 0 0 1-1.07.3l.69-.47c0-3.18 2.72-3.94 4.07-6.1.22-.61 1.66-.18 1.88-.77a4.76 4.76 0 0 1 4.33-2.27 35.59 35.59 0 0 1 9.62.2 19.79 19.79 0 0 1 8.64 3.53l.29-.09-.18-.42.33.39a1.65 1.65 0 0 1 1.69.89c.22.5-.38.05-.51.6l.24.18v.64c.08-.15.15.24.21.47a30.52 30.52 0 0 0-3.17.4c.3.83.57.63.74.73.31-.26.63-.49 1-.23.42-.15.89.16 1.32.57s.81.9 1.15 1.13a5.15 5.15 0 0 1 .34.9c.13.27 0 .63-.1.91s-.08.44-.19.29zM961 105a12.67 12.67 0 0 1 1.82.74h.47a.51.51 0 0 0 .48-.29c.94.14 1.84.3 2.74.51a5.49 5.49 0 0 0-3.47-1.38c2.4-1 5.71 1.07 8.21 2.41a12 12 0 0 0 1.93.18 3.32 3.32 0 0 0 1.18-.45 36.88 36.88 0 0 0-10.32-3.12c-3.78-.51-7.67-.21-10.72 1.38a50.45 50.45 0 0 1 7.68.02zm-.18 1.15a8.06 8.06 0 0 0-2.15 1.15c-2 .94-4.05 2.24-3.77 4.74a14.22 14.22 0 0 1 3.77-4.74c-1.76.89-.42.34 1.89-.9.03-.11.14-.18.28-.26z"/><path d="M972.41 103.1a24.38 24.38 0 0 1 3 2.56 13.64 13.64 0 0 0-1.37-2.47 4.27 4.27 0 0 0-2-1.33c-.68-.25-1.35-.38-2.08-.72a15.08 15.08 0 0 0-12.38-.22.87.87 0 0 0-.8.5 31.6 31.6 0 0 1 7.8-.64 17.12 17.12 0 0 1 7.83 2.32zM950.54 103.46a5.38 5.38 0 0 1-1.38 1.65 3.18 3.18 0 0 0 2.25-.58 17.17 17.17 0 0 1 2.16-1.85 6.37 6.37 0 0 0-3.03.78z"/><path d="M956.8 101.42l-.62.12a6.89 6.89 0 0 0-2.61 1.14c1.19-.06 2.42 0 3.57 0a1.49 1.49 0 0 1-.34-1.26z"/></g><g opacity=".8" fill="#0057a6"><path d="M1052.14 35.27a2.24 2.24 0 0 0-.33-.3 1.19 1.19 0 0 0-.36-.09.89.89 0 0 0-.7.25.88.88 0 0 1-.61-.05 8.75 8.75 0 0 1-.77-.45c-.28-.16-.58-.35-.9-.51a3 3 0 0 0-1-.27 3.63 3.63 0 0 0-1.86.19 5.76 5.76 0 0 0-4.74.65c-.23 0-.91-.07 0 1.14-1.84.1-3.86.29-4.59 2-.4.57-1.79.13-2.2.74-.46 1.15-2.36.85-3 1.82.06.27.41 1.06.25 1.09-2.21.11-1.38 2.83-1.52 4.54-.15.6-.14 1.17-.53 1.54.49.45.34.48.43.74-.22.31-2.9 1.14-3.64.73-.26 0 .2-1 .71-2.09s1-2.14.7-2.34-1.84 2.49-2.13 2.58c.1-3.37.34-5.64.4-7s0-1.81-.13-1.68-.91 2.86-.9 5.11c-.45.35 0 1.67-.57 2.55-.13-.83-1.22-3.33-1.12-3.66.05-1.81-.82-2.24.35-3.46.95-1 1.07-4.1 1.61-5.31.39 1.28 1.31 4.07.52 4.55 2.3-.51-.84-3.79.92-5.06a1.21 1.21 0 0 0 .19-.75l.88-.16c1.31-1.12 1.75-3 3.39-3.74-.09.13-.65-.39-.84-.37-2 0-2 2.05-3.31 2.89-.37.06.11 1.16-.12 1.38-.4.5-1.34.38-2 .55.16-1.54 1.37-2.4 2.23-3.44.13-.26-.14-1.05-.25-1.5a10.53 10.53 0 0 0-1.45 1.22 11.34 11.34 0 0 0-1.25 3.71c-.35 1.28-.8 2.29-2.06 2.19l.05.29a.49.49 0 0 0-.18 0 1 1 0 0 1-1 .38l.64-.53c-.35-3.22 2.32-4.21 3.44-6.52.14-.64 1.67-.32 1.82-.95a4.67 4.67 0 0 1 4.14-2.68 33.82 33.82 0 0 1 9.78-.59 17.52 17.52 0 0 1 8.89 3.15 1.57 1.57 0 0 1 .28-.1l-.19-.43.34.39c.53-.12 1.11.08 1.63.9.22.52-.35.05-.46.62l.22.19v.66c.07-.15.14.25.2.49a21.28 21.28 0 0 0-2.9.47c.35.82.58.63.74.73.27-.25.56-.53.88-.26.37-.14.82.15 1.19.58.2.22.38.44.54.64a2.86 2.86 0 0 0 .45.53 5.89 5.89 0 0 1 .25.93c.14.28 0 .65-.1.94s-.28.39-.35.24zm-17.62-7.53a14.4 14.4 0 0 1 1.92.6l.47-.06a.48.48 0 0 0 .46-.33c.94.05 1.9.17 2.81.3-1.29-.78-2.62-1.37-3.64-1.13 2.32-1.19 5.89.63 8.47 1.88a10.39 10.39 0 0 0 1.91.07 2.55 2.55 0 0 0 1.11-.51 31.5 31.5 0 0 0-10.59-2.56c-3.89-.22-7.79.44-10.71 2.31 2.75-.21 5.05-.73 7.79-.57zm-.07 1.19a7.93 7.93 0 0 0-2 1.36c-1.9 1.11-3.85 2.61-3.27 5.13a14 14 0 0 1 3.27-5.13c-1.7 1-.38.39 1.81-1.08-.04-.11.06-.21.19-.28z"/><path d="M1045.83 25a20.3 20.3 0 0 1 3.17 2.52 14.22 14.22 0 0 0-1.49-2.51c-1.46-1.52-2.75-1.26-4.29-1.89a14.49 14.49 0 0 0-6.69-1 16.11 16.11 0 0 0-5.93 1.77.87.87 0 0 0-.75.58 31.39 31.39 0 0 1 7.86-1.32 16.29 16.29 0 0 1 8.12 1.85zM1023.72 27.06a5.31 5.31 0 0 1-1.2 1.79 3 3 0 0 0 2.2-.78 18.46 18.46 0 0 1 2-2.06 6.29 6.29 0 0 0-3 1.05z"/><path d="M1029.85 24.44l-.63.18a6.79 6.79 0 0 0-2.51 1.39c1.18-.17 2.46-.19 3.62-.32-.45-.56-.55-.96-.48-1.25z"/></g><g opacity=".8" fill="#0057a6"><path d="M1073.22 71.46a2.14 2.14 0 0 0-.33-.29 1.19 1.19 0 0 0-.36-.09.91.91 0 0 0-.7.24.83.83 0 0 1-.61 0 5.8 5.8 0 0 1-.76-.44c-.29-.17-.59-.35-.91-.51a3.21 3.21 0 0 0-1-.28 3.77 3.77 0 0 0-1.86.2 5.79 5.79 0 0 0-4.74.64c-.23 0-.91-.06 0 1.15-1.84.1-3.86.29-4.59 2-.4.57-1.79.13-2.2.73-.46 1.16-2.36.86-3 1.82 0 .28.4 1.07.24 1.1-2.21.11-1.38 2.82-1.52 4.54-.15.6-.14 1.16-.52 1.54.49.44.33.48.42.74-.22.31-2.9 1.14-3.64.72-.26 0 .21-1 .71-2.08s1-2.14.71-2.35-1.85 2.49-2.14 2.59c.1-3.38.34-5.65.41-7s0-1.81-.14-1.68c-.31.26-.91 2.86-.9 5.11-.45.35 0 1.67-.57 2.55-.12-.84-1.22-3.33-1.12-3.66.05-1.81-.82-2.24.35-3.46 1-1 1.07-4.1 1.61-5.32.39 1.29 1.31 4.08.53 4.55 2.29-.51-.85-3.78.91-5.05a1.32 1.32 0 0 0 .2-.75l.87-.16c1.31-1.12 1.75-3 3.39-3.74-.09.13-.65-.4-.84-.38-2 0-2 2.06-3.31 2.89-.36.07.11 1.17-.11 1.39-.41.5-1.34.38-2 .54.16-1.53 1.37-2.39 2.22-3.43.13-.27-.13-1-.24-1.5a9.45 9.45 0 0 0-1.46 1.22 11.26 11.26 0 0 0-1.25 3.71c-.35 1.27-.8 2.28-2.06 2.19l.05.29a.26.26 0 0 0-.18 0 1 1 0 0 1-1 .38l.65-.53c-.36-3.22 2.32-4.21 3.43-6.52.14-.65 1.67-.32 1.82-.95a4.69 4.69 0 0 1 4.14-2.68 34.2 34.2 0 0 1 9.78-.6 17.7 17.7 0 0 1 8.89 3.15l.28-.09-.19-.43.34.39c.53-.12 1.11.08 1.63.9.22.52-.35.05-.46.62l.22.19v.66c.06-.15.13.25.2.49a21.1 21.1 0 0 0-2.91.46c.35.83.58.64.74.74.27-.25.56-.54.88-.26.37-.14.82.14 1.2.58.19.21.37.43.53.64a3.24 3.24 0 0 0 .45.53 5 5 0 0 1 .25.93c.14.28 0 .65-.1.94s-.25.34-.33.18zm-17.62-7.52a12 12 0 0 1 1.92.6l.47-.06a.49.49 0 0 0 .46-.33c.94 0 1.9.17 2.81.29-1.28-.77-2.61-1.36-3.64-1.12 2.32-1.19 5.89.63 8.47 1.87a10.43 10.43 0 0 0 1.91.08 2.57 2.57 0 0 0 1.11-.52 32 32 0 0 0-10.59-2.53c-3.89-.21-7.79.44-10.71 2.32 2.75-.25 5.05-.76 7.79-.6zm-.06 1.19a8.22 8.22 0 0 0-2 1.35c-1.9 1.12-3.84 2.62-3.27 5.14a14.1 14.1 0 0 1 3.27-5.14c-1.69 1-.38.39 1.81-1.08-.05-.1.06-.18.19-.27z"/><path d="M1066.91 61.15a20.24 20.24 0 0 1 3.17 2.51 15 15 0 0 0-1.49-2.51c-1.46-1.51-2.75-1.25-4.29-1.88a14.47 14.47 0 0 0-6.69-1 16.17 16.17 0 0 0-5.93 1.77.86.86 0 0 0-.75.58 31.39 31.39 0 0 1 7.86-1.32 16.29 16.29 0 0 1 8.12 1.85zM1044.8 63.26a5.31 5.31 0 0 1-1.2 1.79 3.16 3.16 0 0 0 2.21-.78 16.87 16.87 0 0 1 2-2.07 6.41 6.41 0 0 0-3.01 1.06zM1050.93 60.64l-.63.18a6.77 6.77 0 0 0-2.51 1.38c1.18-.17 2.46-.18 3.62-.31-.41-.57-.55-.97-.48-1.25z"/></g></svg>