<svg id="Layer_1" data-name="Layer 1" xmlns="http://www.w3.org/2000/svg" viewBox="0 0 1440 263"><title>futer</title><path d="M1445.23,119.7V267.8H819.72S928.15,106.81,1445.23,119.7Z" fill="#7d7e85"/><path d="M1085.88,140.82c3-1.18,9.76-2.76,9.82-1.79-.06-1-.06-1,4.46-2.58,0,.65,4.16-.35,6.8-.93-2.27,0-5.3.51-11.35,1.56-2.61,1.23-6.87,1.9-11.08,2.58l-3.13.51c-1,.2-2,.42-2.93.65a20.1,20.1,0,0,0-4.69,1.67C1077.56,142,1081.37,142,1085.88,140.82Z" fill="#fff"/><path d="M1111.3,140.07l.74-.52c-3.13.76-6.25,1.64-9.37,2.45C1104.53,141.32,1110.91,139.65,1111.3,140.07Z" fill="#fff"/><path d="M1141.9,133.81c-.75.82,4.18.52,4.18,1.17-.39-1.37,7.58-1.38,11.75-2.16l1.53-1.32a66.15,66.15,0,0,0-9.87.88c-4.18.59-8.93,1.27-13.27,2C1138.11,134.21,1140,134,1141.9,133.81Z" fill="#7d7e85"/><path d="M1149.87,133.48l2.65-1.09C1150.25,132.9,1144.94,133.77,1149.87,133.48Z" fill="#fff"/><path d="M1143.4,130.54c-6.85.89,4.19-.13-2.66,1.09C1143,131.11,1145.68,130.68,1143.4,130.54Z" fill="#fff"/><polygon points="1172.29 128.59 1157.85 131.19 1163.91 130.8 1172.29 128.59" fill="#7d7e85"/><path d="M1173.38,130.79c-1.89.25-4.92.29-2.26-.47,5.3.15,8.38-1.37,13.31-1.23l-4.58.91c.74.82,9.54-2,9.49-.43,6.12-1.85-4.91-.8,3.12-2.55-7.63,1.18-13.33,1.5-19.8,2,1.9.1,2.65-.05,5.32-.09-4.58.52-10.66,2-16,2.81C1165,132.34,1168.84,130.82,1173.38,130.79Z" fill="#7d7e85"/><path d="M1196.58,128.3c4.94-.5,12.55-1.36,13.76-2.63-5.31-.41-6.12.82-8.41,1.57-1.52,0-6.47.48-4.53-.39C1198.15,127,1194.31,128.1,1196.58,128.3Z" fill="#7d7e85"/><path d="M1216,126.47l3.5-1.4-2.3.39-.34-.74c-.4.22-2,1.79-6.95,2.15C1212.54,127.23,1213.35,126.44,1216,126.47Z" fill="#7d7e85"/><path d="M1216.67,121c3.41.22,5.34-.27,9.18-.93-5.36.6-13,1.27-14.58,1.86l.41-.23-2.94.64a54.79,54.79,0,0,0-5.54,1.54,68.9,68.9,0,0,1,9.43-1.28C1215.55,122.32,1217.57,121.93,1216.67,121Z" fill="#7d7e85"/><path d="M1209.78,121.58l3.86-1Z" fill="#7d7e85"/><polygon points="1231.27 124.81 1223.67 125.16 1225.55 125.31 1231.27 124.81" fill="#7d7e85"/><path d="M1221.92,122.4c6.1-.41-3.4-.55,2.33-1.05,1.54-.26-8.41.8-8.82,1.35C1217,122.76,1221.21,121.55,1221.92,122.4Z" fill="#7d7e85"/><path d="M1236.22,124.45l6.16-1.38Z" fill="#7d7e85"/><path d="M1251.84,123.76l1.19-.65c6.07.07,14.18-1.28,18.65-.33-1.08-.64,2.43-1.63-2.91-1.49-.8.43-2.7.55-2.36,1-2.28,0-1.85-.53-3.38-.63-3.86.89-10,.82-13,1.59a15,15,0,0,1,3-.12c-6.57,1.44-7.92-.94-10.71.93C1244.64,123.36,1248.77,124.22,1251.84,123.76Z" fill="#7d7e85"/><path d="M1251,119.88l-5.37.14c1.61-.88,6.53-.48,7.35-1.24-.35-.43-5.69-.29-3.76-.73-.52,1.84-7.3.58-4.37,2.4-6.91.75-2.22-.94-9.5-.2l-2,1.15a78.77,78.77,0,0,1,8.8-.87A83.44,83.44,0,0,0,1251,119.88Z" fill="#7d7e85"/><path d="M1271.66,118.78l2.62.42-1.45-.75a56.9,56.9,0,0,1,8.11-.08c2.46.2,4.7.5,6.78.81,4.18.61,7.75,1.2,11.34.8a70.55,70.55,0,0,1,13.17-.73c4.36.07,8.75.24,13.33.11,4.45-.82-4.31-.35-4.79-.79,1.25-1.45,4.38.67,6.43-.54.28-.52-2.08-.76-5-.93s-6.41-.15-8.39-.4c-3.42.29-3.36.61-4.38,1.24-.89-.54-4.38-.56-5.28-1.1-7.11,1.11-10.92-.26-17.9.91-2.24-.69,5.25-.37,2.92-.39l-3.84.18.42.11a91.41,91.41,0,0,1-18.23.61c2.64.1,4.51.62,1.42,1.08l-2.6-.75-6.62,1.77C1264.77,119.14,1270.75,120.52,1271.66,118.78Z" fill="#7d7e85"/><path d="M1264.14,117.63c-8,.05,1,1.3-7.74,1.46l9.21-.71Z" fill="#7d7e85"/><path d="M1302.45,117.89l4,.45C1304.22,117.16,1298.09,119.13,1302.45,117.89Z" fill="#fff"/><polygon points="1317.02 117.26 1314.97 118.52 1318.66 117.69 1317.02 117.26" fill="#fff"/><path d="M1330.35,118.34c3-.65-.61-1.08-4-.87C1329.41,117.46,1331,117.94,1330.35,118.34Z" fill="#7d7e85"/><path d="M1352.27,120.17c-6.68.13,5.93.18,1.14,1.33C1354.27,121,1357.65,120.25,1352.27,120.17Z" fill="#fff"/><path d="M1373.91,122.79c-2.42.22-3.4,0-3.73-.28A18.66,18.66,0,0,1,1373.91,122.79Z" fill="#7d7e85"/><path d="M1290.49,121.21c-.77,0-1.59.08-2.35.07Z" fill="#7d7e85"/><path d="M1292,121.17l-1.53,0C1291.06,121.18,1291.58,121.17,1292,121.17Z" fill="#7d7e85"/><path d="M1341.7,122.06h0a4.35,4.35,0,0,1-.52-.1Z" fill="#7d7e85"/><path d="M1130.58,137.3c-1.27.28-2.26.47-3,.6l3-.6Z" fill="#7d7e85"/><path d="M1126.76,136.31c5.29-1.66,6.08.73,14.77-1.28l-11,2.27C1125.33,137,1134.33,136,1126.76,136.31Z" fill="#7d7e85"/><path d="M1200.21,124.69l.3-.08C1201,124.51,1200.77,124.58,1200.21,124.69Z" fill="#7d7e85"/><polygon points="897.82 210.43 897.93 210.74 893.44 212.76 897.82 210.43" fill="#fff"/><path d="M898.69,210.61c2.51-1.2,5.11-2.2,7.66-3.31a413.46,413.46,0,0,0-42.28,25.16l1.07-1.27c-.24-.05,1.78-1.46,5-3.51l5.44-3.51c2-1.25,4.21-2.52,6.38-3.81s4.34-2.59,6.37-3.76l5.57-3.08C897.07,211.72,899.07,210.55,898.69,210.61Z" fill="#fff"/><path d="M900.53,209c3.65-3.37,7.32-3.2,12.13-6.72-3.22,2.35-5.37,4.24-8.89,5.66Z" fill="#fff"/><path d="M914.07,199.22c2.51-.89,5.13-2.75,6.57-3.21C920.25,197.33,916.19,198.38,914.07,199.22Z" fill="none" stroke="#7d7e85" stroke-linecap="round" stroke-linejoin="round" stroke-width="0"/><path d="M918.85,192.66c.36-.2.74-.37,1.11-.54-.41.27-.79.51-1.06.72Z" fill="#7d7e85"/><path d="M918.9,192.84l.13.44C918.16,193.49,918.32,193.26,918.9,192.84Z" fill="#7d7e85"/><path d="M920,192.12a28.25,28.25,0,0,0,2.59-1.76l-1.07.43c1.37-.79,3.73-2.31,4.51-2.39-2.84,1.25-2.75,1.57-2.56,2.19l4.58-2.05C927.78,190.32,924.05,190.3,920,192.12Z" fill="#7d7e85"/><path d="M934.25,185.23l-4.38,2.86C928.22,187.88,932.48,186,934.25,185.23Z" fill="none" stroke="#7d7e85" stroke-linecap="round" stroke-linejoin="round" stroke-width="0"/><path d="M941.62,183.14c-1,.71-5.64,2.62-2.69,1.78a14.32,14.32,0,0,1-2.54,1.24C939.41,184.62,936.08,184.94,941.62,183.14Z" fill="#7d7e85"/><path d="M936.39,186.16c-.36.18-.76.38-1.32.62C935.51,186.55,936,186.35,936.39,186.16Z" fill="#7d7e85"/><path d="M890,213.32c.61-.19.64-.09.46.14Z" fill="none" stroke="#7d7e85" stroke-linecap="round" stroke-linejoin="round" stroke-width="0"/><path d="M951.5,180.11l1.79-.7c-.51.21-1,.41-1.42.61Z" fill="#7d7e85"/><path d="M819.74,267.81c1.15.59,2.3,1.22,3.41,1.85h0v0a0,0,0,0,1,0,0l.36-.39.78-.85,1.67-1.72,3.57-3.56c1.28-1.22,2.58-2.54,4-3.95s3-2.93,4.66-4.59c-.89-.69,2.7-2.71,2.37-3.95-1.86,1.63-1,.9,1.13-1,1.07-1,2.57-2.17,4.2-3.56s3.46-2.92,5.37-4.38l5.52-4.36c1.77-1.33,3.38-2.53,4.64-3.49,2.53-1.92,3.66-2.88,2-1.85l-1.66,1.77,1.38-2.36c2-1.27,4.58-2.53,6.89-3.8a28.32,28.32,0,0,0,5.59-3.71,49.54,49.54,0,0,1-4.92,3.37c-1.56,1-3.42,2.22-5.38,3.53l-6.08,4.24c-1,.72-2.08,1.42-3.07,2.16l-2.9,2.16c-1.87,1.41-3.63,2.69-5.06,3.82A43.53,43.53,0,0,0,844,246.8c-.92.33,1.25-1.78,5.14-5,2-1.59,4.38-3.48,7-5.53l8.58-6.19c3-2.06,6.11-4.08,9-6,1.45-1,2.89-1.88,4.28-2.73l3.9-2.42c2.45-1.51,4.49-2.84,6-3.75a25.16,25.16,0,0,0,2.58-1.65l.92.29c3-2.12,5.5-4,7.84-5.74s4.65-3.27,7.32-4.92l1.63.11c-4.19,1.85-5,2.89-9,5.39,7.09-3.87,8.65-4,14.05-7-.67-.86-5,1.9,1.71-2.12,2.23-.54-1.91,2.74,4.26-.42a23.66,23.66,0,0,0,6.46-3.67c.62-.5,1.2-1,2-1.58a22.25,22.25,0,0,1,3.61-2c-1.57.51-3.11,1.1-4.66,1.68,2.4-1.26,7-3.41,9.57-3.92a53.19,53.19,0,0,0-5.85,2.94c-2,1.19-3.49,2.42-3.17,2.86.68-.39,1.58-.83,2.59-1.31s2.17-.91,3.3-1.37c2.26-.9,4.48-1.76,5.7-2.32l-1.2,1.35c3-.5,4.12-2.18,7.8-3,3-1.8-2.39-.17-.71-1.24a39.49,39.49,0,0,0,4.16-1.34,27.94,27.94,0,0,0,5.11-2.24c-2.16-.88-7.38,3.39-12,3.75,2-.76,4-1.58,6.07-2.28,1.61-1.46-.84-.58-3.41.62s-5.39,2.48-4.68,1.47c1.92-1.72,4.4-2.39,6.83-3s4.84-1.24,6.55-3c-1.47.37-4.45,1.43-6.94,2.27s-4.45,1.61-4,1.09c3.34-.83,5.17-2.75,9.47-4.67l5.55-1.39c2.05-1.35.25-.65-1.62-.26,2-.55,4.33-1.35,6.84-2.29s5.25-1.89,8.07-2.94,5.77-2.08,8.72-3.06c1.47-.49,2.94-1,4.41-1.41s2.94-.77,4.38-1.1c6.55-2.37.61-.94,3.45-2.46,3.83-.21,9.55-2.92,13.22-4.1,1.11-.31,2.83-1.79,1.65-1.86-3,1.15-6.06,2.38-9.09,3.57.29-.64-1.32-1-4.6.19,1.44.52-1.92,1.3-5.64,2.24s-7.76,2.19-7.74,3.29l-.19-1-11.52,4.84h.4a38.34,38.34,0,0,0-5.68,2.26c-3.21,1.44-7.22,3.18-10.5,4.25,1.73-1,12.59-4.92,5.89-3.41,4.53-2.51,13.48-4.69,22.12-8.25h-1.94c1.12-.53,2.3-1,3.52-1.53l1.86-.74,1.94-.67c2.63-.87,5.39-1.71,8.19-2.53l8.41-2.47,8.1-2.42-2.84,1.75c3.76-.75,8.67-1.42,11.9-3.15-4.43,1.34-2.29.18-1.59-.42,2.94-1.11,6.65-2.18,10.65-3.31s8.32-2.09,12.41-3.35c0,0-.35.29,0,.33l8.54-2.79a31.61,31.61,0,0,1,4.72-.75c1.24-.07,2.29,0,3.63,0,1.5-.47,5.27-1.32,3.72-1.5a17.57,17.57,0,0,0-2.17.45c4.18-2,3.15-.43,8.54-2.28-4.09,1.78,1.59.83,1.27,1.77,6.37-1.84.27-1.59,1-2.15,4-.66,6.25-.87,8.52-1.13s4.55-.5,8.52-1.21c.35-.59-5.69.77-6.47.36a25.66,25.66,0,0,0,5.28-1.18l-4.94.58a213.36,213.36,0,0,0,25.37-4.71l-.77-.11c1.9-.35,3.78-.77,5.68-1.06-.62.43-1.25.85-1.87,1.3,3-.79,6.48-.5,8-1.54l-1.14.13,3.79-1-3.79,1.61c5-.44,11.37-3.53,19.36-4.74,1.92,1-13.67,2.81-14.4,4.63,2.67-.19,7.22-.68,8.74-1.4-.4-.39-2.29-.07-4.19.25a95.62,95.62,0,0,1,11.81-2.28l2.94-.48c1-.14,1.86-.29,2.71-.46a17.32,17.32,0,0,0,4.2-1.25l-5.34.23c6.1-1,10.29.12,12.2-1.12l-4.57,2.33c6.09-1.7,14.09-2.68,19.81-4.13,0-1-8.38,1.23-8,1l2.68-1.09a47.78,47.78,0,0,1,6.14-.3c.45,0,1,0,2,0s2.76-.13,5.53-.31l0-.65c3.79.54,13.4-2.49,9.91-.34l-3,0,.35.74,12.64-2c-1.17.72,4.94-.17,3.38.79l4.62-1.24c2.24.85-8.47,2.32-8.87,3.21.22.48,2.41.16,3.49,0-5.54,1.47-8.53-.12-14.14.52l-2.71,1,0-1a16.55,16.55,0,0,0-5,1.8c-5.71-.73-11.43,1.78-19.79,2.67,6.84-1.54-4.56-.28-3.41-.7-3.81.55-13,3.52-16.36,2.91-2.28-.07,4.54-1.47-.77-.78-3.41.7-5.68,1.6-3.4,1.68-7.57,1.6-16.67,2.9-25,4.38.62-.34,1.25-.65,1.87-1a38.93,38.93,0,0,0-12.78,3.58c-.77-.12-1.14.15-.41-.38a23.32,23.32,0,0,0-8,1.84c-1.28.48-2.69,1-4.46,1.53s-3.91,1-6.62,1.63c.4.38,1.81.28,3.56,0a35.84,35.84,0,0,0,5.48-1.32l-.69,1.18c4.7-.92,9.68-2,14.42-3s9.24-2.22,13-3.13l-3.38,1.35c6.85.23,4.51-2.12,11-1.63,4.54-1.15-3.41,0,0-1,3.3-.27-.53,1.9,4.92,1-5.08,1-10.34,2-15.71,3l-16.26,3.38-8.23,1.69-4.12.84c-1.36.28-2.72.62-4.08.94l-16.08,3.78c-.36.28.77.09,1.89-.09a37.89,37.89,0,0,1-4.86,1.42l-3.88.91-4.58,1.13-10.75,2.54-5.84,1.35c-2,.46-4,.9-5.93,1.44-7.85,2.08-15.53,4.14-21.31,5.89-5.73,1.92-9.57,3.45-9.82,4.25-1.15,0,2-1.54-2.31-.08-.34.31-1.38.92-.23,1a90.09,90.09,0,0,0-9.1,2.31c-3.14,1-6.4,2.24-9.72,3.48s-6.71,2.51-10.1,3.72-6.73,2.56-10.08,3.62c.46.3-2.33,1.67-2.25,2a22.76,22.76,0,0,0-4,1.1c-.71.26-1.44.54-2.18.83l-2.19,1a64.67,64.67,0,0,1-7.95,3.34l1.54-.1c-4.32,1.88-8.67,3.7-12.9,5.77-.3.35,1.44-.46,2.49-.88-2.68,1.54-3.55,1.3-4,1l-5.2,3.7a102.89,102.89,0,0,0-13.3,5.92l-3.41,1.77c-1.14.59-2.28,1.22-3.4,1.89l-6.83,4c-4.62,2.67-9.1,5.73-13.71,8.55-2.32,1.38-4.54,2.92-6.82,4.32s-4.59,2.75-6.83,4.14c-2.09,2.57-4.15,4.35-8.39,7.55.75-.44,1.5-.9,2.27-1.31-3.93,3.78-.53-.19-4,2.83-2.15,2.31,0,1.65,3.13-1.26,2.33-1.29,1.16-.12-.22,1.19-3.35,2.49-6.74,4.84-9.89,7.32-1.59,1.23-3.22,2.38-4.74,3.61s-3.07,2.41-4.57,3.59l-4.39,3.57c-1.46,1.16-2.81,2.37-4.21,3.51s-2.69,2.33-4,3.46l-1.9,1.71-.9.84-.43.4a.13.13,0,0,0,0-.05l0,0v0l-1.64-.91Z" fill="#7d7e85"/><path d="M1433.25,125.76c-1.83-.46,7.33-.18,2.87-1.19-7.1-1.06-16.45-1.38-26.14-1.66l-3.64-.11-3.65,0-7.24-.11c-4.77-.11-9.38-.29-13.61-.65-4.5-.7-5.7-.72-9.76-1.09a.37.37,0,0,0,.11.5c-2.31,0-5.32,0-8.33,0s-6,.06-8.32-.13c-1.31.21-2.26.93.24.71-7,.75-12.08-1.07-16-.44,3.41.4-3.36.73.7,1-7.32.24-6.72-2.24-12.53-2.42-.33.2-.68.4.49.44-6.37-1-19.39,1.26-20.15-.46l-2.53.83c-2.8-.44-2.12-.86-6.76-.9-3,.4.14.64-1,1-1.31-.65-9.39,0-13.13-.81-.26-1.09,6.64,1.18,10.25,0,.11-.22-.42-.26-1.17-.26,9.6-.27,18.09.2,26.14.56a168.6,168.6,0,0,0,23.54.38,11.62,11.62,0,0,0,7.67-.85c-2.85-.29-11-.87-11.16.66l-5-.89c-1.87.11-1.86-1.44-2.68-1.68,3.49.11,7.41-1.47,2.69-1.93,9.17-.36-2.89,3.31,5.23,2.76l1.16-1.13c-1.52.62,5.51,1,8.13.58l-1.09-.2,36.32,0,19.38-.16c6.4,0,12.69.11,18.66.15,5.81,2.89,17.56-.53,23,1.84,2.64-.31-3.71-1.07,1.34-1.28,2.53-.1,2.74.62,2.62.82l2.32-.16C1454.06,122.15,1449.55,124.41,1433.25,125.76Z" fill="#7d7e85"/><path d="M0,156.31S408.66,109,613.29,264.16H0Z" fill="#3d3d42"/><path d="M342.17,167.85c-3,.13-9.4-.57-9.14-1.51-.26.94-.26.93-4.7,1,.18-.63-3.75-1-6.24-1.25,2,.75,4.8,1.13,10.4,2.13,2.66-.31,6.59.42,10.46,1.19s7.69,1.55,10.21,1.18C349.75,169.69,346.51,168.18,342.17,167.85Z" fill="#fff"/><path d="M319.62,160.4l-.82.28,9.05.6C326,161.34,319.84,160.89,319.62,160.4Z" fill="#fff"/><path d="M290.51,158.08c.88-.62-3.65-1.5-3.5-2.12,0,1.43-7.21-.38-11.18-.58l-1.68.94c3.75,1.17,13.46,1.64,21.62,2.67Z" fill="#3d3d42"/><path d="M283.21,156.56l-2.65.45C282.73,157,287.75,157.39,283.21,156.56Z" fill="#fff"/><path d="M288.37,160.89c6.37.77-3.8-.88,2.65-.42C288.84,160.41,286.34,160.23,288.37,160.89Z" fill="#fff"/><path d="M261.78,156.36l13.68.61c-1.86-.35-3.73-.64-5.6-.95Z" fill="#3d3d42"/><path d="M261.21,154c1.79.16,4.56.78,2,1-4.82-1.28-7.94-.23-12.44-1.28l4.38-.07c-.54-1-9.14.3-8.81-1.29-5.95.73,4.38,1.67-3.31,2a176,176,0,0,1,18.52,1.64,47.19,47.19,0,0,0-4.89-.91c4.3.24,10.12.27,15.15.55C269.16,154.27,265.38,154.92,261.21,154Z" fill="#3d3d42"/><path d="M239.43,152.29c-4.64-.34-11.8-.8-13.1.38,4.85,1.1,5.76.15,8-.24,1.4.28,6,.63,4.11,1.16C237.78,153.29,241.49,152.87,239.43,152.29Z" fill="#3d3d42"/><path d="M221.21,151.13l-3.44.93L220,152l.22.78c.39-.18,2.08-1.51,6.73-1.22C224.51,150.84,223.65,151.51,221.21,151.13Z" fill="#3d3d42"/><path d="M219.85,156.42c-3.11-.67-5-.43-8.58-.29,5,.12,12.14.47,13.67.09l-.41.17,2.8-.25c1.61-.15,3.64-.36,5.32-.65C227.5,155.92,218.42,154.43,219.85,156.42Z" fill="#3d3d42"/><path d="M226.26,156.8l-3.69.47Z" fill="#3d3d42"/><path d="M206.82,150.81c2.37.19,4.73.38,7.1.61l-1.73-.41Z" fill="#3d3d42"/><path d="M215.18,154.39c-5.68-.41,3.07,1-2.28.73-1.46,0,7.85.31,8.31-.18C219.82,154.68,215.73,155.32,215.18,154.39Z" fill="#3d3d42"/><path d="M202.18,150.57l-5.88.62Z" fill="#3d3d42"/><path d="M187.55,149.66l-1.16.55c-2.83-.3-6.17-.29-9.3-.36A31.9,31.9,0,0,1,169,149c1,.72-2.37,1.45,2.61,1.71.78-.37,2.56-.35,2.28-.8,2.13.16,1.69.67,3.1.88,3.67-.56,9.34,0,12.29-.46a13.45,13.45,0,0,1-2.84-.14c6.26-.86,7.28,1.58,10.06,0C194.23,150.65,190.47,149.48,187.55,149.66Z" fill="#3d3d42"/><path d="M188,153.6l5,.32c-1.57.74-6.1-.09-6.93.6.29.46,5.25.78,3.42,1,.65-1.78,6.81.05,4.28-2,6.47,0,2,1.16,8.77,1.28l2-.9C196.87,154.18,195.58,153.26,188,153.6Z" fill="#3d3d42"/><path d="M168.71,153l-2.42-.61,1.3.85a52.46,52.46,0,0,1-7.55-.52c-2.28-.3-4.35-.7-6.28-1.09-3.87-.78-7.19-1.52-10.56-1.28a63,63,0,0,1-12.33.31c-4.08-.21-8.19-.56-12.48-.36-4.16.83,4,.34,4.47.78-1.17,1.45-4.08-.66-6,.55-.52,1,8.8.92,12.49,1.53,3.2-.19,3.14-.51,4.11-1.11.82.57,4.08.71,4.89,1.27,6.67-.88,10.17.69,16.73-.21,2,.79-4.92.16-2.75.28l3.58,0-.38-.12c4.88-.85,13.87.05,17,.59-2.45-.29-4.16-1-1.25-1.18l2.37.94c2.09-.42,4.19-.85,6.28-1.24C175.14,153.14,169.66,151.36,168.71,153Z" fill="#3d3d42"/><path d="M175.61,154.72c7.44.61-.87-1.38,7.29-.8-2.87,0-5.73-.07-8.6,0Z" fill="#3d3d42"/><path d="M140,152.34l-3.69-.58C138.29,153,144.07,151.23,140,152.34Z" fill="#fff"/><polygon points="126.36 152.51 128.29 151.32 124.83 152.02 126.36 152.51" fill="#fff"/><path d="M113.91,151.34c-2.76.66.57,1.08,3.77.86C114.79,152.22,113.27,151.75,113.91,151.34Z" fill="#3d3d42"/><path d="M93.37,149.66c6.26-.21-5.56-.11-1.1-1.31C91.47,148.87,88.33,149.64,93.37,149.66Z" fill="#fff"/><path d="M73,147.67c2.26-.32,3.19-.15,3.51.12A15.72,15.72,0,0,1,73,147.67Z" fill="#3d3d42"/><path d="M151.27,149.49c.71,0,1.49,0,2.19,0Z" fill="#3d3d42"/><path d="M149.83,149.47l1.44,0C150.73,149.5,150.25,149.49,149.83,149.47Z" fill="#3d3d42"/><path d="M103.26,147.64h0l.49.1Z" fill="#3d3d42"/><path d="M301.59,157.69c1.21.06,2.15.16,2.9.26-.95-.09-1.92-.19-2.87-.25Z" fill="#3d3d42"/><path d="M304.75,159.69c-5.18.14-5.26-2.35-13.6-2.71,3.35.2,6.87.44,10.47.72C306.23,159.39,297.89,157.89,304.75,159.69Z" fill="#3d3d42"/><path d="M235.52,155.25h-.29C234.72,155.28,235,155.25,235.52,155.25Z" fill="#3d3d42"/><path d="M522.69,215.51l.19-.27c1.33.77,2.64,1.59,4,2.39C525.45,216.92,524.09,216.19,522.69,215.51Z" fill="#fff"/><path d="M522.37,214.71c-2.26-1.31-4.53-2.62-6.82-3.88a409.1,409.1,0,0,1,41.17,21.45l-1.52-.4c.12.42-8.08-4.58-16.48-9.07S521.87,214.17,522.37,214.71Z" fill="#fff"/><path d="M520.14,214.21a16.36,16.36,0,0,1-5.69-2.23,22.45,22.45,0,0,0-6.31-2.73c3.63.88,6.29,1.35,9.38,3.14C518.4,213,519.27,213.6,520.14,214.21Z" fill="#fff"/><path d="M505.06,210.2c-2.15-1.23-5.09-1.82-6.29-2.55C500,207,503.18,209.23,505.06,210.2Z" fill="none" stroke="#3d3d42" stroke-linecap="round" stroke-linejoin="round" stroke-width="0"/><path d="M497.47,211.23c-.36-.13-.71-.28-1.05-.43.44.11.84.21,1.14.27Z" fill="#3d3d42"/><path d="M497.56,211.07l.24-.4C498.47,211.14,498.21,211.19,497.56,211.07Z" fill="#3d3d42"/><path d="M496.42,210.8a20.67,20.67,0,0,0-2.8-.62l.95.46c-1.38-.42-3.86-1-4.39-1.51,2.58,1.12,2.75.84,3.07.27L489,207.61C490.38,206.51,492.68,209.16,496.42,210.8Z" fill="#3d3d42"/><path d="M482.81,205.81l4.72.87C488.44,207.93,484.45,206.45,482.81,205.81Z" fill="none" stroke="#3d3d42" stroke-linecap="round" stroke-linejoin="round" stroke-width="0"/><path d="M476.63,202.45c1.12.14,5.42,1.81,2.94.47a11.61,11.61,0,0,1,2.47.78C479.05,202.81,481.44,204.79,476.63,202.45Z" fill="#3d3d42"/><path d="M482,203.7c.36.11.75.24,1.27.43C482.87,204,482.45,203.85,482,203.7Z" fill="#3d3d42"/><path d="M529.05,220c-.46-.37-.39-.46-.12-.44Z" fill="none" stroke="#3d3d42" stroke-linecap="round" stroke-linejoin="round" stroke-width="0"/><path d="M468,198.4l-1.68-.6c.48.17.93.31,1.37.44Z" fill="#3d3d42"/><path d="M601.6,259a21.32,21.32,0,0,1-3.28-1.76c-1.21-.77-2.48-1.62-3.84-2.55-2.71-1.85-5.79-3.95-9.66-6.3-.45,1-3.16-1.83-4.25-1.18,3.88,2.63-3.41-2.35-11.15-7.11s-15.92-9.21-12.83-7.09l2.18.73-2.59-.22c-3.68-2.58-8.56-6.43-11.56-7.33-.27-.37,8.12,4.25,16.18,9.27s15.83,10.32,15.32,9.76c1,1.54-9.86-5.69-21.75-12.47s-24.67-13.12-25.44-13.18l-.24-.9c-3.27-1.21-6-2.07-8.62-2.85s-5.09-1.51-7.82-2.49L511.4,212c3.75,2,5.06,2,9.14,3.51-3.43-1.57-5.43-2.55-7.21-3.47a62.81,62.81,0,0,0-6-2.79c-.26,1.08,4.29,2.47-2.57.13-1.74-1.25,3.17-.47-2.89-2.78a19.22,19.22,0,0,0-6.62-2.12,21.6,21.6,0,0,1-6-1.49c1.39.67,2.75,1.39,4.12,2.08-2.34-.92-6.8-2.36-8.84-3.78a42.82,42.82,0,0,0,5.82,1.83c2.09.54,3.88.8,4,.25-2.77-.88-8.6-3.54-11-4.4l1.71-.16c-2.33-1.67-4.22-1.17-7.27-3-3.24-.73,1.5,1.72-.33,1.39a34.08,34.08,0,0,0-8.71-3.26c.94,2.05,7.34,2,10.62,4.93-1.86-.77-3.71-1.58-5.58-2.32-2.06.13.23.89,2.72,1.77s5.23,1.77,4.08,2c-2.41,0-4.47-1.2-6.55-2.3s-4.13-2.1-6.46-1.8c1.25.65,4,1.72,6.23,2.64s4,1.77,3.38,1.84c-2.74-1.66-5.26-1.31-9.41-2.54-1.56-.83-3.15-1.6-4.72-2.39-2.27-.22-.57.35,1,1.21-7-3.39-19.71-6.19-29.89-10.19-6.27-1.53-1,.45-3.94.21-3.06-1.81-8.87-2.58-12.32-3.42-1-.33-3.1.14-2.21.77q4.42.76,8.84,1.64c-.55.39.5,1.54,3.62,2.26-1.63-2.44,11.86,4.47,13.05,2.66l-.4.89c3.72.89,7.45,1.73,11.15,2.69l-.28-.22a40.05,40.05,0,0,0,5.41,1.53,91.33,91.33,0,0,1,9.89,3.21c-1.82-.32-11.76-4-6.17-1-4.61-1-12.36-4.32-20.69-6.34l1.42,1.1c-8.88-1.64-20-6-29.77-8.08l3.09-.15c-3.32-1.2-7.55-3-10.95-3,4.17.93,1.92.92,1.08,1.12-2.85-.43-6.31-1.25-10-2.08l-5.73-1.29c-1.95-.41-3.92-.76-5.86-1.08,0,0,.41-.11.11-.3-2.74-.36-5.46-.77-8.2-1.08a29.1,29.1,0,0,1-7.28-2.66c-1.43-.17-5-.79-3.7,0a15.57,15.57,0,0,0,2,.4c-4.28.24-2.82-.78-8.07-1.1,4.11-.11-1-1.36-.43-2.1-6.09-.7-.81,1.36-1.63,1.6-7.23-1.7-8.06-2.54-15.41-3.86-.5.42,5.18,1.16,5.71,1.84a21.35,21.35,0,0,0-4.95-.69l4.45,1.13c-3.77-.94-7.51-1.67-11.37-2.3-1.93-.32-3.89-.61-5.9-.87s-4.09-.44-6.24-.62l.64.35-5.29-.73,2-.7c-2.89-.15-5.85-1.37-7.48-.78l1.05.19-3.62-.12,3.8-.51c-4.51-.93-11,.21-18.42-.7-.73-.73,2.48-.5,6-.29s7.4.51,8-.27c-2.41-.55-6.59-1.35-8.13-1.06.25.48,2,.68,3.79.91a90.33,90.33,0,0,1-11.1-1c-3.76-.46-7.22-.8-9.35-.25,1.61.34,3.23.65,4.84,1-5.71-.4-9.21-2.47-11.21-1.7l4.64-1.23c-2.93.14-6.26,0-9.53-.17s-6.51-.27-9.24-.18c-.22,1,7.83.6,7.43.76l-2.64.49c-8.41-1.22-2.36-.82-12.56-2.14l-.14.64c-3.35-1.22-12.64,0-9.08-1.44l2.76.58-.19-.78-5.94-.15-5.94-.07c1.19-.51-4.55-.66-3-1.34l-4.41.44c-1.94-1.21,8.11-.86,8.62-1.67-.12-.52-2.19-.57-3.2-.55,5.32-.52,7.81,1.52,13,1.92l2.65-.52-.2,1a15.09,15.09,0,0,0,4.89-.87c5.07,1.65,10.75.56,18.54,1.49-3.27,0-2.25.32-.56.65s4.06.72,3.49.8c3.55.35,12.51-.54,15.42,1,2,.68-4.42.22.5,1,3.22.23,5.49,0,3.46-.72,1.8.12,3.67.28,5.6.46l5.89.7,12,1.54-1.94.38a36.1,36.1,0,0,0,12.33.61c.63.35,1,.22.23.49a20.17,20.17,0,0,0,7.62.88,45.69,45.69,0,0,1,10.71.81c-.43-1-5-1.82-8.31-1.87l1-.89c-4.43-.66-9.14-1.34-13.66-1.83s-8.83-.85-12.47-1l3.41-.32c-6-2.19-4.63.77-10.27-1.51-4.37-.15,3.07.9-.24,1-3-.66,1-1.68-4.13-2.35,19.33,1.67,41.2,4.89,61.23,8.32.41-.12-.63-.38-1.67-.63,3.58-.1,19.13,3.35,33.92,7.08s28.82,7.69,30,6.63c.88.64-2.41.22,1.77,1.28.43-.08,1.57,0,.69-.68,10.16,4.26,24.6,6.93,36.77,12.09-.13-.54,2.7.18,2.85-.1,3.93,2.45,11.56,4,15.32,6.09l-1.1-1c4.15,1.59,8.3,3.17,12.42,4.86.44,0-1.24-.71-2.21-1.18,2.8.86,3.18,1.64,3.27,2.17,2,.39,3.94.82,5.91,1.24,7.65,4.25,16.63,8,25.83,12.25s18.6,8.86,26.91,14.52a33.38,33.38,0,0,1,9.81,4.45l-2-1.57c4.78,2.14,0,.54,3.93,2.6,2.81,1.14,1.5-.65-2.2-2.41-2-1.62-.49-1,1.16-.25,6.82,4.38,13.19,9,19,13.48,2.91,2.26,5.68,4.51,8.31,6.62,1.31,1,2.59,2.09,3.81,3A30,30,0,0,0,601.6,259Z" fill="#3d3d42"/><path d="M17.1,148.67c1.77.3-6.84.88-2.57,1.47a242.28,242.28,0,0,0,24.61-.63c9.08-.51,18.48-1,26.44-.71,4.25.5,5.38.47,9.2.67a.4.4,0,0,0-.12-.5c4.32-.14,11.29-.69,15.62-.38,1.22-.22,2.1-1-.25-.71,6.54-.82,11.36.91,15,.27-3.2-.39,3.16-.74-.67-1,6.89-.25,6.32,2.23,11.76,2.4.32-.2.65-.41-.45-.44,6,.88,18.2-.9,18.87.82l2.39-.75c2.61.54,2,.91,6.3,1.13,2.83-.27-.11-.64.92-.91,1.2.71,8.79.38,12.24,1.36.2,1.1-6.15-1.46-9.58-.47-.1.22.39.28,1.09.31-2.24,0-4.42-.11-6.55-.21s-4.19-.2-6.22-.33c-4-.26-7.91-.6-11.68-.9a140.5,140.5,0,0,0-22.07-.33,10.32,10.32,0,0,0-7.18.94c2.68.27,10.31.73,10.45-.78l4.65.88c1.76-.11,1.76,1.44,2.52,1.67-3.26-.1-6.91,1.49-2.51,1.94-8.56.37,2.68-3.32-4.9-2.75l-1.08,1.13c1.42-.64-5.16-.93-7.61-.48l1,.19c-20.23.07-47.17,1.86-69.45,3.75-5.67-2.44-16.29,2.12-21.6.26-2.43.55,3.57.72-1.12,1.4-2.34.34-2.61-.37-2.52-.58L0,156.76C-2,154.22,2,151.55,17.1,148.67Z" fill="#3d3d42"/><path d="M1035.34,173.43S1067.69,71.68,972,50.73" fill="none" stroke="#5e5d5d" stroke-linecap="round" stroke-miterlimit="10" stroke-width="5.47"/><path d="M1034.33,41s-21.26,1.26-24.62,25.94" fill="none" stroke="#5e5d5d" stroke-linecap="round" stroke-miterlimit="10" stroke-width="5.47"/><path d="M1038.9,115.84s-51.75,2-74.66-31.19" fill="none" stroke="#5e5d5d" stroke-linecap="round" stroke-miterlimit="10" stroke-width="5.47"/><path d="M1061,70.35s-2.31,17.8-25.81,31.21" fill="none" stroke="#5e5d5d" stroke-linecap="round" stroke-miterlimit="10" stroke-width="5.47"/><path d="M1003.66,89.64s8.43,13.58-2.69,20.63" fill="none" stroke="#5e5d5d" stroke-linecap="round" stroke-miterlimit="10" stroke-width="5.47"/><path d="M1080.83,89.64s-1.94,34.41-40.23,38.9" fill="none" stroke="#5e5d5d" stroke-linecap="round" stroke-miterlimit="10" stroke-width="5.47"/><path d="M1080.83,65.7s-2.27,23.52-28.15,21.32" fill="none" stroke="#5e5d5d" stroke-linecap="round" stroke-miterlimit="10" stroke-width="5.47"/><path d="M981,100.83s-18.43,8.26-32.58-5" fill="none" stroke="#5e5d5d" stroke-linecap="round" stroke-miterlimit="10" stroke-width="5.47"/><path d="M1102.4,103.69s-7.34,23.56-36.45,14.66" fill="none" stroke="#5e5d5d" stroke-linecap="round" stroke-miterlimit="10" stroke-width="5.47"/><g opacity="0.8"><path d="M978.46,44.77c-.09-.42-.37-.43-.6-.19s-1.24-1-2.27-1.12a2.82,2.82,0,0,0-1.44.13,4.69,4.69,0,0,0-3.76.52c-.18,0-.72,0,0,.9-1.47.1-3.07.24-3.68,1.55-.33.45-1.43.09-1.76.56-.39.91-1.9.65-2.44,1.41,0,.22.3.85.16.87-1.75.05-1.16,2.22-1.33,3.58-.14.48-.15.93-.47,1.22.37.37.25.39.31.6-.19.24-2.35.83-2.94.49-.43-.06,1.77-3.17,1.3-3.5-.33-.16-1.55,1.93-1.79,2,.21-2.67.46-4.46.54-5.52s.06-1.43-.06-1.33a10.19,10.19,0,0,0-.85,4c-.37.27-.07,1.32-.54,2-.07-.67-.85-2.68-.77-2.94.1-1.42-.58-1.79.38-2.72.77-.75.93-3.2,1.36-4.14.29,1,1,3.24.34,3.6,1.82-.35-.59-3,.81-4a1,1,0,0,0,.16-.59l.69-.11c1.06-.85,1.41-2.3,2.7-2.89-.07.1-.51-.32-.65-.31-1.61-.05-1.54,1.6-2.64,2.23-.28,0,.09.92-.1,1.08-.33.39-1,.28-1.62.39.15-1.2,1.11-1.85,1.79-2.66.1-.2-.1-.83-.18-1.18a7.93,7.93,0,0,0-1.15.93c-1.12,1.39-.73,4.79-2.69,4.56l0,.23a.33.33,0,0,0-.14,0,.8.8,0,0,1-.84.27l.52-.39c-.22-2.54,1.89-3.25,2.79-5,.12-.49,1.3-.22,1.44-.71a3.62,3.62,0,0,1,3.25-2,28.48,28.48,0,0,1,7.71-.43,12.59,12.59,0,0,1,7,2.58.63.63,0,0,1,.22-.07l-.14-.35.25.33c.4-.06.83.09,1.16.79.12.43-.26,0-.36.46l.15.17,0,.52c.06-.12.08.2.11.4a9.87,9.87,0,0,0-2.05.24c.25.68.42.5.54.59.18-.18.39-.37.62-.17.55-.17,1.06,1.08,1.24,1.5a4.31,4.31,0,0,1,0,.74.68.68,0,0,1,0,.37,2,2,0,0,0-.13.36C978.51,44.75,978.47,44.89,978.46,44.77Zm-13.09-6.18a10.65,10.65,0,0,1,1.52.49l.37,0a.39.39,0,0,0,.36-.26c.76,0,1.5.13,2.23.24a4.41,4.41,0,0,0-2.88-.9c1.83-.93,4.66.5,6.69,1.5a11.21,11.21,0,0,0,1.49.09,2.27,2.27,0,0,0,.85-.39,22.85,22.85,0,0,0-8.32-2.06A14.67,14.67,0,0,0,959.24,39,43.51,43.51,0,0,1,965.37,38.59Zm0,.95a5.89,5.89,0,0,0-1.61,1.05c-1.51.86-3.06,2-2.64,4a11.21,11.21,0,0,1,2.64-4c-1.34.81-.3.3,1.43-.84C965.14,39.67,965.22,39.61,965.32,39.54Z" fill="#ce007f"/><path d="M974.33,36.42a12.85,12.85,0,0,1,2.43,2.06,10.07,10.07,0,0,0-1.1-2c-1.12-1.21-2.18-1-3.39-1.52a11.93,11.93,0,0,0-10,.59.66.66,0,0,0-.6.44,26,26,0,0,1,6.19-1A12.78,12.78,0,0,1,974.33,36.42Z" fill="#ce007f"/><path d="M956.89,37.92a4,4,0,0,1-1,1.37,2.39,2.39,0,0,0,1.75-.56,13.77,13.77,0,0,1,1.56-1.59A4.93,4.93,0,0,0,956.89,37.92Z" fill="#ce007f"/><path d="M961.7,36l-.48.14a5.31,5.31,0,0,0-2,1c.94-.11,1.93-.11,2.84-.2C961.73,36.49,961.65,36.18,961.7,36Z" fill="#ce007f"/></g><g opacity="0.8"><path d="M1032.56,106.12c-.09-.41-.37-.42-.61-.18s-1.23-1-2.26-1.12a2.7,2.7,0,0,0-1.44.13,4.6,4.6,0,0,0-3.76.52c-.18,0-.73-.06,0,.9-1.47.09-3.07.23-3.68,1.55-.33.44-1.43.08-1.76.56-.39.91-1.9.64-2.44,1.4,0,.22.29.85.16.87-1.75,0-1.16,2.22-1.33,3.59-.14.47-.15.92-.48,1.21.38.37.25.4.32.61-.19.24-2.36.83-2.94.49-.43-.07,1.77-3.17,1.3-3.5-.33-.17-1.55,1.92-1.79,2,.21-2.68.46-4.46.54-5.53s.06-1.43-.07-1.33a10.51,10.51,0,0,0-.84,4c-.37.26-.07,1.32-.54,2-.07-.68-.85-2.68-.77-2.94.1-1.42-.58-1.79.37-2.72.78-.75.94-3.2,1.37-4.15.29,1,1,3.25.33,3.6,1.83-.35-.58-3,.81-4a.9.9,0,0,0,.17-.59l.69-.11c1.05-.85,1.4-2.3,2.7-2.9-.07.1-.51-.32-.65-.3-1.62,0-1.54,1.59-2.64,2.22-.29.05.08.92-.1,1.09-.33.38-1.06.28-1.62.39.15-1.21,1.11-1.86,1.78-2.66.11-.21-.09-.83-.17-1.19a7.48,7.48,0,0,0-1.15.94c-1.12,1.39-.74,4.79-2.69,4.56l0,.23a.34.34,0,0,0-.15,0,.78.78,0,0,1-.83.27l.52-.4c-.22-2.54,1.89-3.25,2.79-5,.12-.5,1.3-.23,1.43-.71a3.63,3.63,0,0,1,3.26-2.05,28.09,28.09,0,0,1,7.71-.44,12.77,12.77,0,0,1,7,2.58.81.81,0,0,1,.22-.07l-.14-.35.25.33c.4-.05.83.1,1.16.8.12.42-.26,0-.36.45l.14.17,0,.52c.06-.11.08.21.11.4a10.1,10.1,0,0,0-2.06.25c.25.68.43.5.55.59.18-.18.39-.37.62-.17.54-.18,1.06,1.07,1.24,1.5a4.26,4.26,0,0,1,0,.74.64.64,0,0,1,0,.36,2,2,0,0,0-.12.37C1032.61,106.1,1032.57,106.24,1032.56,106.12ZM1019.47,100a10.65,10.65,0,0,1,1.52.49l.37,0a.39.39,0,0,0,.36-.26c.75.05,1.49.13,2.23.24a4.42,4.42,0,0,0-2.89-.9c1.84-.93,4.67.5,6.7,1.5a13.09,13.09,0,0,0,1.49.08,2.5,2.5,0,0,0,.85-.38,22.65,22.65,0,0,0-8.32-2.06,14.75,14.75,0,0,0-8.44,1.72A43.5,43.5,0,0,1,1019.47,100Zm-.05.94a6.64,6.64,0,0,0-1.62,1c-1.5.87-3,2-2.63,4a11.45,11.45,0,0,1,2.63-4c-1.33.81-.3.31,1.44-.83C1019.24,101,1019.32,101,1019.42,100.89Z" fill="#ce007f"/><path d="M1028.43,97.77a12.85,12.85,0,0,1,2.43,2.06,10,10,0,0,0-1.1-2c-1.12-1.21-2.18-1-3.39-1.53a12,12,0,0,0-10,.59.67.67,0,0,0-.6.45,26,26,0,0,1,6.19-1A12.69,12.69,0,0,1,1028.43,97.77Z" fill="#ce007f"/><path d="M1011,99.27a3.92,3.92,0,0,1-1,1.38,2.4,2.4,0,0,0,1.74-.56,13.11,13.11,0,0,1,1.57-1.59A4.93,4.93,0,0,0,1011,99.27Z" fill="#ce007f"/><path d="M1015.8,97.31l-.48.13a5.19,5.19,0,0,0-2,1.06c.94-.11,1.92-.11,2.84-.2A1.27,1.27,0,0,1,1015.8,97.31Z" fill="#ce007f"/></g><g opacity="0.8"><path d="M1108.66,36.71a3.65,3.65,0,0,0-2.45.77,3.07,3.07,0,0,1-2,.28,6.41,6.41,0,0,0-2.31,0,6.69,6.69,0,0,0-2.07.66,11.26,11.26,0,0,0-2.5.36,7,7,0,0,0-2.28,1.11c-.21,0-.87.06-.07,1-1.76.39-3.64.75-4.42,2.32-.42.54-1.64.29-2,.88-.51,1.08-2.19,1-2.85,1.92,0,.24.28.92.14,1a1.73,1.73,0,0,0-1.47,1.65c-.13.83,0,1.81-.16,2.6a3.2,3.2,0,0,1-.56,1.45c.41.36.27.41.34.63-.21.31-2.56,1.31-3.17,1-.23,0,.2-.95.7-2s1-2,.74-2.2-1.75,2.44-2,2.56c.23-3.09.61-5.16.74-6.39s.14-1.62,0-1.49a12.66,12.66,0,0,0-1.1,4.7c-.41.36-.11,1.52-.62,2.38-.08-.76-.89-2.92-.79-3.24.16-1.63-.59-2,.51-3.16.89-1,1.2-3.78,1.74-4.9.26,1.1.9,3.52.18,4,2-.67-.49-3.31,1.12-4.59a1.39,1.39,0,0,0,.23-.68l.78-.21c1.22-1.11,1.73-2.72,3.19-3.56-.08.12-.55-.29-.71-.25-1.79.16-1.84,1.93-3.08,2.79-.33.09,0,1-.18,1.23-.41.46-1.2.46-1.84.65.21-1.39,1.36-2.21,2.15-3.21.12-.24-.07-.91-.14-1.29a9.42,9.42,0,0,0-1.33,1.19,5.36,5.36,0,0,0-.78,1.55l-.55,1.82c-.39,1.15-.83,2.11-1.94,2.13l0,.25a.33.33,0,0,0-.16,0,1.09,1.09,0,0,1-.94.44,7.7,7.7,0,0,1,.6-.54,4.64,4.64,0,0,1,1.24-3.31,18.84,18.84,0,0,0,2.16-2.75c.16-.57,1.46-.43,1.65-1a4.85,4.85,0,0,1,3.74-2.62c5.69-1.57,11.64-2.14,17.31-.68a1.59,1.59,0,0,1,.27-.18l-.28-.28.42.2a2,2,0,0,1,1.92.16c.37.32-.37.17-.36.66l.29.06.16.52c0-.15.21.14.35.3a17.26,17.26,0,0,0-1.67.69c-.54.28-1.08.55-1.65.78.45.6.71.33.92.36.29-.32.58-.64,1-.57.87-.55,2.34.34,3.32.34a5.06,5.06,0,0,1,.72.53C1109.19,35.88,1109,36.83,1108.66,36.71Zm-19.2-2.15a11.85,11.85,0,0,1,1.72.34l.43-.1a.51.51,0,0,0,.42-.33c.86-.06,1.7-.11,2.57-.1a5,5,0,0,0-3.3-.53,4.39,4.39,0,0,1,1.74-.55,9.9,9.9,0,0,1,2,.08c.69.09,1.4.23,2.09.37s1.39.34,2,.47a10,10,0,0,0,1.91-.4,3.82,3.82,0,0,0,1.11-.71,73.94,73.94,0,0,0-10.11-.3,19.33,19.33,0,0,0-9.58,2.94c1.23-.2,2.35-.47,3.46-.7A29.88,29.88,0,0,1,1089.46,34.56Zm-.08,1a10,10,0,0,0-1.9,1.35,11.75,11.75,0,0,0-2.4,2,3.63,3.63,0,0,0-.82,2.81,27.32,27.32,0,0,1,1.37-2.55,14.34,14.34,0,0,1,1.85-2.27c-1.54,1.08-.37.36,1.68-1.09C1089.16,35.78,1089.25,35.7,1089.38,35.61Z" fill="#59c3e8"/><path d="M1099.69,30.64c1.17.45,2.27.79,3.37,1.29a12.74,12.74,0,0,0-1.81-1.63,4.71,4.71,0,0,0-2.1-.61,12.33,12.33,0,0,1-2-.1,15.6,15.6,0,0,0-11.06,2,.87.87,0,0,0-.68.55C1090,30.53,1094.52,29.44,1099.69,30.64Z" fill="#59c3e8"/><path d="M1080,34.86a5.41,5.41,0,0,1-1.15,1.65,3.14,3.14,0,0,0,2-.84,16.19,16.19,0,0,1,1.84-2A6.17,6.17,0,0,0,1080,34.86Z" fill="#59c3e8"/><path d="M1085.43,32.15l-.55.2a6.55,6.55,0,0,0-2.25,1.37c1-.23,2.15-.35,3.19-.54A1.19,1.19,0,0,1,1085.43,32.15Z" fill="#59c3e8"/></g><g opacity="0.8"><path d="M1121.35,87a1.46,1.46,0,0,0-1.75-.13,2.08,2.08,0,0,1-1.53-.47,5.2,5.2,0,0,0-1.89-.78,4.37,4.37,0,0,0-1.88.09,6.07,6.07,0,0,0-4.64.31c-.21,0-.86-.13-.12,1-1.76,0-3.67,0-4.54,1.47-.45.49-1.69,0-2.14.51-.56,1-2.31.6-3,1.46,0,.26.25,1,.1,1-2.07-.07-1.59,2.52-1.9,4.11-.21.55-.26,1.07-.65,1.39.41.45.26.48.31.72-.23.27-2.8.85-3.44.41-.24,0,.29-.94.87-1.89s1.18-1.92.9-2.13-2,2.18-2.25,2.25c.44-3.14.91-5.24,1.12-6.49s.22-1.68.06-1.57a12.22,12.22,0,0,0-1.39,4.69c-.46.3-.2,1.56-.8,2.34,0-.79-.78-3.2-.65-3.5.24-1.68-.52-2.15.7-3.2,1-.85,1.44-3.73,2.07-4.82.23,1.22.77,3.89,0,4.27,2.2-.29-.37-3.58,1.41-4.62a1.2,1.2,0,0,0,.27-.68l.83-.09c1.36-.92,2-2.6,3.57-3.18-.09.11-.56-.42-.73-.41-1.91-.2-2,1.74-3.41,2.4-.35,0,0,1.09-.26,1.28-.44.42-1.28.25-2,.34.33-1.41,1.54-2.12,2.45-3,.15-.23,0-1-.06-1.41a11.47,11.47,0,0,0-1.49,1,11.31,11.31,0,0,0-1.58,3.35c-.46,1.16-1,2.06-2.15,1.88v.27a.27.27,0,0,0-.16-.05,1,1,0,0,1-1,.28l.66-.45c0-3,2.62-3.74,3.92-5.79.21-.58,1.58-.17,1.8-.73a4.53,4.53,0,0,1,4.13-2.14,33.89,33.89,0,0,1,9.17.23A18.94,18.94,0,0,1,1118.5,80l.28-.08c-.06-.14-.11-.27-.17-.4l.32.37a1.54,1.54,0,0,1,1.6.84c.22.48-.35,0-.48.57l.23.18,0,.61c.08-.14.14.22.2.45a28,28,0,0,0-3,.37c.28.79.55.6.71.7.29-.25.61-.47.94-.22.4-.14.86.15,1.26.54s.78.86,1.11,1.08a5.54,5.54,0,0,1,.33.86c.12.25,0,.6-.1.86S1121.45,87.18,1121.35,87Zm-16.91-7.89a12,12,0,0,1,1.73.71l.45,0a.49.49,0,0,0,.46-.27c.88.13,1.75.29,2.61.49a5.22,5.22,0,0,0-3.31-1.32c2.29-.91,5.44,1,7.82,2.32a12.05,12.05,0,0,0,1.85.18,3.28,3.28,0,0,0,1.13-.44,36,36,0,0,0-9.84-3,17.5,17.5,0,0,0-10.23,1.28A47.16,47.16,0,0,1,1104.44,79.15Zm-.19,1.1a7.71,7.71,0,0,0-2,1.08c-1.9.88-3.88,2.12-3.62,4.5a13.59,13.59,0,0,1,3.62-4.5c-1.68.84-.4.33,1.8-.85C1104,80.39,1104.12,80.32,1104.25,80.25Z" fill="#ed7100"/><path d="M1115.3,77.39a22.85,22.85,0,0,1,2.89,2.44,13.37,13.37,0,0,0-1.3-2.36A4.2,4.2,0,0,0,1115,76.2a19.62,19.62,0,0,1-2-.69,14.38,14.38,0,0,0-11.79-.25.82.82,0,0,0-.77.47,30.6,30.6,0,0,1,7.44-.58A16.35,16.35,0,0,1,1115.3,77.39Z" fill="#ed7100"/><path d="M1094.45,77.65a5.09,5.09,0,0,1-1.32,1.56,3,3,0,0,0,2.15-.54,17.34,17.34,0,0,1,2.07-1.76A6.12,6.12,0,0,0,1094.45,77.65Z" fill="#ed7100"/><path d="M1100.43,75.73l-.59.11a6.61,6.61,0,0,0-2.49,1.07c1.13,0,2.3,0,3.4,0A1.41,1.41,0,0,1,1100.43,75.73Z" fill="#ed7100"/></g><g opacity="0.8"><path d="M1120.76,50.28a2.48,2.48,0,0,0-2.3.06,2.39,2.39,0,0,1-1.89-.32,5.91,5.91,0,0,0-2.22-.65,4.42,4.42,0,0,0-2.12.19,8.74,8.74,0,0,0-2.6-.25,7.4,7.4,0,0,0-2.48.69c-.23,0-.91-.1-.17,1.11a15,15,0,0,0-2.79.21,3.44,3.44,0,0,0-2.11,1.38c-.49.53-1.78,0-2.28.56-.64,1.07-2.44.68-3.25,1.55,0,.27.24,1.07.08,1.08-2.17,0-1.76,2.66-2.13,4.32a3.34,3.34,0,0,1-.73,1.47c.42.46.26.49.32.75-.27.28-2.94.92-3.6.47-.24,0,.32-1,1-2s1.28-2,1-2.24-2.13,2.31-2.42,2.39c.55-3.29,1.11-5.5,1.38-6.81s.28-1.76.11-1.65a13.28,13.28,0,0,0-1.61,4.94c-.48.32-.26,1.63-.9,2.47,0-.83-.73-3.34-.59-3.67.31-1.75-.48-2.25.84-3.36,1.06-.9,1.65-3.92,2.35-5.06.18,1.26.69,4.07-.16,4.46,2.32-.33-.27-3.75,1.65-4.84a1.27,1.27,0,0,0,.3-.72l.88-.09a9.19,9.19,0,0,0,1.83-1.8,5.26,5.26,0,0,1,2-1.53c-.1.12-.57-.43-.76-.42a2.21,2.21,0,0,0-2,.92,5.09,5.09,0,0,1-1.63,1.6c-.37,0-.07,1.12-.32,1.32-.47.46-1.35.28-2.08.38.39-1.47,1.69-2.22,2.69-3.15.16-.24,0-1,0-1.46a12,12,0,0,0-1.6,1.06c-.82.79-1.24,2.3-1.78,3.49s-1.11,2.18-2.34,2c0,.07,0,.14,0,.28a.32.32,0,0,0-.17,0,1,1,0,0,1-1.08.31l.71-.48a4.87,4.87,0,0,1,1.67-3.43,16.54,16.54,0,0,0,2.65-2.64c.25-.6,1.68-.18,1.92-.78a4.15,4.15,0,0,1,1.84-1.66,5.78,5.78,0,0,1,2.57-.56,39.12,39.12,0,0,1,4.84-.23c.81,0,1.61,0,2.39.08s1.61.18,2.4.3,1.54.23,2.33.45,1.54.43,2.28.68a20.92,20.92,0,0,1,4.26,2,2.85,2.85,0,0,1,.31-.12l-.22-.39.38.34a1.83,1.83,0,0,1,1.85.76c.28.48-.4.07-.51.61l.27.17,0,.62c.07-.15.17.22.26.45-1.16,0-2.3.47-3.49.62.33.8.64.59.83.68.33-.26.68-.52,1.08-.32.46-.22,1,.09,1.53.45a8.24,8.24,0,0,0,1.46,1,5.25,5.25,0,0,1,.51.82,1.15,1.15,0,0,1,0,.89C1121.06,50.21,1120.91,50.4,1120.76,50.28Zm-19-7.35a13.27,13.27,0,0,1,1.8.7l.48,0a.52.52,0,0,0,.5-.27c.93.12,1.85.28,2.75.44a5.72,5.72,0,0,0-3.46-1.3c2.43-1,5.71,1,8.3,2.22a9.35,9.35,0,0,0,2,.09,5.29,5.29,0,0,0,1.23-.5c-.77-.32-1.57-.56-2.4-.83s-1.71-.57-2.6-.82a39.53,39.53,0,0,0-5.53-1.13,19,19,0,0,0-10.81,1.38C1096.83,42.88,1099.14,42.56,1101.81,42.93Zm-.22,1.14a7.51,7.51,0,0,0-2.2,1.13c-2,.92-4.16,2.23-4,4.71a15.12,15.12,0,0,1,4-4.71c-1.8.89-.44.33,1.93-.89C1101.33,44.21,1101.45,44.14,1101.59,44.07Z" fill="#ce007f"/><path d="M1113.32,40.86a31,31,0,0,1,3.21,2.37,15,15,0,0,0-1.51-2.34c-1.45-1.46-2.7-1.19-4.16-1.84-.54-.24-1.07-.45-1.62-.64a16,16,0,0,0-1.59-.39,15.58,15.58,0,0,0-9.14.91.92.92,0,0,0-.82.48c1.34-.21,2.59-.45,3.9-.55a29.82,29.82,0,0,1,3.89-.1,26,26,0,0,1,3.93.58A20.8,20.8,0,0,1,1113.32,40.86Z" fill="#ce007f"/><path d="M1091.36,41.43a6,6,0,0,1-1.44,1.63,3.41,3.41,0,0,0,2.27-.58,16.41,16.41,0,0,1,2.24-1.83A6.41,6.41,0,0,0,1091.36,41.43Z" fill="#ce007f"/><path d="M1097.69,39.41l-.64.11a7.48,7.48,0,0,0-2.62,1.13c1.19,0,2.41,0,3.56,0A1.43,1.43,0,0,1,1097.69,39.41Z" fill="#ce007f"/></g><g opacity="0.8"><path d="M985.55,70.73a.46.46,0,0,0-.36-.32c-.12,0-.27.06-.39.2-.38.26-1.37-1-2.43-1a2.71,2.71,0,0,0-1.44.25,4.6,4.6,0,0,0-3.79.8c-.19,0-.75,0,.1.94-1.49.21-3.14.5-3.61,1.91-.28.49-1.46.21-1.75.74-.29,1-1.88.85-2.35,1.69.07.22.41.85.28.88-1.81.23-.93,2.41-.93,3.83-.08.5,0,1-.33,1.3.44.34.31.38.4.58-.16.27-2.32,1.1-3,.81-.46,0,1.41-3.44.88-3.73-.36-.13-1.35,2.15-1.59,2.24-.14-2.77-.1-4.65-.15-5.76s-.11-1.48-.23-1.37a10.63,10.63,0,0,0-.38,4.25c-.34.31.1,1.37-.3,2.12-.15-.68-1.23-2.66-1.17-2.94-.08-1.48-.83-1.79,0-2.86.71-.86.58-3.42.92-4.44.42,1,1.4,3.26.78,3.7,1.85-.56-1-3.06.37-4.2a1,1,0,0,0,.11-.63l.7-.19c1-1,1.21-2.53,2.48-3.28-.06.11-.56-.29-.71-.26-1.68.11-1.43,1.81-2.49,2.58-.3.08.19,1,0,1.15-.31.43-1.07.39-1.65.57,0-1.27.95-2,1.56-3,.08-.22-.19-.85-.32-1.21a8,8,0,0,0-1.09,1.09c-1,1.57-.21,5.06-2.27,5l.06.23a.44.44,0,0,0-.15,0,.8.8,0,0,1-.84.37l.5-.47c-.54-2.61,1.58-3.58,2.31-5.54.08-.54,1.34-.37,1.43-.89A3.76,3.76,0,0,1,968,63.43a28.53,28.53,0,0,1,8-1.15,13.28,13.28,0,0,1,7.43,2.16.9.9,0,0,1,.21-.08l-.17-.36.29.32a1,1,0,0,1,.64.06,1.73,1.73,0,0,1,.64.67c.18.43-.27,0-.33.51l.17.16v.55c0-.12.11.21.16.41a10.5,10.5,0,0,0-2.13.44c.32.68.48.48.61.58.17-.21.38-.45.63-.23.26-.11.6.1.86.47.14.18.26.37.37.53a3.88,3.88,0,0,0,.28.44,5.13,5.13,0,0,1,.13.77c.11.24,0,.54-.08.79S985.58,70.86,985.55,70.73Zm-14.19-5.39a10.66,10.66,0,0,1,1.62.37l.39-.08a.43.43,0,0,0,.35-.3c.78,0,1.56,0,2.32.06A4.51,4.51,0,0,0,973,64.7c1.81-1.14,4.89.12,7.06,1a9.73,9.73,0,0,0,1.54,0,2.05,2.05,0,0,0,.85-.47,23.18,23.18,0,0,0-8.8-1.49,14.87,14.87,0,0,0-8.6,2.61A41.59,41.59,0,0,1,971.36,65.34Zm0,1a6.19,6.19,0,0,0-1.57,1.24c-1.47,1-3,2.4-2.28,4.43a11.49,11.49,0,0,1,2.28-4.43c-1.29,1-.28.35,1.4-1C971.23,66.48,971.31,66.41,971.41,66.33Z" fill="#199e8e"/><path d="M980.43,62.32a14.35,14.35,0,0,1,2.69,2,11.19,11.19,0,0,0-1.31-2,3.78,3.78,0,0,0-1.81-1,14.25,14.25,0,0,1-1.83-.38,12.23,12.23,0,0,0-10.33,1.5.69.69,0,0,0-.58.52,25.41,25.41,0,0,1,6.36-1.62A13,13,0,0,1,980.43,62.32Z" fill="#199e8e"/><path d="M962.45,65.47A4.24,4.24,0,0,1,961.6,67a2.51,2.51,0,0,0,1.75-.77,13.61,13.61,0,0,1,1.47-1.82A5.1,5.1,0,0,0,962.45,65.47Z" fill="#199e8e"/><path d="M967.26,62.93l-.49.19a5.26,5.26,0,0,0-1.95,1.3c1-.21,2-.31,2.94-.49C967.35,63.49,967.23,63.17,967.26,62.93Z" fill="#199e8e"/></g><g opacity="0.8"><path d="M973.66,121.44c-.13-.28-.34-.28-.51-.09s-.92-.66-1.63-.68a1.87,1.87,0,0,0-1,.17,3.07,3.07,0,0,0-2.55.54c-.13,0-.51,0,.07.63-1,.14-2.12.33-2.43,1.28-.19.34-1,.15-1.18.5-.2.66-1.27.57-1.58,1.14,0,.15.27.57.18.59-1.21.15-.62,1.62-.62,2.58-.06.34,0,.65-.22.87.29.23.21.26.27.4a3.24,3.24,0,0,1-2,.54c-.31,0,1-2.32.59-2.51s-.91,1.45-1.07,1.51c-.09-1.87-.07-3.13-.1-3.88s-.08-1-.16-.92a7.27,7.27,0,0,0-.25,2.86c-.23.21.06.92-.2,1.43-.11-.46-.83-1.8-.79-2-.06-1-.56-1.2,0-1.92s.39-2.3.62-3c.28.69.93,2.2.52,2.49,1.25-.37-.65-2,.25-2.83a.69.69,0,0,0,.07-.42l.47-.13c.67-.67.82-1.7,1.68-2.21,0,.08-.38-.19-.48-.17-1.13.08-1,1.22-1.68,1.74-.2,0,.12.64,0,.77-.2.29-.72.27-1.11.38,0-.85.64-1.37,1.05-2,.06-.16-.13-.58-.21-.82a5.11,5.11,0,0,0-.74.73c-.68,1.06-.14,3.41-1.53,3.39l0,.16a.24.24,0,0,0-.1,0,.57.57,0,0,1-.57.25l.33-.32c-.36-1.76,1.07-2.41,1.56-3.73,0-.36.9-.25,1-.6a2.55,2.55,0,0,1,2.14-1.66,19.22,19.22,0,0,1,5.38-.77,8.89,8.89,0,0,1,5,1.45l.15,0-.12-.24.2.22c.27-.08.58,0,.86.48.12.29-.18,0-.23.35l.12.11v.37c0-.09.07.14.1.27a8.25,8.25,0,0,0-1.43.29c.21.46.32.33.41.4.12-.14.26-.3.42-.16.38-.16.83.69,1,1a3.5,3.5,0,0,1,.09.52c.08.16,0,.37,0,.53S973.68,121.52,973.66,121.44Zm-9.55-3.63a5.86,5.86,0,0,1,1.09.25l.26-.06a.28.28,0,0,0,.24-.2c.52,0,1,0,1.56,0a3.1,3.1,0,0,0-2.07-.47c1.22-.76,3.29.09,4.76.69a7,7,0,0,0,1,0,1.47,1.47,0,0,0,.57-.32,15.48,15.48,0,0,0-5.92-1,10.15,10.15,0,0,0-5.79,1.76A28.29,28.29,0,0,1,964.11,117.81Zm0,.66a4.36,4.36,0,0,0-1,.84c-1,.7-2,1.61-1.54,3a7.72,7.72,0,0,1,1.54-3c-.88.65-.19.23.94-.68C964,118.58,964.07,118.53,964.14,118.47Z" fill="#199e8e"/><path d="M970.21,115.78A9.54,9.54,0,0,1,972,117.1a7.9,7.9,0,0,0-.89-1.37c-.85-.8-1.57-.62-2.45-.9a8.25,8.25,0,0,0-7,1c-.12,0-.36.13-.39.36a17.5,17.5,0,0,1,4.28-1.1A8.7,8.7,0,0,1,970.21,115.78Z" fill="#199e8e"/><path d="M958.11,117.9a2.84,2.84,0,0,1-.57,1,1.69,1.69,0,0,0,1.18-.52,9.69,9.69,0,0,1,1-1.22A3.32,3.32,0,0,0,958.11,117.9Z" fill="#199e8e"/><path d="M961.35,116.19l-.33.12a3.78,3.78,0,0,0-1.32.88c.65-.14,1.35-.21,2-.33C961.41,116.56,961.33,116.35,961.35,116.19Z" fill="#199e8e"/></g><g opacity="0.8"><path d="M1120.66,96.77c-.13-.28-.34-.28-.51-.08s-.92-.67-1.63-.69a1.87,1.87,0,0,0-1,.17,3.07,3.07,0,0,0-2.55.54c-.13,0-.51,0,.07.63-1,.14-2.12.34-2.43,1.28-.19.34-1,.15-1.18.5-.2.66-1.27.58-1.59,1.14.05.15.28.57.19.59-1.21.16-.62,1.62-.62,2.58-.06.34,0,.65-.22.87.29.23.21.26.27.4a3.24,3.24,0,0,1-2,.54c-.31,0,1-2.32.59-2.51s-.91,1.45-1.07,1.51c-.09-1.87-.07-3.13-.1-3.88s-.08-1-.16-.92a7.27,7.27,0,0,0-.25,2.86c-.23.21.06.92-.2,1.43-.11-.46-.83-1.8-.79-2-.06-1-.56-1.21,0-1.92s.39-2.31.62-3c.28.69.93,2.2.52,2.49,1.24-.37-.66-2,.25-2.82a.74.74,0,0,0,.07-.43l.47-.12c.67-.67.82-1.71,1.67-2.21,0,.07-.37-.19-.47-.17-1.13.07-1,1.21-1.68,1.73-.2,0,.12.64,0,.77-.2.29-.72.27-1.11.39,0-.86.64-1.38,1-2,.06-.15-.13-.58-.21-.82a5.68,5.68,0,0,0-.74.73c-.68,1.06-.14,3.41-1.53,3.39l0,.16a.26.26,0,0,0-.11,0,.53.53,0,0,1-.56.25l.33-.31c-.36-1.76,1.07-2.41,1.56-3.74,0-.35.9-.24,1-.59a2.52,2.52,0,0,1,2.14-1.66,18.86,18.86,0,0,1,5.37-.78,9,9,0,0,1,5,1.45l.15,0-.12-.24.2.22c.27-.07.58,0,.86.48.12.29-.18,0-.23.35l.12.11v.37c0-.09.07.14.1.27a7.47,7.47,0,0,0-1.43.3c.21.46.32.32.41.39.12-.14.26-.3.42-.16.38-.16.83.69,1,1a3.09,3.09,0,0,1,.09.52c.08.15,0,.36,0,.52S1120.68,96.86,1120.66,96.77Zm-9.55-3.63a8.41,8.41,0,0,1,1.09.25l.26-.06c.12,0,.19-.08.24-.2.52,0,1,0,1.56,0a3,3,0,0,0-2.07-.46c1.22-.77,3.29.08,4.76.69a8.68,8.68,0,0,0,1,0,1.47,1.47,0,0,0,.57-.32,15.56,15.56,0,0,0-5.92-1,10.07,10.07,0,0,0-5.79,1.75A28.29,28.29,0,0,1,1111.11,93.14Zm0,.66a4.36,4.36,0,0,0-1.05.84c-1,.7-2,1.61-1.54,3a7.72,7.72,0,0,1,1.54-3c-.88.65-.19.23.94-.67C1111,93.91,1111.07,93.86,1111.14,93.8Z" fill="#199e8e"/><path d="M1117.21,91.11a9.17,9.17,0,0,1,1.82,1.33,7.63,7.63,0,0,0-.89-1.38c-.85-.8-1.57-.61-2.45-.9a8.22,8.22,0,0,0-7,1,.46.46,0,0,0-.39.35,17,17,0,0,1,4.28-1.09A8.7,8.7,0,0,1,1117.21,91.11Z" fill="#199e8e"/><path d="M1105.11,93.23a2.84,2.84,0,0,1-.57,1,1.73,1.73,0,0,0,1.18-.51,9.79,9.79,0,0,1,1-1.23A3.41,3.41,0,0,0,1105.11,93.23Z" fill="#199e8e"/><path d="M1108.35,91.52l-.33.13a3.62,3.62,0,0,0-1.32.87c.65-.14,1.35-.21,2-.33A.9.9,0,0,1,1108.35,91.52Z" fill="#199e8e"/></g><g opacity="0.8"><path d="M978.74,113.23a1.49,1.49,0,0,0-1.81-.14,2.13,2.13,0,0,1-1.59-.49,5.42,5.42,0,0,0-2-.81,4.44,4.44,0,0,0-2,.1,6.34,6.34,0,0,0-4.86.33c-.22,0-.9-.13-.12,1.11-1.84,0-3.84,0-4.75,1.56-.46.52-1.77,0-2.24.54-.57,1.1-2.41.64-3.16,1.54,0,.28.28,1.07.11,1.08-2.16-.06-1.64,2.66-2,4.33-.21.58-.26,1.12-.68,1.46.44.47.28.5.34.76-.25.28-2.93.9-3.61.44-.25,0,.3-1,.91-2s1.21-2,.92-2.24-2,2.3-2.34,2.37c.44-3.29.92-5.5,1.13-6.81s.22-1.76,0-1.65c-.33.23-1.2,2.73-1.43,4.93-.47.31-.19,1.63-.82,2.46,0-.83-.84-3.35-.71-3.67.24-1.76-.55-2.25.72-3.36,1-.9,1.49-3.93,2.14-5.07.25,1.28.84,4.08,0,4.48,2.3-.32-.41-3.76,1.45-4.86a1.35,1.35,0,0,0,.28-.71l.87-.09c1.41-1,2-2.74,3.72-3.36-.1.12-.59-.44-.77-.43-2-.2-2.12,1.84-3.56,2.54-.36,0,0,1.14-.26,1.34-.47.44-1.35.27-2.07.37.33-1.48,1.6-2.23,2.55-3.17.16-.25,0-1-.07-1.48a10.41,10.41,0,0,0-1.55,1.07,11.35,11.35,0,0,0-1.64,3.52c-.48,1.22-1,2.16-2.25,2l0,.29a.38.38,0,0,0-.17-.06,1.05,1.05,0,0,1-1.07.3l.69-.47c0-3.18,2.72-3.94,4.07-6.1.22-.61,1.66-.18,1.88-.77a4.76,4.76,0,0,1,4.33-2.27,35.59,35.59,0,0,1,9.62.2,19.79,19.79,0,0,1,8.64,3.53l.29-.09-.18-.42.33.39a1.65,1.65,0,0,1,1.69.89c.22.5-.38.05-.51.6l.24.18,0,.64c.08-.15.15.24.21.47a30.52,30.52,0,0,0-3.17.4c.3.83.57.63.74.73.31-.26.63-.49,1-.23.42-.15.89.16,1.32.57s.81.9,1.15,1.13a5.15,5.15,0,0,1,.34.9c.13.27,0,.63-.1.91S978.85,113.38,978.74,113.23ZM961,105a12.67,12.67,0,0,1,1.82.74l.47,0a.51.51,0,0,0,.48-.29c.94.14,1.84.3,2.74.51a5.49,5.49,0,0,0-3.47-1.38c2.4-1,5.71,1.07,8.21,2.41a12,12,0,0,0,1.93.18,3.32,3.32,0,0,0,1.18-.45,36.88,36.88,0,0,0-10.32-3.12c-3.78-.51-7.67-.21-10.72,1.38A50.45,50.45,0,0,1,961,105Zm-.18,1.15a8.06,8.06,0,0,0-2.15,1.15c-2,.94-4.05,2.24-3.77,4.74a14.22,14.22,0,0,1,3.77-4.74c-1.76.89-.42.34,1.89-.9C960.59,106.29,960.7,106.22,960.84,106.14Z" fill="#ec7200"/><path d="M972.41,103.1a24.38,24.38,0,0,1,3,2.56,13.64,13.64,0,0,0-1.37-2.47,4.27,4.27,0,0,0-2-1.33c-.68-.25-1.35-.38-2.08-.72a15.08,15.08,0,0,0-12.38-.22.87.87,0,0,0-.8.5,31.6,31.6,0,0,1,7.8-.64A17.12,17.12,0,0,1,972.41,103.1Z" fill="#ec7200"/><path d="M950.54,103.46a5.38,5.38,0,0,1-1.38,1.65,3.18,3.18,0,0,0,2.25-.58,17.17,17.17,0,0,1,2.16-1.85A6.37,6.37,0,0,0,950.54,103.46Z" fill="#ec7200"/><path d="M956.8,101.42l-.62.12a6.89,6.89,0,0,0-2.61,1.14c1.19-.06,2.42,0,3.57,0A1.49,1.49,0,0,1,956.8,101.42Z" fill="#ec7200"/></g><g opacity="0.8"><path d="M1052.14,35.27a2.24,2.24,0,0,0-.33-.3,1.19,1.19,0,0,0-.36-.09.89.89,0,0,0-.7.25.88.88,0,0,1-.61-.05,8.75,8.75,0,0,1-.77-.45c-.28-.16-.58-.35-.9-.51a3,3,0,0,0-1-.27,3.63,3.63,0,0,0-1.86.19,5.76,5.76,0,0,0-4.74.65c-.23,0-.91-.07,0,1.14-1.84.1-3.86.29-4.59,2-.4.57-1.79.13-2.2.74-.46,1.15-2.36.85-3,1.82.06.27.41,1.06.25,1.09-2.21.11-1.38,2.83-1.52,4.54-.15.6-.14,1.17-.53,1.54.49.45.34.48.43.74-.22.31-2.9,1.14-3.64.73-.26,0,.2-1,.71-2.09s1-2.14.7-2.34-1.84,2.49-2.13,2.58c.1-3.37.34-5.64.4-7s0-1.81-.13-1.68-.91,2.86-.9,5.11c-.45.35,0,1.67-.57,2.55-.13-.83-1.22-3.33-1.12-3.66.05-1.81-.82-2.24.35-3.46.95-1,1.07-4.1,1.61-5.31.39,1.28,1.31,4.07.52,4.55,2.3-.51-.84-3.79.92-5.06a1.21,1.21,0,0,0,.19-.75l.88-.16c1.31-1.12,1.75-3,3.39-3.74-.09.13-.65-.39-.84-.37-2,0-2,2.05-3.31,2.89-.37.06.11,1.16-.12,1.38-.4.5-1.34.38-2,.55.16-1.54,1.37-2.4,2.23-3.44.13-.26-.14-1.05-.25-1.5a10.53,10.53,0,0,0-1.45,1.22,11.34,11.34,0,0,0-1.25,3.71c-.35,1.28-.8,2.29-2.06,2.19l.05.29a.49.49,0,0,0-.18,0,1,1,0,0,1-1,.38l.64-.53c-.35-3.22,2.32-4.21,3.44-6.52.14-.64,1.67-.32,1.82-.95a4.67,4.67,0,0,1,4.14-2.68,33.82,33.82,0,0,1,9.78-.59,17.52,17.52,0,0,1,8.89,3.15,1.57,1.57,0,0,1,.28-.1l-.19-.43.34.39c.53-.12,1.11.08,1.63.9.22.52-.35.05-.46.62l.22.19v.66c.07-.15.14.25.2.49a21.28,21.28,0,0,0-2.9.47c.35.82.58.63.74.73.27-.25.56-.53.88-.26.37-.14.82.15,1.19.58.2.22.38.44.54.64a2.86,2.86,0,0,0,.45.53,5.89,5.89,0,0,1,.25.93c.14.28,0,.65-.1.94S1052.21,35.42,1052.14,35.27Zm-17.62-7.53a14.4,14.4,0,0,1,1.92.6l.47-.06a.48.48,0,0,0,.46-.33c.94.05,1.9.17,2.81.3-1.29-.78-2.62-1.37-3.64-1.13,2.32-1.19,5.89.63,8.47,1.88a10.39,10.39,0,0,0,1.91.07,2.55,2.55,0,0,0,1.11-.51A31.5,31.5,0,0,0,1037.44,26c-3.89-.22-7.79.44-10.71,2.31C1029.48,28.1,1031.78,27.58,1034.52,27.74Zm-.07,1.19a7.93,7.93,0,0,0-2,1.36c-1.9,1.11-3.85,2.61-3.27,5.13a14,14,0,0,1,3.27-5.13c-1.7,1-.38.39,1.81-1.08C1034.22,29.1,1034.32,29,1034.45,28.93Z" fill="#0057a6"/><path d="M1045.83,25a20.3,20.3,0,0,1,3.17,2.52,14.22,14.22,0,0,0-1.49-2.51c-1.46-1.52-2.75-1.26-4.29-1.89a14.49,14.49,0,0,0-6.69-1,16.11,16.11,0,0,0-5.93,1.77.87.87,0,0,0-.75.58,31.39,31.39,0,0,1,7.86-1.32A16.29,16.29,0,0,1,1045.83,25Z" fill="#0057a6"/><path d="M1023.72,27.06a5.31,5.31,0,0,1-1.2,1.79,3,3,0,0,0,2.2-.78,18.46,18.46,0,0,1,2-2.06A6.29,6.29,0,0,0,1023.72,27.06Z" fill="#0057a6"/><path d="M1029.85,24.44l-.63.18a6.79,6.79,0,0,0-2.51,1.39c1.18-.17,2.46-.19,3.62-.32C1029.88,25.13,1029.78,24.73,1029.85,24.44Z" fill="#0057a6"/></g><g opacity="0.8"><path d="M1073.22,71.46a2.14,2.14,0,0,0-.33-.29,1.19,1.19,0,0,0-.36-.09.91.91,0,0,0-.7.24.83.83,0,0,1-.61,0,5.8,5.8,0,0,1-.76-.44c-.29-.17-.59-.35-.91-.51a3.21,3.21,0,0,0-1-.28,3.77,3.77,0,0,0-1.86.2,5.79,5.79,0,0,0-4.74.64c-.23,0-.91-.06,0,1.15-1.84.1-3.86.29-4.59,2-.4.57-1.79.13-2.2.73-.46,1.16-2.36.86-3,1.82,0,.28.4,1.07.24,1.1-2.21.11-1.38,2.82-1.52,4.54-.15.6-.14,1.16-.52,1.54.49.44.33.48.42.74-.22.31-2.9,1.14-3.64.72-.26,0,.21-1,.71-2.08s1-2.14.71-2.35-1.85,2.49-2.14,2.59c.1-3.38.34-5.65.41-7s0-1.81-.14-1.68c-.31.26-.91,2.86-.9,5.11-.45.35,0,1.67-.57,2.55-.12-.84-1.22-3.33-1.12-3.66.05-1.81-.82-2.24.35-3.46,1-1,1.07-4.1,1.61-5.32.39,1.29,1.31,4.08.53,4.55,2.29-.51-.85-3.78.91-5.05a1.32,1.32,0,0,0,.2-.75l.87-.16c1.31-1.12,1.75-3,3.39-3.74-.09.13-.65-.4-.84-.38-2,0-2,2.06-3.31,2.89-.36.07.11,1.17-.11,1.39-.41.5-1.34.38-2,.54.16-1.53,1.37-2.39,2.22-3.43.13-.27-.13-1-.24-1.5a9.45,9.45,0,0,0-1.46,1.22,11.26,11.26,0,0,0-1.25,3.71c-.35,1.27-.8,2.28-2.06,2.19l.05.29a.26.26,0,0,0-.18,0,1,1,0,0,1-1,.38l.65-.53c-.36-3.22,2.32-4.21,3.43-6.52.14-.65,1.67-.32,1.82-.95a4.69,4.69,0,0,1,4.14-2.68,34.2,34.2,0,0,1,9.78-.6,17.7,17.7,0,0,1,8.89,3.15l.28-.09-.19-.43.34.39c.53-.12,1.11.08,1.63.9.22.52-.35.05-.46.62l.22.19s0,.33,0,.66c.06-.15.13.25.2.49a21.1,21.1,0,0,0-2.91.46c.35.83.58.64.74.74.27-.25.56-.54.88-.26.37-.14.82.14,1.2.58.19.21.37.43.53.64a3.24,3.24,0,0,0,.45.53,5,5,0,0,1,.25.93c.14.28,0,.65-.1.94S1073.3,71.62,1073.22,71.46Zm-17.62-7.52a12,12,0,0,1,1.92.6l.47-.06a.49.49,0,0,0,.46-.33c.94,0,1.9.17,2.81.29-1.28-.77-2.61-1.36-3.64-1.12,2.32-1.19,5.89.63,8.47,1.87a10.43,10.43,0,0,0,1.91.08,2.57,2.57,0,0,0,1.11-.52,32,32,0,0,0-10.59-2.53c-3.89-.21-7.79.44-10.71,2.32C1050.56,64.29,1052.86,63.78,1055.6,63.94Zm-.06,1.19a8.22,8.22,0,0,0-2,1.35c-1.9,1.12-3.84,2.62-3.27,5.14a14.1,14.1,0,0,1,3.27-5.14c-1.69,1-.38.39,1.81-1.08C1055.3,65.3,1055.41,65.22,1055.54,65.13Z" fill="#0057a6"/><path d="M1066.91,61.15a20.24,20.24,0,0,1,3.17,2.51,15,15,0,0,0-1.49-2.51c-1.46-1.51-2.75-1.25-4.29-1.88a14.47,14.47,0,0,0-6.69-1,16.17,16.17,0,0,0-5.93,1.77.86.86,0,0,0-.75.58,31.39,31.39,0,0,1,7.86-1.32A16.29,16.29,0,0,1,1066.91,61.15Z" fill="#0057a6"/><path d="M1044.8,63.26a5.31,5.31,0,0,1-1.2,1.79,3.16,3.16,0,0,0,2.21-.78,16.87,16.87,0,0,1,2-2.07A6.41,6.41,0,0,0,1044.8,63.26Z" fill="#0057a6"/><path d="M1050.93,60.64l-.63.18a6.77,6.77,0,0,0-2.51,1.38c1.18-.17,2.46-.18,3.62-.31C1051,61.32,1050.86,60.92,1050.93,60.64Z" fill="#0057a6"/></g></svg>