<svg id="Layer_1" data-name="Layer 1" xmlns="http://www.w3.org/2000/svg" viewBox="0 0 16 16"><title>social media</title><path d="M13.76,3.66s-2.27-1.47-3.54-1.41L10,2.61s2.63.65,3.34,1.76a11.41,11.41,0,0,0-10.74,0A6.08,6.08,0,0,1,6,2.59l-.17-.34A8,8,0,0,0,2.24,3.7,19,19,0,0,0,.11,11.57a6.68,6.68,0,0,0,4.66,2.18L5.32,13s-2.57-1.07-3-2.05a10.32,10.32,0,0,0,11.46,0s-1.88,2-3,2.05l.56.77s3.24-.18,4.62-2.17C15.89,11.58,15.44,5.75,13.76,3.66Zm-8,6.52A1.43,1.43,0,0,1,4.37,8.69,1.43,1.43,0,0,1,5.73,7.21,1.43,1.43,0,0,1,7.09,8.69,1.43,1.43,0,0,1,5.73,10.18Zm4.55,0A1.43,1.43,0,0,1,8.92,8.69a1.43,1.43,0,0,1,1.36-1.48,1.42,1.42,0,0,1,1.35,1.48A1.42,1.42,0,0,1,10.28,10.18Z" fill="#236eb7"/></svg>