<svg id="Layer_1" data-name="Layer 1" xmlns="http://www.w3.org/2000/svg" viewBox="0 0 16 16"><title>social media</title><path d="M15.29,7.27c0-.78-.08-1.56-.17-2.34a2.36,2.36,0,0,0-.5-1.26A2,2,0,0,0,13.08,3c-1.76-.07-6.27-.14-6.76-.13C5.09,2.92,3.87,3,2.64,3A1.66,1.66,0,0,0,1.09,4.21,6.46,6.46,0,0,0,.81,5.53a25.17,25.17,0,0,0-.07,4A14.4,14.4,0,0,0,1,11.35a1.73,1.73,0,0,0,1.11,1.43,4.07,4.07,0,0,0,1,.2c.78.06,1.56.09,2.34.11,2.53.07,5.06.05,7.59-.1a2,2,0,0,0,1.61-.72,2.89,2.89,0,0,0,.52-1.45A23.41,23.41,0,0,0,15.29,7.27ZM6.5,9.89V5.77l3.95,2.07Z" fill="#236eb7"/></svg>