<svg xmlns="http://www.w3.org/2000/svg" width="728" height="458"><path fill-rule="evenodd" clip-rule="evenodd" fill="#61EFFD" fill-opacity=".24" d="M71.3 206.4l-1.8.8-.5 1.8.6 1.7 1.8.7 1.7-.8.9-1.6-.8-1.8-1.9-.8z"/><path fill-rule="evenodd" clip-rule="evenodd" fill="#535FD7" fill-opacity=".24" d="M63.1 172.4l-1.8.8-.5 1.8.6 1.7 1.8.7 1.7-.8L66 175l-.8-1.8-2.1-.8z"/><g fill="#1C3D48" opacity=".85"><path d="M136.6 413.5c2.4.5 4.9.9 7.3 1.4-1.2-.6-2.3-1.4-3.4-2.6-1.5-.9-2.5.3-3.9 1.2zM150.7 416.2c.4.1.9.2 1.3.2.4-.1.8-.2 1.2-.4-.9.1-1.7.2-2.5.2zM163.7 416.2c-2.2-.6-4.4-.6-6.6-.5 1.8.7 4 .9 6.6.5zM153.6 413.6c.7 1 1 1.9-.4 2.4h-.1c1.3-.1 2.6-.2 4-.3-1.3-.5-2.5-1.2-3.5-2.1z"/><path d="M153.6 413.6c-.7-.9-1.8-1.8-2.1-2.4.6.9 1.3 1.7 2.1 2.4zM159.3 393.6c1.3-.5.3 5.3 3 4.2 6-1 11.1-3.2 16.4-2.7 2.5-1.2 6 5.6 8.5 4.4 2.9-.6 8.2-2.8 11.5-4.8 3.3-2.1 4.8-3.9.6-3.8-6.4.2-11.8.6-17 .9-5.2.3-10.3.5-16.1.5-9.7 1.3-19.1 2.9-29.2 3.4-2.8-.2-5.2-1.1-7.7-1.9 3.2 1.5 6.4 3 10.1 4.4 4.8 2.3 12-4.2 19.9-4.6zM84.2 398.4c1.4-.3 4.2-.8 4.2-.8 4.4 5.6 10.7 5.5 16.9 5.2-.6-1.1-1.3-2.3-1.9-3.4-3.4-.5-4.2 1-1.5 3-6-5.1-12.1-7.2-18.7-8.6 0 1.5-.6 3.3 1 4.6zM79.3 393c1.3.2 2.6.5 3.9.7v-.5c-1.4-.1-2.7-.2-4-.4.1.1.1.1.1.2z"/><path d="M191.2 412.9c17 .5 32.9.5 48.5-.2 1.1-1.2 1.8-2.6 3.5-2.1 1.3.9 2.6 1.4 3.8 1.7 2.3-.1 4.6-.3 6.8-.4.8-.2 1.6-.5 2.3-.7h.1c1.2-.8.7-1.7-.2-2.4-.9-.5-1.8-1.1-2.6-1.8.5.4 1.7 1.1 2.6 1.8 1.2.6 2.4 1 3.8 1.1 2-.6 4.1-1.1 6.4-1.2-2.4 1.1-4.5 1.4-6.4 1.2-1.3.4-2.5.9-3.7 1.3-.3.2-.7.4-1 .7 2.6-.2 5.2-.4 7.8-.7 2.6-.2 5.2-.5 7.8-.8 1.2-.3 2.3-.7 3.1-1.1 1.8-.7 3.6-1.4 5.2-1.7 1.7-.3 3.3-.1 4.7 1 .9-.1 1.8-.3 2.8-.4-.2-.1-.4-.2-.6-.4l1.2.3c3.9-.7 7.8-1.3 11.7-2.1l3.3-2.7c1.1-.9 2.2-1.8 3.4-2.6 0 0 2.3 1.4 3.4 2 .6-1.7 1.8-3.1 3.3-4.1-1.3-.5-2.5-1-3.7-1.6-1.2-.5-2.3-1-3.3-1.3-1.7-1-2.6.8-3.8 2.3-1.1 1.5-2.5 2.7-4.7.5 2.2 2.2 3.5 1.1 4.7-.5 1.1-1.5 2.1-3.3 3.8-2.3 1 .3 2.1.8 3.3 1.3 1.2.5 2.4 1.1 3.7 1.6 1.6-1.1 3.6-1.7 5.8-2 2.2-.3 4.6-.1 6.9.5-1.9 2-4 2.8-6.2 2.9-2.2.1-4.4-.6-6.6-1.4-1.6 1-2.7 2.4-3.3 4.1-1.1-.7-3.4-2-3.4-2-1.1.8-2.3 1.7-3.4 2.6l-3.3 2.7c3.8-.7 7.7-1.7 11.5-2.5 3.8-1 7.7-2 11.6-3.2 12.6-3.6 24.7-8.2 36.2-13.9 11.5-5.7 22.5-12.4 32.9-20 20.8-15.2 39.3-34 55.9-56.2 1.2-1.5 2.2-3 3.4-4.5l3.3-4.5c2-2.7 4.1-5.5 6.1-8.2l6.3-7.8c2.2-2.5 4.3-5 6.5-7.4 8.9-9.5 18.4-18 28.4-25 1.3-.8 2.5-1.7 3.7-2.5l1.8-1.3 1.9-1.2c1.2-.8 2.4-1.6 3.7-2.5 1.2-.8 2.5-1.6 3.7-2.3l1.8-1.2 1.8-1.1c1.2-.7 2.4-1.5 3.6-2.2 2.5-1.4 4.9-2.8 7.4-4.1 2.4-1.4 4.9-2.5 7.4-3.8 1.2-.6 2.5-1.1 3.7-1.7 1.2-.6 2.5-1.1 3.8-1.6 2.5-1.1 5.1-1.9 7.6-2.8 2.6-.8 5.1-1.6 7.8-2.3 10.4-2.7 21.3-3.7 32.3-2.7 10.9 1 21.9 4.3 32.2 9.9 4 2.1 8.9 4 14.2 6 5.3 2 11.2 4 17 6.2 11.6 4.4 23.2 9.4 30.7 13.5 6.1.8 10.8-.1 14.5-2.1 1.9-1 3.5-2.2 4.9-3.6 1.4-1.4 2.5-3 3.7-4.5 4.7-6 5.2-13.7 5.1-14.6-.5-6.7-2.3-11.7-4.9-15.6-2.6-3.9-6.1-6.9-10.2-9.8-4.2-2.9-9-5.6-14.7-9.2-5.7-3.5-12.1-7.9-19.9-13.7 5.4 3.7 6.6 6 5.2 7-1.3 1-5.2.7-10.3-.6-5.1-1.3-11.4-3.4-17.8-6.2-6.4-2.8-13-6.4-18.5-10.8-8-6.7-18-10.5-29.1-11.9-11-1.4-23-.3-34.8 2.5-11.8 2.9-23.5 7.4-34.6 12.6-11.1 5.2-21.6 10.9-32 16-10.5 5.1-19.6 13.4-29.7 22.1-1.8 1.3-3.4 2.7-5.2 4l-2.5 2.1-2.4 2.1c-1.6 1.4-3.2 2.9-4.8 4.3l-4.5 4.5-2.2 2.3-2.1 2.3c-1.4 1.6-2.8 3.1-4.2 4.7-1.4 1.6-2.7 3.2-4 4.8-1.3 1.6-2.6 3.2-3.9 4.9-2.4 3.3-5 6.6-7.2 10l-3.4 5.1c-1.1 1.7-2.1 3.4-3.2 5.2l-3.1 5.1-2.4 4.1c-1.5 2.7-3.3 5.4-4.9 8l-1.2 2-1.3 1.9-2.6 3.9c-.9 1.3-1.8 2.6-2.7 3.8-.9 1.3-1.9 2.5-2.8 3.8-3.9 4.9-7.9 9.9-12.3 14.5-4.3 4.7-9.1 9-14.1 13.2-2.6 2-5.1 4.1-7.9 5.9-1.4.9-2.7 1.9-4.1 2.8-1.4.9-2.8 1.8-4.3 2.7-1.5 1-3 1.9-4.3 3-1.4 1-2.7 2.1-4.1 3.2l-3.9 3.3c-1.3 1.1-2.6 2.2-3.8 3.3-.6.6-1.3 1.1-1.9 1.7-.6.6-1.3 1.1-1.9 1.7-1.3 1.1-2.5 2.2-3.8 3.3-1.3 1.1-2.6 2.1-3.8 3.1-.6.5-1.3 1-1.9 1.5-.7.5-1.3.9-2 1.4-2.1 1.1-4.2 2-6.5 2.6-2.3.7-4.5 1.3-6.8 1.7-4.5.9-8.9 1.5-12.5 2.5-11.4 3.2-21 7.3-30.6 11.4 1.4-.4 2.7-.7 4-1.1 1.3-.4 2.5-.8 3.7-1.1l3.6-1.2c1.2-.4 2.4-.8 3.5-1.2l3.6-1.2c1.2-.4 2.4-.9 3.7-1.3 2.5-.9 5.2-1.8 8.1-2.9 2-.6 2.7-.4 2.7.3 0 .8-.8 2-2.1 3.5-1.2 1.4-2.9 3-4.6 4.5-1.7 1.4-3.4 2.6-4.7 3.3-1 .9-2.8 0-4.6-.9-1.8-.9-3.5-1.9-4.5-1-2.5.5-4.8 1.6-7.2 2.9-2.4 1.3-4.8 2.7-7.4 4-2.2 1.6-2.8-4.2-3.8-3.4-3.7 1.2-6.8 3.7-9.6 5.9-2.9 2.1-5.5 3.8-8 3.2-1.9-.3-3.7-.6-5.5-.9-1.8-.3-3.5-.7-5.1-1.1-2.1-.2-4.2-.4-6.4-.1-1.4.5-2.8 1.1-4.2 1.6 1.2 1.8 1.6 3.9 2.1 6.1-2.1-.3-5.1-1.5-7.2-1.8 2.1.3 5 1.5 7.2 1.8-.4-2.2-.9-4.3-2.1-6.1-10.2 3.6-22.3 6.5-33.7 8.3 0 .2.1.4.1.5 6.6-.2 13 .6 19.8 4.2-3-1.3-2.6-2.9.8-3.2.9 1 1.7 2 2.6 2.9-3 .8-6 1.6-8.9 1.6-2.9 0-5.8-.7-8.5-3l-3.9 1.8c-1.8-.9-1.6-2.7-1.9-4.3-1.3 0-2.6.1-3.9.2 1.3 1.5 4 3.4 6.5 4.8 2.1 1.8 4.3 2.9 4.3 2.9z"/><path d="M260.1 410c-.9.3-2 .6-3.1.9 2.2-.2 4.4-.3 6.5-.5 2.2-.2 4.4-.4 6.5-.6-2.7-2.5-6.3-1.1-9.9.2z"/></g><g fill="#1C3D48" opacity=".8"><path d="M666.8 179.8c-.8.2-1.4.4-2.1.6-.7.2-1.3.4-1.9.7-2 .7-4-.2-5.9-.5-1-.2-1.8-.3-2.7-.4-1.8-.8-3.5-1.5-5.3-1.9-.2-.1-.7-.5-.9.5-1.7-1-3.1-2.2-4.9-2.2-.7-.1-1.1-1.2-1.8-1.3-1.2-.1-1.9-1.5-2.9-1.8-.2.1-.7.4-.8.3-1-1.6-2.9-.7-4.5-.8-.6-.1-1.1-.1-1.6-.4-.3.4-.3.2-.6.3-.4-.2-1.9-2.3-1.8-3 .1-.1 1.1.4 2.2.8s2.2.8 2.3.5c0-.3-2.7-1.4-2.8-1.6 3 .2 4.8.1 5.9 0 1.1-.1 1.4-.2 1.3-.3-.3-.2-2.5-.3-4.3-.2-.4-.3-1.4 0-2.3-.4.7 0 2.5-.9 2.8-.9 1.4-.1 1.6-.7 2.8 0 1 .6 3.4.2 4.3.2-.8.5-2.5 1.7-3.2 1.2 1.1 1.5 2.6-1.2 4-.3.1 0 .4 0 .6-.1.1.2.3.3.4.5 1.3.6 2.6.2 3.8.9-.1 0 0-.5-.1-.6-.8-1.2-2-.4-3.1-1.1-.2-.2-.7.4-1 .3-.5-.1-.7-.8-1-1.2 1.1-.2 2 .3 3 .5.2 0 .6-.4.8-.6-.4-.2-.8-.4-1.2-.5-1.5-.3-4.4.9-4.9-.8 0 0-.1 0-.2.1v-.1c-.2-.1-.4-.3-.5-.7l.5.4c2.1-.8 3.5.7 5.3.7.4-.1.7.9 1.2.8 1.2-.1 2.2.4 3.1 1.3 1.7 1.4 3.5 2.9 5.4 4.1 2 1.3 4.2 2.5 6.9 3.4.1 0 .2-.1.3-.1l-.2-.3c.1.1.3.1.4.2.6-.2 1.2-.2 2 .1.4.2-.4.2-.5.6h.3s0 .2.1.4c.1-.1.2.1.4.2-1.4.6-2.9 1-4.4 1.1.3.6.7.4.9.4.5-.2.9-.4 1.4-.4.6-.2 1.3-.2 2.1-.1.4 0 .8 0 1.1.1.4 0 .7 0 1.1-.1.3.1.6.1 1 .2.2.1.3.4.2.6 0 .5-.2.7-.5.7zm-17.7-7.9c.2.4.5.8.7 1.3.1.1.2.1.3.2.1.1.3.1.5.1.6.5 1.1 1 1.7 1.4-.5-1-1.1-1.8-1.8-2.2 1.9.5 3.4 2.9 5.6 4.3.6.2 1.3.3 2 .4.5 0 .9-.2 1.4-.3-3.1-.8-5.7-2.7-7.9-4.5-2.2-1.8-4.1-3.7-6.3-4.8 1.2 1.5 2.5 2.6 3.8 4.1zm-.7.5c-.6-.3-1.2-.5-1.9-.6-1.7-.7-3.4-1.5-5-.6 1.7.1 3.4.2 5 .6-1.5-.7-.5 0 1.6.6 0-.1.1-.1.3 0z"/><path d="M658 174.5c.4.3.8.6 1.3.9.5.3.9.5 1.4.8-.5-.6-.9-1.2-1.3-1.6-1.1-1-2.1-1-3-1.8-1.3-1.1-2.5-2-3.6-2.7-1.2-.8-2.3-1.4-3.5-1.9-.1-.1-.4-.3-.6-.2 1.4 1.1 2.8 2 4.3 3.1 1.6 1 3.1 2.1 5 3.4zM645.2 165.5c-.5 0-1 0-1.4-.2.2.6.7.9 1.1 1.1.6.1 1.3.3 1.9.5-.5-.6-1-1.1-1.6-1.4z"/><path d="M648.7 168l-.3-.3c-.5-.4-1.1-.7-1.7-.9.5.6 1 1.3 1.5 1.9.2-.4.4-.6.5-.7z"/></g><linearGradient id="a" gradientUnits="userSpaceOnUse" x1="282.893" y1="347.308" x2="679.753" y2="347.308" gradientTransform="matrix(-1.173 .01098 -.01142 -1.2196 819.965 617.69)"><stop offset=".146" stop-color="#8d9295" stop-opacity=".7"/><stop offset=".229" stop-color="#999c9f" stop-opacity=".629"/><stop offset=".381" stop-color="#aaabac" stop-opacity=".498"/><stop offset=".495" stop-color="#b0b0b1" stop-opacity=".4"/><stop offset=".544" stop-color="#b2b1ab" stop-opacity=".4"/><stop offset=".607" stop-color="#b8b69b" stop-opacity=".4"/><stop offset=".678" stop-color="#c1bd81" stop-opacity=".4"/><stop offset=".755" stop-color="#cec65c" stop-opacity=".4"/><stop offset=".836" stop-color="#ded22d" stop-opacity=".4"/><stop offset=".903" stop-color="#eede00" stop-opacity=".4"/></linearGradient><linearGradient id="b" gradientUnits="userSpaceOnUse" x1="18.126" y1="251.977" x2="415.443" y2="251.977" gradientTransform="matrix(1.1731 .00044 .00044 1.2197 -2.874 -107.297)"><stop offset=".13" stop-color="#eede00" stop-opacity=".4"/><stop offset=".495" stop-color="#b0b0b1" stop-opacity=".4"/><stop offset=".639" stop-color="#aaabac" stop-opacity=".498"/><stop offset=".824" stop-color="#9a9da0" stop-opacity=".623"/><stop offset=".938" stop-color="#8d9295" stop-opacity=".7"/></linearGradient><path fill="url(#a)" stroke="url(#b)" stroke-width="1.009" stroke-miterlimit="10" d="M484.1 188.9s-8.3-12.3-10.8-22.5C449.6 69.9 362.2 61 264.7 65.9c-18.9.9-35.2-1.4-39-11.2-10.1-26.3-63.6-34.1-63.6-34.1S8.3 169.2 19.7 260.5c20.9 167.4 283.2 132 347.2 54.5 24.9-30.2 79.1-122.3 117.2-126.1"/></svg>