<svg xmlns="http://www.w3.org/2000/svg" width="728" height="458"><path fill-rule="evenodd" clip-rule="evenodd" fill="#61EFFD" fill-opacity=".24" d="M71.3 206.4l-1.8.8-.5 1.8.6 1.7 1.8.7 1.7-.8.9-1.6-.8-1.8-1.9-.8z"/><path fill-rule="evenodd" clip-rule="evenodd" fill="#535FD7" fill-opacity=".24" d="M63.1 172.4l-1.8.8-.5 1.8.6 1.7 1.8.7 1.7-.8L66 175l-.8-1.8-2.1-.8z"/><g fill="#D21C8D" opacity=".8"><path d="M623.2 403.5c-.7.2-1.3.4-2 .6-.6.2-1.2.4-1.8.7-1.9.6-3.8-.1-5.6-.3-.9-.2-1.8-.2-2.6-.3-1.7-.7-3.4-1.3-5.3-1.7-.2-.1-.7-.5-.8.4-1.7-.9-3.1-2-4.8-2.1-.7-.1-1.2-1-1.8-1.2-1.2-.1-1.9-1.4-2.9-1.7-.2.1-.7.3-.8.2-1-1.4-2.9-.8-4.4-.9-.6-.1-1.1-.2-1.5-.4-.2.3-.3.2-.5.2-.4-.2-1.9-2.2-1.9-2.7.1-.1 1.1.4 2.2.8s2.1.8 2.2.6c0-.2-2.6-1.4-2.8-1.6 2.9.4 4.7.4 5.7.4s1.4-.1 1.2-.2c-.3-.2-2.4-.4-4.2-.4-.4-.3-1.3-.1-2.2-.5.7 0 2.3-.6 2.6-.6 1.4 0 1.5-.5 2.7.2 1 .6 3.3.3 4.3.5-.7.4-2.4 1.3-3 .8 1.2 1.4 2.4-.9 3.9-.1.1.1.3 0 .6 0 .1.1.3.3.4.5 1.3.5 2.6.3 3.8 1-.1 0-.1-.4-.2-.5-.9-1-2.1-.5-3.2-1.1-.2-.2-.7.3-.9.2-.5-.2-.8-.7-1.1-1.1 1.1-.1 2 .4 3 .6.2 0 .6-.3.8-.5-.4-.2-.8-.4-1.3-.5-1.5-.3-4.3.5-4.9-1 0 0-.1 0-.2.1v-.1c-.2-.1-.4-.3-.6-.6l.5.3c2.1-.5 3.5.8 5.3 1 .4-.1.8.8 1.2.8 1.2 0 2.2.5 3.2 1.3 1.8 1.3 3.6 2.5 5.6 3.6 2 1.1 4.2 2.1 6.9 2.8.1 0 .2-.1.3-.1l-.2-.2c.1.1.2.1.4.2.6-.2 1.2-.3 2 0 .3.2-.4.2-.5.5h.3s0 .2.1.4c.1-.1.2.1.3.2-1.4.5-2.8.9-4.2 1.1.2.5.7.3.9.4.5-.2.9-.4 1.4-.4.6-.2 1.3-.2 2-.2h1.1c.4 0 .7-.1 1-.2.3 0 .6.1.9.1.2.1.2.3.1.5-.2-.1-.4.1-.7.2zM606 397c.3.3.5.7.8 1.1.1.1.2.1.3.2.1.1.3.1.5.1l1.8 1.2c-.6-.8-1.1-1.6-1.8-1.9 1.9.5 3.5 2.5 5.6 3.7.6.2 1.3.3 2 .3.5 0 .9-.1 1.4-.3-3-.6-5.6-2.2-7.9-3.8-2.3-1.6-4.3-3.2-6.5-4.3 1.1 1.4 2.4 2.4 3.8 3.7zm-.7.4c-.6-.3-1.3-.5-1.9-.6-1.7-.7-3.4-1.5-5-.7 1.7.2 3.3.3 5 .7-1.5-.6-.5 0 1.6.6 0-.1.1-.1.3 0z"/><path d="M615 399.2c.4.3.8.5 1.3.7.4.2.9.4 1.4.7-.4-.5-.8-1-1.2-1.3-1.1-.8-2-.8-3-1.4-2.6-1.8-4.9-3-7.4-4-.1-.1-.4-.2-.6-.2 1.5 1 3 1.8 4.5 2.7 1.5.9 3.1 1.8 5 2.8zM601.7 391.4c-.5 0-1-.1-1.4-.3.2.5.8.8 1.2 1 .6.2 1.3.3 1.9.5-.5-.5-1.1-1-1.7-1.2z"/><path d="M605.5 393.7c-.1-.1-.2-.2-.4-.2-.5-.4-1.1-.6-1.7-.8.5.6 1.1 1.2 1.7 1.7 0-.5.2-.6.4-.7z"/></g><g fill="#ED801C" opacity=".8"><path d="M548.6 416.3c-.8.1-1.5.4-2.2.7-.5.2-1.1.2-1.6 0s-1-.4-1.6-.4c-.5-.1-.9-.2-1.4-.3-.5-.2-.9-.5-1.4-.7-.5-.2-.9-.3-1.4-.5-.1-.1-.3-.3-.5.3l-1.2-.9c-.4-.2-.8-.4-1.3-.4-.4-.1-.6-.7-.9-.8-.6 0-.9-.8-1.4-1-.1.1-.4.3-.4.3-.4-.9-1.5-.3-2.4-.2-.3 0-.6 0-.8-.2-.2.2-.2.2-.3.2-.2-.1-.9-1.3-.8-1.7.1-.1 2.2.9 2.3.5 0-.2-1.4-.7-1.4-.8 3.2-.2 4-.6 3.9-.6-.1-.1-1.3 0-2.3.1-.2-.2-.7.1-1.2-.1.4-.1 1.4-.7 1.5-.7.8-.1.9-.6 1.5-.2.5.3 1.7-.1 2.3-.1-.4.4-1.4 1.2-1.7.9.5.9 1.4-.9 2.1-.4.1 0 .2 0 .3-.1.1.1.1.2.2.3.6.3 1.3 0 1.9.4-.1 0 0-.3 0-.4-.3-.7-1-.2-1.5-.5-.1-.1-.4.3-.5.2-.2-.1-.3-.4-.5-.7.6-.2 1 .1 1.5.2.1 0 .3-.3.5-.4l-.6-.3c-.7-.1-2.3.8-2.5-.2 0 0-.1 0-.1.1v-.1c-.1 0-.2-.1-.2-.4l.3.2c1.2-.6 1.7.2 2.7.1.2-.1.3.5.5.4.6-.1 1.1.2 1.5.7.4.5.8.8 1.2 1.3.4.4.9.8 1.3 1.3.5.4 1 .9 1.6 1.2l.9.6c.3.2.7.3 1 .5.1 0 .1 0 .2-.1l-.1-.2c.1 0 .1.1.2.1.3-.1.6-.1 1.1.1.2.2-.2.1-.2.4h.2s0 .1.1.3c0-.1.1.1.2.2-.4.2-.8.3-1.1.4-.4.1-.8.2-1.2.2.1.4.4.3.5.3.3-.1.5-.3.8-.2.6-.2 1.6.1 2.4 0 .2.1.4.1.6.2.1.1.2.2.1.4-.4.4-.5.5-.7.5zm-9.2-5.3c.1.2.2.5.3.8 0 0 .1.1.2.1.1.1.1.1.2 0 .3.3.5.6.8.9-.3-.6-.5-1.1-.8-1.4.9.3 1.6 1.8 2.7 2.7.3.2.7.2 1 .3.3 0 .5-.1.7-.2-1.7-.6-2.9-1.8-4-2.9-1-1.2-1.9-2.2-2.9-2.9.6 1.1 1.2 1.7 1.8 2.6zm-.4.4c-.3-.2-.6-.3-.9-.3-.8-.4-1.6-.8-2.5-.1.9 0 1.7-.1 2.5.1-.7-.3-.2 0 .8.3 0-.1.1 0 .1 0z"/><path d="M543.8 412.6c.2.2.4.4.7.6.2.2.5.4.8.6-.3-.4-.5-.8-.7-1.1-.6-.7-1.1-.7-1.5-1.2-1.3-1.4-2.2-2.3-3.3-2.9 0-.1-.2-.2-.3-.1.6.6 1.3 1.2 2 1.8.3.3.7.6 1.1 1 .3.5.7.9 1.2 1.3zM537.7 407.1c-.3 0-.5 0-.7-.1.1.4.3.5.5.7.3.1.6.1.9.2-.2-.3-.4-.6-.7-.8zM539.4 408.6l-.2-.2c-.2-.2-.5-.4-.8-.5.2.4.4.8.7 1.1.1-.2.2-.4.3-.4z"/></g><g fill="#4A51AF" opacity=".8"><path d="M472.3 383.8c-.7.6-1.2 1.3-1.6 1.9-.4.5-.9.8-1.5.9-.6.1-1.2.2-1.7.4-.5.1-1 .3-1.4.5-.6 0-1.1 0-1.6.1l-1.5.3c-.1 0-.5-.1-.2.6-1.1-.1-2.1-.4-2.9.2-.3.2-.9-.4-1.2-.2-.5.4-1.3-.3-1.8-.1-.1.1-.2.6-.2.5-.9-.7-1.4.7-2.1 1.3-.3.2-.5.4-.8.4 0 .4-.1.3-.1.4-.2 0-1.5-.8-1.7-1.3 0-.2 2.4-.6 2.3-1-.1-.2-1.5.2-1.7.1 1.3-1.1 2-1.9 2.4-2.4.4-.5.5-.7.4-.7-.2 0-1.1.8-1.8 1.6-.3 0-.6.6-1.1.7.3-.3.8-1.7.9-1.8.6-.6.4-1.1 1.1-1.2.6 0 1.4-1.2 1.8-1.6-.1.7-.5 2.1-.9 2 .9.6.6-1.8 1.4-1.8.1 0 .1-.1.2-.3.1.1.2.1.3.2.7-.1 1.1-.8 1.7-.7 0 0-.2-.3-.3-.4-.7-.6-.9.4-1.5.4-.1-.1-.2.5-.3.6-.2.1-.5-.3-.8-.4.3-.6.9-.6 1.3-.8.1-.1.1-.5.1-.7-.2 0-.4 0-.6.1-.6.3-1.4 2.3-2.1 1.3v0c-.1 0-.2 0-.4-.2h.3c.6-1.4 1.5-.9 2.2-1.5.1-.2.6.4.7.1.4-.5.9-.5 1.6-.1.6.2 1.1.4 1.7.7.6.2 1.2.4 1.9.6.6.1 1.4.3 2.1.4.4 0 .8.1 1.2.1h1.3c0-.1.1-.1.1-.2l-.2-.1h.3c.2-.2.5-.4 1.1-.5.3 0-.1.2 0 .5.1 0 .2-.1.2-.1s.1.1.3.2c0-.1.2 0 .3 0-.2.4-.5.7-.8 1l-.9.9c.4.3.5.1.7 0 .1-.3.2-.6.5-.6.4-.6 1.6-.7 2.2-1.3.2-.1.4-.1.7-.1.1 0 .3.1.4.3.2.5.2.7 0 .8zm-11.6-.2c.2.2.5.4.8.6h.2c.1 0 .2 0 .2-.1.4.2.8.3 1.3.4-.6-.5-1.1-.9-1.6-1 .9-.2 2.5 1 4.1 1.3.4 0 .7-.2 1.1-.3.2-.1.4-.3.5-.6-1.9.3-3.7-.2-5.3-.8-1.6-.6-2.9-1.2-4.1-1.3.8.8 1.7 1.2 2.8 1.8zm-.2.6c-.3 0-.7.1-1 .2-.9.1-1.8.2-2.1 1.4.7-.6 1.4-1.1 2.1-1.4-.8.1-.2.1.8-.1.1-.1.2-.1.2-.1z"/><path d="M465.2 382.8c.3.1.7.2 1 .3.3.1.7.1 1.1.2-.5-.3-1-.5-1.4-.7-1-.4-1.4-.2-2.1-.4-2-.8-3.2-1.2-4.5-1.1-.1 0-.2-.1-.3.1.9.3 1.7.5 2.7.8.5.1 1 .3 1.5.5.7-.1 1.3.1 2 .3zM457 380.5c-.2.2-.4.4-.6.4.3.3.6.4.8.4.3-.1.5-.3.8-.3-.4-.3-.7-.5-1-.5z"/><path d="M459.1 381c-.1 0-.1 0-.2-.1-.3-.1-.6-.1-.9 0 .4.3.8.6 1.2.8-.1-.4-.1-.6-.1-.7z"/></g><g fill="#ED801C" opacity=".8"><path d="M698.8 419.6c-.7.2-1.3.4-1.8.6-.6.2-1.1.4-1.7.6-1.8.6-3.5 0-5.3-.1-.9-.1-1.7-.2-2.5-.3-1.7-.5-3.4-1.1-5.2-1.5-.2-.1-.7-.4-.8.3-1.6-.8-3.1-1.7-4.8-1.9-.7-.2-1.2-.9-1.9-1.1-1.1-.2-1.9-1.2-2.9-1.6-.2 0-.6.2-.7.1-1.1-1.2-2.8-.9-4.3-1.1-.6-.2-1-.2-1.5-.5-.2.2-.3.1-.5.1-.4-.2-2-2-2-2.4 0-.1 1 .4 2.1.9 1 .5 2.1.9 2.1.7 0-.2-2.6-1.4-2.8-1.6 2.7.6 4.5.8 5.5.9 1 .1 1.3 0 1.2 0-.3-.2-2.4-.5-4.1-.7-.4-.3-1.3-.2-2.1-.6.6.1 2.2-.3 2.4-.2 1.3.2 1.3-.3 2.6.4 1 .6 3.2.6 4.2.7-.7.3-2.2.9-2.9.4 1.3 1.2 2.3-.5 3.8.3.1.1.3.1.6 0 .2.1.3.3.5.4 1.3.5 2.6.5 3.8 1-.1 0-.1-.4-.2-.4-.9-.9-2.1-.5-3.2-1.1-.2-.2-.7.2-.9.1-.5-.2-.8-.6-1.2-1 1 0 2 .5 3 .7.2 0 .6-.2.8-.3-.4-.2-.9-.3-1.3-.5-1.6-.4-4.2.1-4.9-1.2h-.2v-.1c-.2-.1-.5-.2-.6-.5l.6.3c1.9-.3 3.5 1 5.3 1.2.4 0 .8.7 1.3.7 1.2.1 2.3.5 3.3 1.2 1.8 1.1 3.8 2.2 5.8 3.1 2.1.9 4.3 1.7 6.8 2 .1 0 .2-.1.3-.1l-.2-.2c.1 0 .2.1.3.1.6-.2 1.2-.3 1.9-.1.3.1-.4.2-.5.5h.3v.3c.1-.1.2 0 .3.1-1.3.5-2.7.9-4.1 1.1.2.4.6.2.8.2.5-.2.9-.3 1.3-.3.6-.2 1.2-.2 1.9-.3.3 0 .7 0 1-.1.3 0 .6-.1 1-.2.3 0 .5 0 .8.1.1.1.2.2.1.4-.1.3-.3.4-.6.5zm-16.7-4.9c.3.3.5.6.8.9.1.1.2.1.3.2.1.1.3.1.5.1.6.4 1.2.7 1.8 1-.6-.7-1.2-1.3-1.9-1.6 2 .5 3.6 2.1 5.7 3 .6.1 1.3.2 1.9.2.5 0 .9-.1 1.3-.3-2.9-.4-5.5-1.6-7.9-3-2.3-1.3-4.5-2.8-6.8-3.8 1.4 1.3 2.8 2.2 4.3 3.3zm-.7.2c-.6-.2-1.3-.4-1.9-.6-1.7-.6-3.5-1.4-4.9-.9 1.6.3 3.3.5 4.9.9-1.5-.6-.5 0 1.6.6h.3z"/><path d="M691.2 416.6c.4.2.8.4 1.2.5.4.2.9.3 1.3.5-.4-.4-.7-.7-1.1-1-1-.6-2-.6-3-1-2.7-1.4-5-2.4-7.6-3.4-.1-.1-.4-.2-.6-.2 1.6.9 3.1 1.6 4.7 2.3 1.6.8 3.2 1.6 5.1 2.3zM677.4 409.9c-.5-.1-1-.1-1.5-.3.3.5.8.7 1.3.9.7.2 1.3.4 1.9.6-.5-.5-1-.9-1.7-1.2zM681.4 412.1c-.1-.1-.2-.1-.4-.2-.6-.3-1.2-.6-1.8-.8l1.8 1.5c0-.4.2-.5.4-.5z"/></g><g fill="#1C3D48" opacity=".8"><path d="M666.8 372.4c-.8.2-1.4.4-2.1.6-.7.2-1.3.4-1.9.7-2 .7-4-.2-5.9-.5-1-.2-1.8-.3-2.7-.4-1.8-.8-3.5-1.5-5.3-1.9-.2-.1-.7-.5-.9.5-1.7-1-3.1-2.2-4.9-2.2-.7-.1-1.1-1.2-1.8-1.3-1.2-.1-1.9-1.5-2.9-1.8-.2.1-.7.4-.8.3-1-1.6-2.9-.7-4.5-.8-.6-.1-1.1-.1-1.6-.4-.3.4-.3.2-.6.3-.4-.2-1.9-2.3-1.8-3 .1-.1 1.1.4 2.2.8s2.2.8 2.3.5c0-.3-2.7-1.4-2.8-1.6 3 .2 4.8.1 5.9 0 1.1-.1 1.4-.2 1.3-.3-.3-.2-2.5-.3-4.3-.2-.4-.3-1.4 0-2.3-.4.7 0 2.5-.9 2.8-.9 1.4-.1 1.6-.7 2.8 0 1 .6 3.4.2 4.3.2-.8.5-2.5 1.7-3.2 1.2 1.1 1.5 2.6-1.2 4-.3.1 0 .4 0 .6-.1.1.2.3.3.4.5 1.3.6 2.6.2 3.8.9-.1 0 0-.5-.1-.6-.8-1.2-2-.4-3.1-1.1-.2-.2-.7.4-1 .3-.5-.1-.7-.8-1-1.2 1.1-.2 2 .3 3 .5.2 0 .6-.4.8-.6-.4-.2-.8-.4-1.2-.5-1.5-.3-4.4.9-4.9-.8 0 0-.1 0-.2.1v-.1c-.2-.1-.4-.3-.5-.7l.5.4c2.1-.8 3.5.7 5.3.7.4-.1.7.9 1.2.8 1.2-.1 2.2.4 3.1 1.3 1.7 1.4 3.5 2.9 5.4 4.1 2 1.3 4.2 2.5 6.9 3.4.1 0 .2-.1.3-.1l-.2-.3c.1.1.3.1.4.2.6-.2 1.2-.2 2 .1.4.2-.4.2-.5.6h.3s0 .2.1.4c.1-.1.2.1.4.2-1.4.6-2.9 1-4.4 1.1.3.6.7.4.9.4.5-.2.9-.4 1.4-.4.6-.2 1.3-.2 2.1-.1.4 0 .8 0 1.1.1.4 0 .7 0 1.1-.1.3.1.6.1 1 .2.2.1.3.4.2.6 0 .4-.2.6-.5.7zm-17.7-8c.2.4.5.8.7 1.3.1.1.2.1.3.2.1.1.3.1.5.1.6.5 1.1 1 1.7 1.4-.5-1-1.1-1.8-1.8-2.2 1.9.5 3.4 2.9 5.6 4.3.6.2 1.3.3 2 .4.5 0 .9-.2 1.4-.3-3.1-.8-5.7-2.7-7.9-4.5-2.2-1.8-4.1-3.7-6.3-4.8 1.2 1.5 2.5 2.6 3.8 4.1zm-.7.5c-.6-.3-1.2-.5-1.9-.6-1.7-.7-3.4-1.5-5-.6 1.7.1 3.4.2 5 .6-1.5-.7-.5 0 1.6.6h.3z"/><path d="M658 367c.4.3.8.6 1.3.9.5.3.9.5 1.4.8-.5-.6-.9-1.2-1.3-1.6-1.1-1-2.1-1-3-1.8-1.3-1.1-2.5-2-3.6-2.7-1.2-.8-2.3-1.4-3.5-1.9-.1-.1-.4-.3-.6-.2 1.4 1.1 2.8 2 4.3 3.1 1.6 1.1 3.1 2.2 5 3.4zM645.2 358.1c-.5 0-1 0-1.4-.2.2.6.7.9 1.1 1.1.6.1 1.3.3 1.9.5-.5-.6-1-1.2-1.6-1.4z"/><path d="M648.7 360.6l-.3-.3c-.5-.4-1.1-.7-1.7-.9.5.6 1 1.3 1.5 1.9.2-.4.4-.6.5-.7z"/></g><g fill="#4A68AF" opacity=".8"><path d="M617 331.1c-1 .1-1.8.5-2.6.8-.6.2-1.3.2-2 0-.6-.2-1.3-.4-1.9-.5-.6-.1-1.2-.2-1.7-.3-.6-.3-1.1-.6-1.7-.8-.6-.2-1.1-.4-1.7-.5-.1-.1-.4-.4-.6.4-.5-.4-1-.8-1.5-1.1-.5-.3-1-.5-1.6-.4-.5-.1-.7-.8-1.1-.9-.8 0-1.2-1-1.8-1.2-.1.1-.5.4-.5.3-.6-1.1-1.9-.3-2.9-.2-.4 0-.7 0-1-.2-.2.3-.2.2-.4.3-.3-.1-1.1-1.6-1.1-2.1.1-.2 2.8 1 2.9.6 0-.2-1.7-.8-1.8-1 2-.1 3.2-.3 3.9-.5.7-.2.9-.3.8-.3-.2-.1-1.6 0-2.8.2-.2-.2-.9.1-1.5-.1.5-.1 1.7-.9 1.9-.9.9-.2 1.1-.7 1.8-.3.6.3 2.1-.2 2.8-.2-.5.5-1.7 1.5-2.1 1.2.7 1.1 1.7-1.1 2.6-.6.1 0 .2 0 .4-.1.1.1.2.2.2.4.8.3 1.6 0 2.3.4-.1 0 0-.4-.1-.5-.5-.9-1.2-.2-1.9-.6-.1-.2-.5.4-.6.3-.3-.1-.4-.5-.6-.8.7-.3 1.3.1 1.9.1.1 0 .4-.4.5-.5-.2-.1-.5-.2-.7-.3-.9-.1-2.8 1.1-3-.2 0 0-.1 0-.1.1v-.1c-.1 0-.3-.2-.3-.4l.3.2c1.4-.8 2.2.2 3.3.1.3-.1.4.6.7.5.8-.2 1.3.1 1.8.8l1.5 1.5c.5.5 1.1 1 1.7 1.5.6.5 1.3 1 2 1.4.4.2.8.5 1.1.7.4.2.8.4 1.3.6.1 0 .1-.1.2-.1l-.2-.2c.1.1.2.1.3.2.4-.1.8-.1 1.3.1.3.2-.3.1-.3.5h.2s0 .2.1.3c0-.1.2.1.3.2-.2.1-.5.2-.7.3l-.7.2c-.5.1-.9.3-1.4.3.2.5.5.3.6.4.3-.2.6-.4.9-.3.8-.2 1.9.2 2.9 0 .2.1.4.1.7.2.1.1.2.3.2.5-.1.4-.3.6-.5.6zm-11.4-6.3c.1.3.3.6.4 1 .1 0 .1.1.2.2s.2.1.3 0c.3.4.7.7 1.1 1.1-.3-.8-.6-1.4-1.1-1.7.6.2 1.1.7 1.6 1.4.5.6 1.1 1.4 1.8 1.9.4.2.8.2 1.3.3.3 0 .6-.1.9-.2-2-.7-3.6-2.1-4.9-3.5-1.3-1.4-2.4-2.7-3.7-3.4.6 1 1.3 1.8 2.1 2.9zm-.5.4c-.4-.2-.8-.3-1.1-.4-1-.4-2.1-.9-3.1-.1 1.1-.1 2.1-.1 3.1.1-.9-.4-.3 0 1 .4h.1z"/><path d="M611 326.6c.5.6 1.1 1 1.8 1.4-.3-.5-.6-.9-.9-1.3-.7-.8-1.3-.9-1.9-1.4-1.6-1.7-2.8-2.8-4.2-3.4-.1-.1-.2-.2-.4-.1.8.7 1.6 1.4 2.5 2.2.5.4.9.8 1.4 1.2.6.4 1.1.8 1.7 1.4zM603.4 320c-.3 0-.6.1-.9-.1.1.5.4.7.6.8.4.1.8.1 1.1.2-.2-.3-.4-.7-.8-.9z"/><path d="M605.5 321.7l-.2-.2c-.3-.3-.6-.4-1-.6.3.5.6.9.9 1.4.1-.3.2-.5.3-.6z"/></g><g fill="#1C7766" opacity=".8"><path d="M723.3 282.1c-1-.2-1.9-.2-2.7-.2-.7 0-1.3-.3-1.8-.7-.5-.4-1-.9-1.6-1.2-.5-.4-1-.6-1.5-.9-.4-.5-.8-.9-1.3-1.4-.4-.4-.9-.8-1.4-1.1-.1-.1-.3-.5-.7.2-.4-.5-.7-1.1-1-1.5-.4-.4-.8-.8-1.3-1-.4-.2-.4-1-.7-1.2-.7-.3-.7-1.3-1.3-1.7-.2 0-.6.2-.6.1-.1-1.3-1.6-.9-2.7-1.3-.4-.2-.7-.2-.9-.5-.3.2-.3.1-.5.1-.2-.2-.5-1.9-.2-2.4.2-.1 2.2 2 2.5 1.6.1-.2-1.3-1.4-1.3-1.6 1.9.6 3.1.8 3.8 1 .7.1 1 .1.9 0-.1-.2-1.5-.6-2.7-.8-.1-.3-.9-.2-1.3-.6.5.1 1.9-.2 2.1-.2.9.2 1.2-.3 1.8.4.5.5 2.1.6 2.6.8-.6.3-2.1.8-2.4.3.2 1.2 2-.4 2.6.4.1.1.2.1.4 0 0 .1.1.3.1.4.6.6 1.5.6 2 1.2-.1 0 .1-.4.1-.5-.1-1-1.1-.6-1.5-1.3 0-.2-.6.2-.7.1-.3-.2-.2-.6-.3-1 .8 0 1.2.5 1.7.8.1 0 .5-.2.7-.3-.2-.2-.4-.4-.6-.5-.8-.4-3 0-2.8-1.3h-.1v-.1c-.1-.1-.2-.2-.1-.5l.2.3c1.6-.2 1.9 1 3 1.3.3 0 .2.7.4.7.8.1 1.2.6 1.4 1.4.3.7.5 1.3.8 2 .3.6.6 1.3 1 2 .4.6.8 1.4 1.3 2 .3.3.5.7.8 1.1.3.3.6.7 1 1h.2l-.1-.3c.1.1.1.2.2.3.4.1.8.2 1.2.6.2.3-.3 0-.4.3.1.1.2.1.2.1v.4c.1-.1.1.1.2.3h-.7l-.7-.1c-.5-.1-1-.1-1.4-.2 0 .5.3.5.4.6.3-.1.7-.1 1 .1.8 0 1.7.8 2.6 1.1.2.1.4.3.5.5.1.1.1.3 0 .5 0 .4-.2.5-.4.4zm-8.3-10v1c0 .1.1.1.1.2s.1.1.2.1c.2.5.4.9.6 1.4 0-.8-.1-1.5-.4-2 .5.4.8 1 1 1.9.3.8.6 1.7 1 2.5.3.3.7.5 1.1.7.3.1.6.1.9.1-1.6-1.4-2.6-3.3-3.3-5-.7-1.8-1.3-3.4-2.2-4.5.3 1.3.7 2.3 1 3.6zm-.6.3c-.3-.3-.6-.6-.9-.8-.8-.8-1.6-1.6-2.9-1.2 1 .3 2 .7 2.9 1.2-.7-.7-.3-.1.8.7 0 0 .1 0 .1.1z"/><path d="M719.4 275.7c.3.7.7 1.3 1.1 2-.1-.6-.2-1.1-.4-1.6-.4-1-.9-1.3-1.2-2-.9-2.2-1.6-3.6-2.7-4.7 0-.1-.1-.3-.3-.2.5 1 1 1.9 1.5 3 .7 1 1.2 2.2 2 3.5zM714.7 266.9c-.3-.1-.6-.2-.8-.4-.1.5.1.8.3 1 .3.2.7.4 1 .6-.1-.5-.2-.9-.5-1.2z"/><path d="M716 269.3c0-.1-.1-.2-.1-.2-.2-.4-.4-.6-.7-.9.1.5.2 1.1.3 1.6.2-.4.4-.5.5-.5z"/></g><g fill="#EE801C" opacity=".8"><path d="M47.8 87.8c-.2-.2-.4-.3-.7-.1-.2.1-.4-.1-.7-.3-.3-.1-.6-.3-.9-.4-.3-.1-.6 0-.9.1-.4-.1-.8-.1-1.2-.1-.4 0-.8.2-1.1.4-.1 0-.4 0 0 .6-.5 0-.9.1-1.3.2s-.7.4-.9.8c-.2.3-.9.1-1.1.4-.2.6-1.2.4-1.5.9 0 .1.2.5.1.5-1.1.1-.7 1.4-.7 2.2-.1.3-.1.6-.3.8.4.2.4.3.4.4-.1.2-1.4.6-1.8.4-.3 0 1-2 .7-2.2-.2-.1-.9 1.2-1 1.3.1-3.3.3-4.4.1-4.2-.1.1-.4 1.4-.4 2.5-.2.2 0 .8-.3 1.2-.1-.4-.6-1.6-.6-1.8 0-.9-.4-1.1.2-1.7.5-.5.5-2 .8-2.6.2.6.7 2 .3 2.2 1.1-.3-.4-1.8.4-2.5.1-.1.1-.2.1-.4.1 0 .3-.1.4-.1.6-.6.8-1.4 1.6-1.8 0 .1-.3-.2-.4-.2-1 0-.9 1-1.6 1.4-.2 0 .1.6 0 .7-.2.2-.7.2-1 .3.1-.7.7-1.2 1.1-1.7.1-.1-.1-.5-.1-.7-.3.2-.5.4-.7.6-.7.9-.4 3-1.6 2.9v.1h-.1c-.1.1-.2.2-.5.2l.3-.3c-.2-1.6 1.1-2.1 1.6-3.2.1-.3.8-.2.9-.5.3-.8 1.1-1.2 2-1.3.8-.2 1.6-.3 2.4-.3.8 0 1.6-.1 2.4 0 .8.1 1.6.2 2.3.5.4.1.7.3 1.1.4.3.2.7.4 1 .6 0 0 .1 0 .1-.1l-.1-.2.2.2c.3-.1.5 0 .8.4.1.3-.2 0-.2.3.1 0 .1.1.1.1v.3c0-.1.1.1.1.2h-.3l-.3.1c-.2.1-.5.1-.7.1.2.4.3.3.4.4.1-.1.3-.2.4-.1.4-.2.8.7 1 .8 0 .1.1.3.1.4.1.1 0 .3-.1.5-.2.4-.3.5-.3.4zm-8.6-3.6l.9.3h.2c.1 0 .2-.1.2-.2.5 0 .9.1 1.4.1-.6-.4-1.3-.7-1.8-.5.5-.3 1.3-.2 2 0s1.5.6 2.1.9c.3 0 .6.1.9.1.2 0 .4-.2.5-.3-1.4-.6-3.3-1.1-5.2-1.2-1.9-.1-3.8.2-5.2 1.2 1.6-.2 2.7-.5 4-.4zm0 .6c-.4.2-.7.4-1 .7-.9.6-1.9 1.3-1.6 2.5.4-.9.8-1.8 1.6-2.5-.8.5-.2.2.9-.5 0-.2.1-.2.1-.2z"/><path d="M44.7 82.8c.3.2.6.4.8.6.3.2.5.4.7.7-.2-.5-.5-.9-.7-1.2-.7-.7-1.3-.6-2.1-.9-2.2-.8-4.4-.5-6.1.4-.1 0-.3.1-.4.3 1.3-.4 2.5-.6 3.8-.7.6 0 1.3 0 2 .2.7 0 1.4.2 2 .6zM34 83.9c-.2.3-.3.7-.6.9.5 0 .8-.2 1.1-.4.3-.4.6-.7 1-1-.6 0-1.1.2-1.5.5z"/><path d="M37 82.6c-.1 0-.2.1-.3.1-.5.1-.9.4-1.2.7.6-.1 1.2-.1 1.8-.2-.3-.3-.4-.5-.3-.6z"/></g><g fill="#D21C8D" opacity=".8"><path d="M33.9 64.6c-.4-.2-.8-.3-1.2-.1-.3.1-.6-.1-1-.3-.4-.2-.8-.4-1.2-.5-.4-.1-.8 0-1.2 0-1-.3-2-.3-2.9.1-.1 0-.5-.1-.1.7-1.1-.1-2.3-.1-2.9.8-.3.3-1 0-1.3.3-.4.6-1.5.3-1.9.8 0 .2.1.6 0 .6-1.3-.1-1.1 1.5-1.3 2.5-.1.3-.2.7-.4.8.2.3.1.3.2.5-.2.2-1.8.5-2.1.2-.3-.1 1.5-2.2 1.2-2.5-.2-.1-1.3 1.3-1.5 1.3.4-1.9.7-3.2.9-4 .2-.8.2-1 .1-1-.2.1-.8 1.6-1 2.9-.3.2-.2 1-.6 1.4 0-.5-.4-2-.3-2.2.2-1-.3-1.3.5-2 .6-.5 1-2.3 1.4-2.9.1.8.4 2.4-.1 2.6 1.4-.1-.1-2.2 1-2.8.1-.1.1-.2.2-.4h.5c.9-.5 1.3-1.6 2.3-1.9-.1.1-.3-.3-.4-.3-1.2-.2-1.3 1-2.2 1.4-.2 0 0 .7-.2.8-.3.3-.8.1-1.2.2.3-.9 1-1.3 1.6-1.8.1-.1 0-.6 0-.9-.3.2-.7.4-1 .6-.5.5-.8 1.3-1.1 2-.3.7-.7 1.3-1.4 1.1v.2h-.1c-.1.1-.3.2-.6.2l.4-.3c.1-1.9 1.7-2.3 2.6-3.5.2-.3 1-.1 1.1-.4.5-.9 1.5-1.2 2.6-1.2 1.9-.1 3.8-.1 5.7.3.5.1.9.2 1.4.3.5.1.9.3 1.3.5.9.3 1.7.8 2.4 1.4.1 0 .1 0 .2-.1h-.2l.2.2c.3-.1.7.1 1 .5.1.3-.2 0-.3.3l.1.1v.4c0-.1.1.1.1.3-.6-.1-1.3.2-2 .2.2.5.3.4.4.4.2-.1.4-.3.6-.1.3-.1.6.1.8.3.3.2.5.5.7.7.1.1.2.3.2.5.4.4.1 1 0 .8zm-10.6-5.1c.3.1.7.3 1 .5h.3c.1 0 .2 0 .3-.2.6.1 1.1.2 1.6.3-.7-.5-1.4-.9-2-.9.7-.2 1.6-.1 2.4.3.9.4 1.7.9 2.4 1.3.4.1.8.1 1.2.1.3 0 .5-.2.7-.3-1.7-.8-3.9-1.6-6.1-2-2.2-.4-4.5-.3-6.4.6H21c.8.2 1.5.2 2.3.3zm-.1.7c-.5.1-.9.4-1.3.6-.6.2-1.2.5-1.7 1-.5.4-.8 1-.7 1.7.6-1 1.4-2 2.4-2.7-1.1.5-.3.2 1.1-.5 0 0 .1 0 .2-.1z"/><path d="M30.1 58.6l1.8 1.5c-.2-.5-.5-1-.8-1.5-.8-.9-1.5-.8-2.4-1.3-2.5-1.2-5.1-1.2-7.3-.4-.1 0-.4 0-.5.3.8-.1 1.6-.2 2.3-.2h2.3c.8.1 1.6.2 2.3.5.8.3 1.6.7 2.3 1.1zM17.2 58.4c-.3.4-.5.7-.9.9.5.1 1-.1 1.3-.3.4-.4.9-.7 1.3-1-.6 0-1.2.1-1.7.4zM20.9 57.3c-.1 0-.2 0-.4.1-.5.1-1 .3-1.5.6.7 0 1.4.1 2.1.1-.2-.4-.2-.6-.2-.8z"/></g><linearGradient id="a" gradientUnits="userSpaceOnUse" x1="446.026" y1="320.236" x2="725.91" y2="320.236"><stop offset=".054" stop-color="#68878f"/><stop offset=".135" stop-color="#638591"/><stop offset=".232" stop-color="#548098"/><stop offset=".338" stop-color="#3c78a4"/><stop offset=".367" stop-color="#3475a8"/><stop offset=".504" stop-color="#388993"/><stop offset=".674" stop-color="#3d9e7d"/><stop offset=".897" stop-color="#0bb08d"/><stop offset=".93" stop-color="#03b390"/></linearGradient><path fill="url(#a)" d="M446 387s.9-.9 2.6-2.5c16.6-15.3 111.1-118.8 220.4-58 21.8 12.1 39.4 9.6 52.8-7.4 10.1-12.9 3-33.2-36.9-51.5-3.8-1.7-39.1-14.1-39.1-14.1s-3.4 5.2-11.2 5.1c-78-.9-131.6 35-187.7 127.5"/></svg>