<?xml version="1.0" encoding="utf-8"?>
<!-- Generator: Adobe Illustrator 23.0.3, SVG Export Plug-In . SVG Version: 6.00 Build 0)  -->
<svg version="1.1" id="Layer_2" xmlns="http://www.w3.org/2000/svg" xmlns:xlink="http://www.w3.org/1999/xlink" x="0px" y="0px"
	 width="728" height="458" viewBox="0 0 728 458" enable-background="new 0 0 728 458" xml:space="preserve">
<path fill-rule="evenodd" clip-rule="evenodd" fill="#61EFFD" fill-opacity="0.24" d="M71.3,206.4l-1.8,0.8l-0.5,1.8l0.6,1.7
	l1.8,0.7l1.7-0.8L74,209l-0.8-1.8L71.3,206.4z"/>
<path fill-rule="evenodd" clip-rule="evenodd" fill="#535FD7" fill-opacity="0.24" d="M63.1,172.4l-1.8,0.8l-0.5,1.8l0.6,1.7
	l1.8,0.7l1.7-0.8l1.1-1.6l-0.8-1.8L63.1,172.4z"/>
<g>
	<g>
		<g>
			<g>
				<g opacity="0.85">
					<g>
						<path fill="#1C3D48" d="M136.6,413.5c2.4,0.5,4.9,0.9,7.3,1.4c-1.2-0.6-2.3-1.4-3.4-2.6C139,411.4,138,412.6,136.6,413.5z"/>
						<path fill="#1C3D48" d="M150.7,416.2c0.4,0.1,0.9,0.2,1.3,0.2c0.4-0.1,0.8-0.2,1.2-0.4C152.3,416.1,151.5,416.2,150.7,416.2z"
							/>
						<path fill="#1C3D48" d="M163.7,416.2c-2.2-0.6-4.4-0.6-6.6-0.5C158.9,416.4,161.1,416.6,163.7,416.2z"/>
						<path fill="#1C3D48" d="M153.6,413.6c0.7,1,1,1.9-0.4,2.4c0,0,0,0-0.1,0c1.3-0.1,2.6-0.2,4-0.3
							C155.8,415.2,154.6,414.5,153.6,413.6z"/>
						<path fill="#1C3D48" d="M153.6,413.6c-0.7-0.9-1.8-1.8-2.1-2.4C152.1,412.1,152.8,412.9,153.6,413.6z"/>
						<path fill="#1C3D48" d="M159.3,393.6c1.3-0.5,0.3,5.3,3,4.2c6-1,11.1-3.2,16.4-2.7c2.5-1.2,6,5.6,8.5,4.4
							c2.9-0.6,8.2-2.8,11.5-4.8c3.3-2.1,4.8-3.9,0.6-3.8c-6.4,0.2-11.8,0.6-17,0.9c-5.2,0.3-10.3,0.5-16.1,0.5
							c-9.7,1.3-19.1,2.9-29.2,3.4c-2.8-0.2-5.2-1.1-7.7-1.9c3.2,1.5,6.4,3,10.1,4.4C144.2,400.5,151.4,394,159.3,393.6z"/>
						<path fill="#1C3D48" d="M84.2,398.4c1.4-0.3,4.2-0.8,4.2-0.8c4.4,5.6,10.7,5.5,16.9,5.2c-0.6-1.1-1.3-2.3-1.9-3.4
							c-3.4-0.5-4.2,1-1.5,3c-6-5.1-12.1-7.2-18.7-8.6C83.2,395.3,82.6,397.1,84.2,398.4z"/>
						<path fill="#1C3D48" d="M79.3,393c1.3,0.2,2.6,0.5,3.9,0.7c0-0.2,0-0.3,0-0.5c-1.4-0.1-2.7-0.2-4-0.4
							C79.3,392.9,79.3,392.9,79.3,393z"/>
						<path fill="#1C3D48" d="M191.2,412.9c17,0.5,32.9,0.5,48.5-0.2c1.1-1.2,1.8-2.6,3.5-2.1c1.3,0.9,2.6,1.4,3.8,1.7
							c2.3-0.1,4.6-0.3,6.8-0.4c0.8-0.2,1.6-0.5,2.3-0.7c0,0,0,0,0.1,0c1.2-0.8,0.7-1.7-0.2-2.4c-0.9-0.5-1.8-1.1-2.6-1.8
							c0.5,0.4,1.7,1.1,2.6,1.8c1.2,0.6,2.4,1,3.8,1.1c2-0.6,4.1-1.1,6.4-1.2c-2.4,1.1-4.5,1.4-6.4,1.2c-1.3,0.4-2.5,0.9-3.7,1.3
							c-0.3,0.2-0.7,0.4-1,0.7c2.6-0.2,5.2-0.4,7.8-0.7c2.6-0.2,5.2-0.5,7.8-0.8c1.2-0.3,2.3-0.7,3.1-1.1c1.8-0.7,3.6-1.4,5.2-1.7
							c1.7-0.3,3.3-0.1,4.7,1c0.9-0.1,1.8-0.3,2.8-0.4c-0.2-0.1-0.4-0.2-0.6-0.4c0.4,0.1,0.8,0.2,1.2,0.3c3.9-0.7,7.8-1.3,11.7-2.1
							c1.1-0.9,2.2-1.8,3.3-2.7c1.1-0.9,2.2-1.8,3.4-2.6c0,0,2.3,1.4,3.4,2c0.6-1.7,1.8-3.1,3.3-4.1c-1.3-0.5-2.5-1-3.7-1.6
							c-1.2-0.5-2.3-1-3.3-1.3c-1.7-1-2.6,0.8-3.8,2.3c-1.1,1.5-2.5,2.7-4.7,0.5c2.2,2.2,3.5,1.1,4.7-0.5c1.1-1.5,2.1-3.3,3.8-2.3
							c1,0.3,2.1,0.8,3.3,1.3c1.2,0.5,2.4,1.1,3.7,1.6c1.6-1.1,3.6-1.7,5.8-2c2.2-0.3,4.6-0.1,6.9,0.5c-1.9,2-4,2.8-6.2,2.9
							c-2.2,0.1-4.4-0.6-6.6-1.4c-1.6,1-2.7,2.4-3.3,4.1c-1.1-0.7-3.4-2-3.4-2c-1.1,0.8-2.3,1.7-3.4,2.6c-1.1,0.9-2.2,1.8-3.3,2.7
							c3.8-0.7,7.7-1.7,11.5-2.5c3.8-1,7.7-2,11.6-3.2c12.6-3.6,24.7-8.2,36.2-13.9c11.5-5.7,22.5-12.4,32.9-20
							c20.8-15.2,39.3-34,55.9-56.2c1.2-1.5,2.2-3,3.4-4.5c1.1-1.5,2.2-3,3.3-4.5c2-2.7,4.1-5.5,6.1-8.2c2.1-2.6,4.2-5.2,6.3-7.8
							c2.2-2.5,4.3-5,6.5-7.4c8.9-9.5,18.4-18,28.4-25c1.3-0.8,2.5-1.7,3.7-2.5l1.8-1.3l1.9-1.2c1.2-0.8,2.4-1.6,3.7-2.5
							c1.2-0.8,2.5-1.6,3.7-2.3l1.8-1.2l1.8-1.1c1.2-0.7,2.4-1.5,3.6-2.2c2.5-1.4,4.9-2.8,7.4-4.1c2.4-1.4,4.9-2.5,7.4-3.8
							c1.2-0.6,2.5-1.1,3.7-1.7c1.2-0.6,2.5-1.1,3.8-1.6c2.5-1.1,5.1-1.9,7.6-2.8c2.6-0.8,5.1-1.6,7.8-2.3
							c10.4-2.7,21.3-3.7,32.3-2.7c10.9,1,21.9,4.3,32.2,9.9c4,2.1,8.9,4,14.2,6c5.3,2,11.2,4,17,6.2c11.6,4.4,23.2,9.4,30.7,13.5
							c6.1,0.8,10.8-0.1,14.5-2.1c1.9-1,3.5-2.2,4.9-3.6c1.4-1.4,2.5-3,3.7-4.5c4.7-6,5.2-13.7,5.1-14.6c-0.5-6.7-2.3-11.7-4.9-15.6
							c-2.6-3.9-6.1-6.9-10.2-9.8c-4.2-2.9-9-5.6-14.7-9.2c-5.7-3.5-12.1-7.9-19.9-13.7c5.4,3.7,6.6,6,5.2,7
							c-1.3,1-5.2,0.7-10.3-0.6c-5.1-1.3-11.4-3.4-17.8-6.2c-6.4-2.8-13-6.4-18.5-10.8c-8-6.7-18-10.5-29.1-11.9
							c-11-1.4-23-0.3-34.8,2.5c-11.8,2.9-23.5,7.4-34.6,12.6c-11.1,5.2-21.6,10.9-32,16c-10.5,5.1-19.6,13.4-29.7,22.1
							c-1.8,1.3-3.4,2.7-5.2,4l-2.5,2.1l-2.4,2.1c-1.6,1.4-3.2,2.9-4.8,4.3c-1.5,1.5-3,3-4.5,4.5l-2.2,2.3l-2.1,2.3
							c-1.4,1.6-2.8,3.1-4.2,4.7c-1.4,1.6-2.7,3.2-4,4.8c-1.3,1.6-2.6,3.2-3.9,4.9c-2.4,3.3-5,6.6-7.2,10l-3.4,5.1
							c-1.1,1.7-2.1,3.4-3.2,5.2l-3.1,5.1l-2.4,4.1c-1.5,2.7-3.3,5.4-4.9,8l-1.2,2l-1.3,1.9l-2.6,3.9c-0.9,1.3-1.8,2.6-2.7,3.8
							c-0.9,1.3-1.9,2.5-2.8,3.8c-3.9,4.9-7.9,9.9-12.3,14.5c-4.3,4.7-9.1,9-14.1,13.2c-2.6,2-5.1,4.1-7.9,5.9
							c-1.4,0.9-2.7,1.9-4.1,2.8c-1.4,0.9-2.8,1.8-4.3,2.7c-1.5,1-3,1.9-4.3,3c-1.4,1-2.7,2.1-4.1,3.2c-1.3,1.1-2.6,2.2-3.9,3.3
							c-1.3,1.1-2.6,2.2-3.8,3.3c-0.6,0.6-1.3,1.1-1.9,1.7c-0.6,0.6-1.3,1.1-1.9,1.7c-1.3,1.1-2.5,2.2-3.8,3.3
							c-1.3,1.1-2.6,2.1-3.8,3.1c-0.6,0.5-1.3,1-1.9,1.5c-0.7,0.5-1.3,0.9-2,1.4c-2.1,1.1-4.2,2-6.5,2.6c-2.3,0.7-4.5,1.3-6.8,1.7
							c-4.5,0.9-8.9,1.5-12.5,2.5c-11.4,3.2-21,7.3-30.6,11.4c1.4-0.4,2.7-0.7,4-1.1c1.3-0.4,2.5-0.8,3.7-1.1
							c1.2-0.4,2.4-0.8,3.6-1.2c1.2-0.4,2.4-0.8,3.5-1.2c1.2-0.4,2.4-0.8,3.6-1.2c1.2-0.4,2.4-0.9,3.7-1.3c2.5-0.9,5.2-1.8,8.1-2.9
							c2-0.6,2.7-0.4,2.7,0.3c0,0.8-0.8,2-2.1,3.5c-1.2,1.4-2.9,3-4.6,4.5c-1.7,1.4-3.4,2.6-4.7,3.3c-1,0.9-2.8,0-4.6-0.9
							c-1.8-0.9-3.5-1.9-4.5-1c-2.5,0.5-4.8,1.6-7.2,2.9c-2.4,1.3-4.8,2.7-7.4,4c-2.2,1.6-2.8-4.2-3.8-3.4c-3.7,1.2-6.8,3.7-9.6,5.9
							c-2.9,2.1-5.5,3.8-8,3.2c-1.9-0.3-3.7-0.6-5.5-0.9c-1.8-0.3-3.5-0.7-5.1-1.1c-2.1-0.2-4.2-0.4-6.4-0.1
							c-1.4,0.5-2.8,1.1-4.2,1.6c1.2,1.8,1.6,3.9,2.1,6.1c-2.1-0.3-5.1-1.5-7.2-1.8c2.1,0.3,5,1.5,7.2,1.8c-0.4-2.2-0.9-4.3-2.1-6.1
							c-10.2,3.6-22.3,6.5-33.7,8.3c0,0.2,0.1,0.4,0.1,0.5c6.6-0.2,13,0.6,19.8,4.2c-3-1.3-2.6-2.9,0.8-3.2c0.9,1,1.7,2,2.6,2.9
							c-3,0.8-6,1.6-8.9,1.6c-2.9,0-5.8-0.7-8.5-3c0,0-2.6,1.2-3.9,1.8c-1.8-0.9-1.6-2.7-1.9-4.3c-1.3,0-2.6,0.1-3.9,0.2
							c1.3,1.5,4,3.4,6.5,4.8C189,411.8,191.2,412.9,191.2,412.9z"/>
						<path fill="#1C3D48" d="M260.1,410c-0.9,0.3-2,0.6-3.1,0.9c2.2-0.2,4.4-0.3,6.5-0.5c2.2-0.2,4.4-0.4,6.5-0.6
							C267.3,407.3,263.7,408.7,260.1,410z"/>
					</g>
				</g>
			</g>
		</g>
	</g>
</g>
<g>
	<g>
		<g>
			<g>
				<g opacity="0.8">
					<g>
						<path fill="#1C3D48" d="M666.8,179.8c-0.8,0.2-1.4,0.4-2.1,0.6c-0.7,0.2-1.3,0.4-1.9,0.7c-2,0.7-4-0.2-5.9-0.5
							c-1-0.2-1.8-0.3-2.7-0.4c-1.8-0.8-3.5-1.5-5.3-1.9c-0.2-0.1-0.7-0.5-0.9,0.5c-1.7-1-3.1-2.2-4.9-2.2c-0.7-0.1-1.1-1.2-1.8-1.3
							c-1.2-0.1-1.9-1.5-2.9-1.8c-0.2,0.1-0.7,0.4-0.8,0.3c-1-1.6-2.9-0.7-4.5-0.8c-0.6-0.1-1.1-0.1-1.6-0.4
							c-0.3,0.4-0.3,0.2-0.6,0.3c-0.4-0.2-1.9-2.3-1.8-3c0.1-0.1,1.1,0.4,2.2,0.8c1.1,0.4,2.2,0.8,2.3,0.5c0-0.3-2.7-1.4-2.8-1.6
							c3,0.2,4.8,0.1,5.9,0c1.1-0.1,1.4-0.2,1.3-0.3c-0.3-0.2-2.5-0.3-4.3-0.2c-0.4-0.3-1.4,0-2.3-0.4c0.7,0,2.5-0.9,2.8-0.9
							c1.4-0.1,1.6-0.7,2.8,0c1,0.6,3.4,0.2,4.3,0.2c-0.8,0.5-2.5,1.7-3.2,1.2c1.1,1.5,2.6-1.2,4-0.3c0.1,0,0.4,0,0.6-0.1
							c0.1,0.2,0.3,0.3,0.4,0.5c1.3,0.6,2.6,0.2,3.8,0.9c-0.1,0,0-0.5-0.1-0.6c-0.8-1.2-2-0.4-3.1-1.1c-0.2-0.2-0.7,0.4-1,0.3
							c-0.5-0.1-0.7-0.8-1-1.2c1.1-0.2,2,0.3,3,0.5c0.2,0,0.6-0.4,0.8-0.6c-0.4-0.2-0.8-0.4-1.2-0.5c-1.5-0.3-4.4,0.9-4.9-0.8
							c0,0-0.1,0-0.2,0.1c0-0.1,0-0.1,0-0.1c-0.2-0.1-0.4-0.3-0.5-0.7l0.5,0.4c2.1-0.8,3.5,0.7,5.3,0.7c0.4-0.1,0.7,0.9,1.2,0.8
							c1.2-0.1,2.2,0.4,3.1,1.3c1.7,1.4,3.5,2.9,5.4,4.1c2,1.3,4.2,2.5,6.9,3.4c0.1,0,0.2-0.1,0.3-0.1l-0.2-0.3
							c0.1,0.1,0.3,0.1,0.4,0.2c0.6-0.2,1.2-0.2,2,0.1c0.4,0.2-0.4,0.2-0.5,0.6c0.2,0,0.3,0,0.3,0s0,0.2,0.1,0.4
							c0.1-0.1,0.2,0.1,0.4,0.2c-1.4,0.6-2.9,1-4.4,1.1c0.3,0.6,0.7,0.4,0.9,0.4c0.5-0.2,0.9-0.4,1.4-0.4c0.6-0.2,1.3-0.2,2.1-0.1
							c0.4,0,0.8,0,1.1,0.1c0.4,0,0.7,0,1.1-0.1c0.3,0.1,0.6,0.1,1,0.2c0.2,0.1,0.3,0.4,0.2,0.6
							C667.3,179.6,667.1,179.8,666.8,179.8z M649.1,171.9c0.2,0.4,0.5,0.8,0.7,1.3c0.1,0.1,0.2,0.1,0.3,0.2
							c0.1,0.1,0.3,0.1,0.5,0.1c0.6,0.5,1.1,1,1.7,1.4c-0.5-1-1.1-1.8-1.8-2.2c1.9,0.5,3.4,2.9,5.6,4.3c0.6,0.2,1.3,0.3,2,0.4
							c0.5,0,0.9-0.2,1.4-0.3c-3.1-0.8-5.7-2.7-7.9-4.5c-2.2-1.8-4.1-3.7-6.3-4.8C646.5,169.3,647.8,170.4,649.1,171.9z
							 M648.4,172.4c-0.6-0.3-1.2-0.5-1.9-0.6c-1.7-0.7-3.4-1.5-5-0.6c1.7,0.1,3.4,0.2,5,0.6c-1.5-0.7-0.5,0,1.6,0.6
							C648.1,172.3,648.2,172.3,648.4,172.4z"/>
						<path fill="#1C3D48" d="M658,174.5c0.4,0.3,0.8,0.6,1.3,0.9c0.5,0.3,0.9,0.5,1.4,0.8c-0.5-0.6-0.9-1.2-1.3-1.6
							c-1.1-1-2.1-1-3-1.8c-1.3-1.1-2.5-2-3.6-2.7c-1.2-0.8-2.3-1.4-3.5-1.9c-0.1-0.1-0.4-0.3-0.6-0.2c1.4,1.1,2.8,2,4.3,3.1
							C654.6,172.1,656.1,173.2,658,174.5z"/>
						<path fill="#1C3D48" d="M645.2,165.5c-0.5,0-1,0-1.4-0.2c0.2,0.6,0.7,0.9,1.1,1.1c0.6,0.1,1.3,0.3,1.9,0.5
							C646.3,166.3,645.8,165.8,645.2,165.5z"/>
						<path fill="#1C3D48" d="M648.7,168c-0.1-0.1-0.2-0.2-0.3-0.3c-0.5-0.4-1.1-0.7-1.7-0.9c0.5,0.6,1,1.3,1.5,1.9
							C648.4,168.3,648.6,168.1,648.7,168z"/>
					</g>
				</g>
			</g>
		</g>
	</g>
</g>
<linearGradient id="SVGID_1_" gradientUnits="userSpaceOnUse" x1="282.893" y1="347.3077" x2="679.7525" y2="347.3077" gradientTransform="matrix(-1.173 1.098271e-02 -1.141909e-02 -1.2196 819.9649 617.6902)">
	<stop  offset="0.1464" style="stop-color:#8D9295;stop-opacity:0.7"/>
	<stop  offset="0.2293" style="stop-color:#999C9F;stop-opacity:0.6287"/>
	<stop  offset="0.3808" style="stop-color:#AAABAC;stop-opacity:0.4982"/>
	<stop  offset="0.4948" style="stop-color:#B0B0B1;stop-opacity:0.4"/>
	<stop  offset="0.544" style="stop-color:#B2B1AB;stop-opacity:0.4"/>
	<stop  offset="0.6074" style="stop-color:#B8B69B;stop-opacity:0.4"/>
	<stop  offset="0.6785" style="stop-color:#C1BD81;stop-opacity:0.4"/>
	<stop  offset="0.7553" style="stop-color:#CEC65C;stop-opacity:0.4"/>
	<stop  offset="0.8356" style="stop-color:#DED22D;stop-opacity:0.4"/>
	<stop  offset="0.9028" style="stop-color:#EEDE00;stop-opacity:0.4"/>
</linearGradient>
<linearGradient id="SVGID_2_" gradientUnits="userSpaceOnUse" x1="18.1261" y1="251.9772" x2="415.4434" y2="251.9772" gradientTransform="matrix(1.1731 4.363611e-04 4.363611e-04 1.2197 -2.8743 -107.2971)">
	<stop  offset="0.1296" style="stop-color:#EEDE00;stop-opacity:0.4"/>
	<stop  offset="0.4948" style="stop-color:#B0B0B1;stop-opacity:0.4"/>
	<stop  offset="0.639" style="stop-color:#AAABAC;stop-opacity:0.4977"/>
	<stop  offset="0.8241" style="stop-color:#9A9DA0;stop-opacity:0.6232"/>
	<stop  offset="0.9375" style="stop-color:#8D9295;stop-opacity:0.7"/>
</linearGradient>
<path fill="url(#SVGID_1_)" stroke="url(#SVGID_2_)" stroke-width="1.0086" stroke-miterlimit="10" d="M484.1,188.9
	c0,0-8.3-12.3-10.8-22.5C449.6,69.9,362.2,61,264.7,65.9c-18.9,0.9-35.2-1.4-39-11.2c-10.1-26.3-63.6-34.1-63.6-34.1
	S8.3,169.2,19.7,260.5c20.9,167.4,283.2,132,347.2,54.5C391.8,284.8,446,192.7,484.1,188.9"/>
</svg>
