<?xml version="1.0" encoding="utf-8"?>
<!-- Generator: Adobe Illustrator 23.0.3, SVG Export Plug-In . SVG Version: 6.00 Build 0)  -->
<svg version="1.1" id="Layer_2" xmlns="http://www.w3.org/2000/svg" xmlns:xlink="http://www.w3.org/1999/xlink" x="0px" y="0px"
	width="728" height="458" viewBox="0 0 728 458" enable-background="new 0 0 728 458" xml:space="preserve">
<path fill-rule="evenodd" clip-rule="evenodd" fill="#61EFFD" fill-opacity="0.24" d="M71.3,206.4l-1.8,0.8l-0.5,1.8l0.6,1.7
	l1.8,0.7l1.7-0.8L74,209l-0.8-1.8L71.3,206.4z"/>
<path fill-rule="evenodd" clip-rule="evenodd" fill="#535FD7" fill-opacity="0.24" d="M63.1,172.4l-1.8,0.8l-0.5,1.8l0.6,1.7
	l1.8,0.7l1.7-0.8l1.1-1.6l-0.8-1.8L63.1,172.4z"/>
<g>
	<g>
		<g>
			<g>
				<g opacity="0.8">
					<g>
						<path fill="#D21C8D" d="M623.2,403.5c-0.7,0.2-1.3,0.4-2,0.6c-0.6,0.2-1.2,0.4-1.8,0.7c-1.9,0.6-3.8-0.1-5.6-0.3
							c-0.9-0.2-1.8-0.2-2.6-0.3c-1.7-0.7-3.4-1.3-5.3-1.7c-0.2-0.1-0.7-0.5-0.8,0.4c-1.7-0.9-3.1-2-4.8-2.1c-0.7-0.1-1.2-1-1.8-1.2
							c-1.2-0.1-1.9-1.4-2.9-1.7c-0.2,0.1-0.7,0.3-0.8,0.2c-1-1.4-2.9-0.8-4.4-0.9c-0.6-0.1-1.1-0.2-1.5-0.4
							c-0.2,0.3-0.3,0.2-0.5,0.2c-0.4-0.2-1.9-2.2-1.9-2.7c0.1-0.1,1.1,0.4,2.2,0.8c1.1,0.4,2.1,0.8,2.2,0.6c0-0.2-2.6-1.4-2.8-1.6
							c2.9,0.4,4.7,0.4,5.7,0.4c1,0,1.4-0.1,1.2-0.2c-0.3-0.2-2.4-0.4-4.2-0.4c-0.4-0.3-1.3-0.1-2.2-0.5c0.7,0,2.3-0.6,2.6-0.6
							c1.4,0,1.5-0.5,2.7,0.2c1,0.6,3.3,0.3,4.3,0.5c-0.7,0.4-2.4,1.3-3,0.8c1.2,1.4,2.4-0.9,3.9-0.1c0.1,0.1,0.3,0,0.6,0
							c0.1,0.1,0.3,0.3,0.4,0.5c1.3,0.5,2.6,0.3,3.8,1c-0.1,0-0.1-0.4-0.2-0.5c-0.9-1-2.1-0.5-3.2-1.1c-0.2-0.2-0.7,0.3-0.9,0.2
							c-0.5-0.2-0.8-0.7-1.1-1.1c1.1-0.1,2,0.4,3,0.6c0.2,0,0.6-0.3,0.8-0.5c-0.4-0.2-0.8-0.4-1.3-0.5c-1.5-0.3-4.3,0.5-4.9-1
							c0,0-0.1,0-0.2,0.1c0,0,0-0.1,0-0.1c-0.2-0.1-0.4-0.3-0.6-0.6l0.5,0.3c2.1-0.5,3.5,0.8,5.3,1c0.4-0.1,0.8,0.8,1.2,0.8
							c1.2,0,2.2,0.5,3.2,1.3c1.8,1.3,3.6,2.5,5.6,3.6c2,1.1,4.2,2.1,6.9,2.8c0.1,0,0.2-0.1,0.3-0.1l-0.2-0.2
							c0.1,0.1,0.2,0.1,0.4,0.2c0.6-0.2,1.2-0.3,2,0c0.3,0.2-0.4,0.2-0.5,0.5c0.2,0,0.3,0,0.3,0s0,0.2,0.1,0.4
							c0.1-0.1,0.2,0.1,0.3,0.2c-1.4,0.5-2.8,0.9-4.2,1.1c0.2,0.5,0.7,0.3,0.9,0.4c0.5-0.2,0.9-0.4,1.4-0.4c0.6-0.2,1.3-0.2,2-0.2
							c0.4,0,0.7,0,1.1,0c0.4,0,0.7-0.1,1-0.2c0.3,0,0.6,0.1,0.9,0.1c0.2,0.1,0.2,0.3,0.1,0.5C623.7,403.2,623.5,403.4,623.2,403.5z
							 M606,397c0.3,0.3,0.5,0.7,0.8,1.1c0.1,0.1,0.2,0.1,0.3,0.2c0.1,0.1,0.3,0.1,0.5,0.1c0.6,0.4,1.2,0.8,1.8,1.2
							c-0.6-0.8-1.1-1.6-1.8-1.9c1.9,0.5,3.5,2.5,5.6,3.7c0.6,0.2,1.3,0.3,2,0.3c0.5,0,0.9-0.1,1.4-0.3c-3-0.6-5.6-2.2-7.9-3.8
							c-2.3-1.6-4.3-3.2-6.5-4.3C603.3,394.7,604.6,395.7,606,397z M605.3,397.4c-0.6-0.3-1.3-0.5-1.9-0.6c-1.7-0.7-3.4-1.5-5-0.7
							c1.7,0.2,3.3,0.3,5,0.7c-1.5-0.6-0.5,0,1.6,0.6C605,397.3,605.1,397.3,605.3,397.4z"/>
						<path fill="#D21C8D" d="M615,399.2c0.4,0.3,0.8,0.5,1.3,0.7c0.4,0.2,0.9,0.4,1.4,0.7c-0.4-0.5-0.8-1-1.2-1.3
							c-1.1-0.8-2-0.8-3-1.4c-2.6-1.8-4.9-3-7.4-4c-0.1-0.1-0.4-0.2-0.6-0.2c1.5,1,3,1.8,4.5,2.7C611.5,397.3,613.1,398.2,615,399.2
							z"/>
						<path fill="#D21C8D" d="M601.7,391.4c-0.5,0-1-0.1-1.4-0.3c0.2,0.5,0.8,0.8,1.2,1c0.6,0.2,1.3,0.3,1.9,0.5
							C602.9,392.1,602.3,391.6,601.7,391.4z"/>
						<path fill="#D21C8D" d="M605.5,393.7c-0.1-0.1-0.2-0.2-0.4-0.2c-0.5-0.4-1.1-0.6-1.7-0.8c0.5,0.6,1.1,1.2,1.7,1.7
							C605.1,393.9,605.3,393.8,605.5,393.7z"/>
					</g>
				</g>
			</g>
		</g>
	</g>
</g>
<g>
	<g>
		<g>
			<g>
				<g opacity="0.8">
					<g>
						<path fill="#ED801C" d="M548.6,416.3c-0.8,0.1-1.5,0.4-2.2,0.7c-0.5,0.2-1.1,0.2-1.6,0c-0.5-0.2-1-0.4-1.6-0.4
							c-0.5-0.1-0.9-0.2-1.4-0.3c-0.5-0.2-0.9-0.5-1.4-0.7c-0.5-0.2-0.9-0.3-1.4-0.5c-0.1-0.1-0.3-0.3-0.5,0.3
							c-0.4-0.3-0.8-0.6-1.2-0.9c-0.4-0.2-0.8-0.4-1.3-0.4c-0.4-0.1-0.6-0.7-0.9-0.8c-0.6,0-0.9-0.8-1.4-1c-0.1,0.1-0.4,0.3-0.4,0.3
							c-0.4-0.9-1.5-0.3-2.4-0.2c-0.3,0-0.6,0-0.8-0.2c-0.2,0.2-0.2,0.2-0.3,0.2c-0.2-0.1-0.9-1.3-0.8-1.7c0.1-0.1,2.2,0.9,2.3,0.5
							c0-0.2-1.4-0.7-1.4-0.8c3.2-0.2,4-0.6,3.9-0.6c-0.1-0.1-1.3,0-2.3,0.1c-0.2-0.2-0.7,0.1-1.2-0.1c0.4-0.1,1.4-0.7,1.5-0.7
							c0.8-0.1,0.9-0.6,1.5-0.2c0.5,0.3,1.7-0.1,2.3-0.1c-0.4,0.4-1.4,1.2-1.7,0.9c0.5,0.9,1.4-0.9,2.1-0.4c0.1,0,0.2,0,0.3-0.1
							c0.1,0.1,0.1,0.2,0.2,0.3c0.6,0.3,1.3,0,1.9,0.4c-0.1,0,0-0.3,0-0.4c-0.3-0.7-1-0.2-1.5-0.5c-0.1-0.1-0.4,0.3-0.5,0.2
							c-0.2-0.1-0.3-0.4-0.5-0.7c0.6-0.2,1,0.1,1.5,0.2c0.1,0,0.3-0.3,0.5-0.4c-0.2-0.1-0.4-0.2-0.6-0.3c-0.7-0.1-2.3,0.8-2.5-0.2
							c0,0-0.1,0-0.1,0.1c0,0,0-0.1,0-0.1c-0.1,0-0.2-0.1-0.2-0.4l0.3,0.2c1.2-0.6,1.7,0.2,2.7,0.1c0.2-0.1,0.3,0.5,0.5,0.4
							c0.6-0.1,1.1,0.2,1.5,0.7c0.4,0.5,0.8,0.8,1.2,1.3c0.4,0.4,0.9,0.8,1.3,1.3c0.5,0.4,1,0.9,1.6,1.2c0.3,0.2,0.6,0.4,0.9,0.6
							c0.3,0.2,0.7,0.3,1,0.5c0.1,0,0.1,0,0.2-0.1l-0.1-0.2c0.1,0,0.1,0.1,0.2,0.1c0.3-0.1,0.6-0.1,1.1,0.1c0.2,0.2-0.2,0.1-0.2,0.4
							c0.1,0,0.2,0,0.2,0s0,0.1,0.1,0.3c0-0.1,0.1,0.1,0.2,0.2c-0.4,0.2-0.8,0.3-1.1,0.4c-0.4,0.1-0.8,0.2-1.2,0.2
							c0.1,0.4,0.4,0.3,0.5,0.3c0.3-0.1,0.5-0.3,0.8-0.2c0.6-0.2,1.6,0.1,2.4,0c0.2,0.1,0.4,0.1,0.6,0.2c0.1,0.1,0.2,0.2,0.1,0.4
							C548.9,416.2,548.8,416.3,548.6,416.3z M539.4,411c0.1,0.2,0.2,0.5,0.3,0.8c0,0,0.1,0.1,0.2,0.1c0.1,0.1,0.1,0.1,0.2,0
							c0.3,0.3,0.5,0.6,0.8,0.9c-0.3-0.6-0.5-1.1-0.8-1.4c0.9,0.3,1.6,1.8,2.7,2.7c0.3,0.2,0.7,0.2,1,0.3c0.3,0,0.5-0.1,0.7-0.2
							c-1.7-0.6-2.9-1.8-4-2.9c-1-1.2-1.9-2.2-2.9-2.9C538.2,409.5,538.8,410.1,539.4,411z M539,411.4c-0.3-0.2-0.6-0.3-0.9-0.3
							c-0.8-0.4-1.6-0.8-2.5-0.1c0.9,0,1.7-0.1,2.5,0.1c-0.7-0.3-0.2,0,0.8,0.3C538.9,411.3,539,411.4,539,411.4z"/>
						<path fill="#ED801C" d="M543.8,412.6c0.2,0.2,0.4,0.4,0.7,0.6c0.2,0.2,0.5,0.4,0.8,0.6c-0.3-0.4-0.5-0.8-0.7-1.1
							c-0.6-0.7-1.1-0.7-1.5-1.2c-1.3-1.4-2.2-2.3-3.3-2.9c0-0.1-0.2-0.2-0.3-0.1c0.6,0.6,1.3,1.2,2,1.8c0.3,0.3,0.7,0.6,1.1,1
							C542.9,411.8,543.3,412.2,543.8,412.6z"/>
						<path fill="#ED801C" d="M537.7,407.1c-0.3,0-0.5,0-0.7-0.1c0.1,0.4,0.3,0.5,0.5,0.7c0.3,0.1,0.6,0.1,0.9,0.2
							C538.2,407.6,538,407.3,537.7,407.1z"/>
						<path fill="#ED801C" d="M539.4,408.6l-0.2-0.2c-0.2-0.2-0.5-0.4-0.8-0.5c0.2,0.4,0.4,0.8,0.7,1.1
							C539.2,408.8,539.3,408.6,539.4,408.6z"/>
					</g>
				</g>
			</g>
		</g>
	</g>
</g>
<g>
	<g>
		<g>
			<g>
				<g opacity="0.8">
					<g>
						<path fill="#EDD71C" d="M471.4,383.2c-0.6,0.6-1,1.2-1.4,1.8c-0.3,0.4-0.8,0.7-1.4,0.9c-0.5,0.2-1.1,0.3-1.5,0.5
							c-0.5,0.2-0.9,0.3-1.3,0.6c-0.5,0.1-1,0.1-1.5,0.2c-0.5,0.1-1,0.2-1.4,0.4c-0.1,0-0.5-0.1-0.2,0.5c-1-0.1-2-0.3-2.8,0.3
							c-0.3,0.2-0.8-0.3-1.2-0.1c-0.5,0.3-1.2-0.2-1.7,0c-0.1,0.1-0.2,0.5-0.2,0.5c-0.9-0.5-1.4,0.6-2.1,1.1
							c-0.3,0.2-0.5,0.3-0.8,0.3c0,0.3-0.1,0.3-0.1,0.4c-0.2,0-1.5-0.6-1.6-1c0-0.2,2.3-0.5,2.2-0.8c-0.1-0.2-1.5,0.2-1.6,0.1
							c2.6-1.9,3-2.6,2.9-2.6c-0.2,0-1.1,0.7-1.8,1.4c-0.3,0-0.6,0.5-1.1,0.6c0.3-0.3,0.8-1.4,0.9-1.4c0.6-0.5,0.4-0.9,1.1-1
							c0.6,0,1.4-1,1.8-1.3c-0.1,0.5-0.5,1.8-0.9,1.7c0.9,0.5,0.7-1.5,1.5-1.5c0.1,0,0.1-0.1,0.2-0.2c0.1,0,0.2,0.1,0.3,0.2
							c0.7-0.1,1.1-0.7,1.8-0.7c0,0-0.2-0.3-0.2-0.3c-0.7-0.4-0.9,0.4-1.6,0.4c-0.1-0.1-0.2,0.5-0.3,0.5c-0.2,0.1-0.5-0.2-0.8-0.3
							c0.4-0.5,0.9-0.5,1.3-0.7c0.1-0.1,0.1-0.4,0.1-0.6c-0.2,0-0.4,0.1-0.6,0.1c-0.7,0.3-1.5,2-2.2,1.2c0,0,0,0.1-0.1,0.1
							c0,0,0-0.1,0-0.1c-0.1,0-0.2,0-0.4-0.2l0.3,0c0.6-1.1,1.6-0.8,2.3-1.3c0.1-0.2,0.6,0.3,0.7,0.1c0.4-0.4,1-0.5,1.6-0.2
							c0.6,0.2,1.1,0.3,1.7,0.4c0.6,0.1,1.2,0.2,1.8,0.3c0.6,0.1,1.3,0.2,2,0.1c0.4,0,0.7,0,1.1,0c0.4,0,0.7-0.1,1.1-0.1
							c0-0.1,0.1-0.1,0.1-0.1l-0.2-0.1c0.1,0,0.2,0,0.3,0c0.2-0.2,0.5-0.4,1-0.5c0.3,0-0.1,0.2,0,0.4c0.1,0,0.2-0.1,0.2-0.1
							s0.1,0.1,0.2,0.2c0-0.1,0.1,0,0.3,0c-0.2,0.4-0.5,0.7-0.8,1c-0.3,0.3-0.5,0.6-0.8,0.8c0.3,0.2,0.5,0,0.6,0
							c0.1-0.3,0.3-0.5,0.5-0.6c0.4-0.5,1.4-0.8,2-1.3c0.2-0.1,0.4-0.1,0.6-0.2c0.1,0,0.3,0.1,0.3,0.3
							C471.6,383,471.5,383.1,471.4,383.2z M460.8,383.9c0.2,0.1,0.5,0.3,0.7,0.5c0.1,0,0.1,0,0.2,0c0.1,0,0.2,0,0.2-0.1
							c0.4,0.1,0.8,0.2,1.2,0.3c-0.6-0.4-1-0.7-1.5-0.7c0.9-0.3,2.3,0.6,3.8,0.8c0.4,0,0.7-0.2,1-0.4c0.2-0.1,0.4-0.3,0.5-0.5
							c-1.7,0.4-3.4,0.1-4.9-0.3c-1.5-0.4-2.8-0.8-4-0.8C458.9,383.2,459.7,383.5,460.8,383.9z M460.6,384.4c-0.3,0-0.7,0.1-1,0.2
							c-0.9,0.1-1.8,0.2-2.2,1.3c0.7-0.5,1.4-1,2.2-1.3c-0.8,0.1-0.2,0.1,0.8-0.1C460.5,384.4,460.6,384.4,460.6,384.4z"/>
						<path fill="#EDD71C" d="M465.3,382.8c0.3,0.1,0.6,0.1,0.9,0.2c0.3,0,0.6,0,0.9,0c-0.4-0.2-0.8-0.4-1.2-0.5
							c-0.9-0.3-1.3,0-1.9-0.2c-1.8-0.5-3.1-0.7-4.3-0.6c-0.1,0-0.2,0-0.3,0.1c0.9,0.2,1.7,0.3,2.7,0.5c0.5,0.1,0.9,0.2,1.5,0.2
							C464.1,382.6,464.6,382.7,465.3,382.8z"/>
						<path fill="#EDD71C" d="M457.2,381.5c-0.2,0.2-0.4,0.3-0.6,0.3c0.3,0.3,0.6,0.3,0.8,0.3c0.3-0.1,0.6-0.3,0.9-0.3
							C457.9,381.6,457.6,381.5,457.2,381.5z"/>
						<path fill="#EDD71C" d="M459.4,381.8c-0.1,0-0.1,0-0.2,0c-0.3-0.1-0.6,0-0.9,0c0.4,0.2,0.8,0.4,1.2,0.6
							C459.4,382.1,459.4,381.9,459.4,381.8z"/>
					</g>
				</g>
			</g>
		</g>
	</g>
</g>
<g>
	<g>
		<g>
			<g>
				<g opacity="0.8">
					<g>
						<path fill="#ED801C" d="M698.8,419.6c-0.7,0.2-1.3,0.4-1.8,0.6c-0.6,0.2-1.1,0.4-1.7,0.6c-1.8,0.6-3.5,0-5.3-0.1
							c-0.9-0.1-1.7-0.2-2.5-0.3c-1.7-0.5-3.4-1.1-5.2-1.5c-0.2-0.1-0.7-0.4-0.8,0.3c-1.6-0.8-3.1-1.7-4.8-1.9
							c-0.7-0.2-1.2-0.9-1.9-1.1c-1.1-0.2-1.9-1.2-2.9-1.6c-0.2,0-0.6,0.2-0.7,0.1c-1.1-1.2-2.8-0.9-4.3-1.1c-0.6-0.2-1-0.2-1.5-0.5
							c-0.2,0.2-0.3,0.1-0.5,0.1c-0.4-0.2-2-2-2-2.4c0-0.1,1,0.4,2.1,0.9c1,0.5,2.1,0.9,2.1,0.7c0-0.2-2.6-1.4-2.8-1.6
							c2.7,0.6,4.5,0.8,5.5,0.9c1,0.1,1.3,0,1.2,0c-0.3-0.2-2.4-0.5-4.1-0.7c-0.4-0.3-1.3-0.2-2.1-0.6c0.6,0.1,2.2-0.3,2.4-0.2
							c1.3,0.2,1.3-0.3,2.6,0.4c1,0.6,3.2,0.6,4.2,0.7c-0.7,0.3-2.2,0.9-2.9,0.4c1.3,1.2,2.3-0.5,3.8,0.3c0.1,0.1,0.3,0.1,0.6,0
							c0.2,0.1,0.3,0.3,0.5,0.4c1.3,0.5,2.6,0.5,3.8,1c-0.1,0-0.1-0.4-0.2-0.4c-0.9-0.9-2.1-0.5-3.2-1.1c-0.2-0.2-0.7,0.2-0.9,0.1
							c-0.5-0.2-0.8-0.6-1.2-1c1,0,2,0.5,3,0.7c0.2,0,0.6-0.2,0.8-0.3c-0.4-0.2-0.9-0.3-1.3-0.5c-1.6-0.4-4.2,0.1-4.9-1.2
							c0,0-0.1,0-0.2,0c0,0,0-0.1,0-0.1c-0.2-0.1-0.5-0.2-0.6-0.5l0.6,0.3c1.9-0.3,3.5,1,5.3,1.2c0.4,0,0.8,0.7,1.3,0.7
							c1.2,0.1,2.3,0.5,3.3,1.2c1.8,1.1,3.8,2.2,5.8,3.1c2.1,0.9,4.3,1.7,6.8,2c0.1,0,0.2-0.1,0.3-0.1l-0.2-0.2
							c0.1,0,0.2,0.1,0.3,0.1c0.6-0.2,1.2-0.3,1.9-0.1c0.3,0.1-0.4,0.2-0.5,0.5c0.1,0,0.3,0,0.3,0s0,0.1,0,0.3
							c0.1-0.1,0.2,0,0.3,0.1c-1.3,0.5-2.7,0.9-4.1,1.1c0.2,0.4,0.6,0.2,0.8,0.2c0.5-0.2,0.9-0.3,1.3-0.3c0.6-0.2,1.2-0.2,1.9-0.3
							c0.3,0,0.7,0,1-0.1c0.3,0,0.6-0.1,1-0.2c0.3,0,0.5,0,0.8,0.1c0.1,0.1,0.2,0.2,0.1,0.4C699.3,419.4,699.1,419.5,698.8,419.6z
							 M682.1,414.7c0.3,0.3,0.5,0.6,0.8,0.9c0.1,0.1,0.2,0.1,0.3,0.2c0.1,0.1,0.3,0.1,0.5,0.1c0.6,0.4,1.2,0.7,1.8,1
							c-0.6-0.7-1.2-1.3-1.9-1.6c2,0.5,3.6,2.1,5.7,3c0.6,0.1,1.3,0.2,1.9,0.2c0.5,0,0.9-0.1,1.3-0.3c-2.9-0.4-5.5-1.6-7.9-3
							c-2.3-1.3-4.5-2.8-6.8-3.8C679.2,412.7,680.6,413.6,682.1,414.7z M681.4,414.9c-0.6-0.2-1.3-0.4-1.9-0.6
							c-1.7-0.6-3.5-1.4-4.9-0.9c1.6,0.3,3.3,0.5,4.9,0.9c-1.5-0.6-0.5,0,1.6,0.6C681.1,414.9,681.3,414.9,681.4,414.9z"/>
						<path fill="#ED801C" d="M691.2,416.6c0.4,0.2,0.8,0.4,1.2,0.5c0.4,0.2,0.9,0.3,1.3,0.5c-0.4-0.4-0.7-0.7-1.1-1
							c-1-0.6-2-0.6-3-1c-2.7-1.4-5-2.4-7.6-3.4c-0.1-0.1-0.4-0.2-0.6-0.2c1.6,0.9,3.1,1.6,4.7,2.3
							C687.7,415.1,689.3,415.9,691.2,416.6z"/>
						<path fill="#ED801C" d="M677.4,409.9c-0.5-0.1-1-0.1-1.5-0.3c0.3,0.5,0.8,0.7,1.3,0.9c0.7,0.2,1.3,0.4,1.9,0.6
							C678.6,410.6,678.1,410.2,677.4,409.9z"/>
						<path fill="#ED801C" d="M681.4,412.1c-0.1-0.1-0.2-0.1-0.4-0.2c-0.6-0.3-1.2-0.6-1.8-0.8c0.6,0.5,1.2,1,1.8,1.5
							C681,412.2,681.2,412.1,681.4,412.1z"/>
					</g>
				</g>
			</g>
		</g>
	</g>
</g>
<g>
	<g>
		<g>
			<g>
				<g opacity="0.8">
					<g>
						<path fill="#1C3D48" d="M666.8,372.4c-0.8,0.2-1.4,0.4-2.1,0.6c-0.7,0.2-1.3,0.4-1.9,0.7c-2,0.7-4-0.2-5.9-0.5
							c-1-0.2-1.8-0.3-2.7-0.4c-1.8-0.8-3.5-1.5-5.3-1.9c-0.2-0.1-0.7-0.5-0.9,0.5c-1.7-1-3.1-2.2-4.9-2.2c-0.7-0.1-1.1-1.2-1.8-1.3
							c-1.2-0.1-1.9-1.5-2.9-1.8c-0.2,0.1-0.7,0.4-0.8,0.3c-1-1.6-2.9-0.7-4.5-0.8c-0.6-0.1-1.1-0.1-1.6-0.4
							c-0.3,0.4-0.3,0.2-0.6,0.3c-0.4-0.2-1.9-2.3-1.8-3c0.1-0.1,1.1,0.4,2.2,0.8c1.1,0.4,2.2,0.8,2.3,0.5c0-0.3-2.7-1.4-2.8-1.6
							c3,0.2,4.8,0.1,5.9,0c1.1-0.1,1.4-0.2,1.3-0.3c-0.3-0.2-2.5-0.3-4.3-0.2c-0.4-0.3-1.4,0-2.3-0.4c0.7,0,2.5-0.9,2.8-0.9
							c1.4-0.1,1.6-0.7,2.8,0c1,0.6,3.4,0.2,4.3,0.2c-0.8,0.5-2.5,1.7-3.2,1.2c1.1,1.5,2.6-1.2,4-0.3c0.1,0,0.4,0,0.6-0.1
							c0.1,0.2,0.3,0.3,0.4,0.5c1.3,0.6,2.6,0.2,3.8,0.9c-0.1,0,0-0.5-0.1-0.6c-0.8-1.2-2-0.4-3.1-1.1c-0.2-0.2-0.7,0.4-1,0.3
							c-0.5-0.1-0.7-0.8-1-1.2c1.1-0.2,2,0.3,3,0.5c0.2,0,0.6-0.4,0.8-0.6c-0.4-0.2-0.8-0.4-1.2-0.5c-1.5-0.3-4.4,0.9-4.9-0.8
							c0,0-0.1,0-0.2,0.1c0-0.1,0-0.1,0-0.1c-0.2-0.1-0.4-0.3-0.5-0.7l0.5,0.4c2.1-0.8,3.5,0.7,5.3,0.7c0.4-0.1,0.7,0.9,1.2,0.8
							c1.2-0.1,2.2,0.4,3.1,1.3c1.7,1.4,3.5,2.9,5.4,4.1c2,1.3,4.2,2.5,6.9,3.4c0.1,0,0.2-0.1,0.3-0.1l-0.2-0.3
							c0.1,0.1,0.3,0.1,0.4,0.2c0.6-0.2,1.2-0.2,2,0.1c0.4,0.2-0.4,0.2-0.5,0.6c0.2,0,0.3,0,0.3,0s0,0.2,0.1,0.4
							c0.1-0.1,0.2,0.1,0.4,0.2c-1.4,0.6-2.9,1-4.4,1.1c0.3,0.6,0.7,0.4,0.9,0.4c0.5-0.2,0.9-0.4,1.4-0.4c0.6-0.2,1.3-0.2,2.1-0.1
							c0.4,0,0.8,0,1.1,0.1c0.4,0,0.7,0,1.1-0.1c0.3,0.1,0.6,0.1,1,0.2c0.2,0.1,0.3,0.4,0.2,0.6
							C667.3,372.1,667.1,372.3,666.8,372.4z M649.1,364.4c0.2,0.4,0.5,0.8,0.7,1.3c0.1,0.1,0.2,0.1,0.3,0.2
							c0.1,0.1,0.3,0.1,0.5,0.1c0.6,0.5,1.1,1,1.7,1.4c-0.5-1-1.1-1.8-1.8-2.2c1.9,0.5,3.4,2.9,5.6,4.3c0.6,0.2,1.3,0.3,2,0.4
							c0.5,0,0.9-0.2,1.4-0.3c-3.1-0.8-5.7-2.7-7.9-4.5c-2.2-1.8-4.1-3.7-6.3-4.8C646.5,361.8,647.8,362.9,649.1,364.4z
							 M648.4,364.9c-0.6-0.3-1.2-0.5-1.9-0.6c-1.7-0.7-3.4-1.5-5-0.6c1.7,0.1,3.4,0.2,5,0.6c-1.5-0.7-0.5,0,1.6,0.6
							C648.1,364.9,648.2,364.9,648.4,364.9z"/>
						<path fill="#1C3D48" d="M658,367c0.4,0.3,0.8,0.6,1.3,0.9c0.5,0.3,0.9,0.5,1.4,0.8c-0.5-0.6-0.9-1.2-1.3-1.6
							c-1.1-1-2.1-1-3-1.8c-1.3-1.1-2.5-2-3.6-2.7c-1.2-0.8-2.3-1.4-3.5-1.9c-0.1-0.1-0.4-0.3-0.6-0.2c1.4,1.1,2.8,2,4.3,3.1
							C654.6,364.7,656.1,365.8,658,367z"/>
						<path fill="#1C3D48" d="M645.2,358.1c-0.5,0-1,0-1.4-0.2c0.2,0.6,0.7,0.9,1.1,1.1c0.6,0.1,1.3,0.3,1.9,0.5
							C646.3,358.9,645.8,358.3,645.2,358.1z"/>
						<path fill="#1C3D48" d="M648.7,360.6c-0.1-0.1-0.2-0.2-0.3-0.3c-0.5-0.4-1.1-0.7-1.7-0.9c0.5,0.6,1,1.3,1.5,1.9
							C648.4,360.9,648.6,360.7,648.7,360.6z"/>
					</g>
				</g>
			</g>
		</g>
	</g>
</g>
<g>
	<g>
		<g>
			<g>
				<g opacity="0.8">
					<g>
						<path fill="#4A68AF" d="M617,331.1c-1,0.1-1.8,0.5-2.6,0.8c-0.6,0.2-1.3,0.2-2,0c-0.6-0.2-1.3-0.4-1.9-0.5
							c-0.6-0.1-1.2-0.2-1.7-0.3c-0.6-0.3-1.1-0.6-1.7-0.8c-0.6-0.2-1.1-0.4-1.7-0.5c-0.1-0.1-0.4-0.4-0.6,0.4
							c-0.5-0.4-1-0.8-1.5-1.1c-0.5-0.3-1-0.5-1.6-0.4c-0.5-0.1-0.7-0.8-1.1-0.9c-0.8,0-1.2-1-1.8-1.2c-0.1,0.1-0.5,0.4-0.5,0.3
							c-0.6-1.1-1.9-0.3-2.9-0.2c-0.4,0-0.7,0-1-0.2c-0.2,0.3-0.2,0.2-0.4,0.3c-0.3-0.1-1.1-1.6-1.1-2.1c0.1-0.2,2.8,1,2.9,0.6
							c0-0.2-1.7-0.8-1.8-1c2-0.1,3.2-0.3,3.9-0.5c0.7-0.2,0.9-0.3,0.8-0.3c-0.2-0.1-1.6,0-2.8,0.2c-0.2-0.2-0.9,0.1-1.5-0.1
							c0.5-0.1,1.7-0.9,1.9-0.9c0.9-0.2,1.1-0.7,1.8-0.3c0.6,0.3,2.1-0.2,2.8-0.2c-0.5,0.5-1.7,1.5-2.1,1.2c0.7,1.1,1.7-1.1,2.6-0.6
							c0.1,0,0.2,0,0.4-0.1c0.1,0.1,0.2,0.2,0.2,0.4c0.8,0.3,1.6,0,2.3,0.4c-0.1,0,0-0.4-0.1-0.5c-0.5-0.9-1.2-0.2-1.9-0.6
							c-0.1-0.2-0.5,0.4-0.6,0.3c-0.3-0.1-0.4-0.5-0.6-0.8c0.7-0.3,1.3,0.1,1.9,0.1c0.1,0,0.4-0.4,0.5-0.5c-0.2-0.1-0.5-0.2-0.7-0.3
							c-0.9-0.1-2.8,1.1-3-0.2c0,0-0.1,0-0.1,0.1c0,0,0-0.1,0-0.1c-0.1,0-0.3-0.2-0.3-0.4l0.3,0.2c1.4-0.8,2.2,0.2,3.3,0.1
							c0.3-0.1,0.4,0.6,0.7,0.5c0.8-0.2,1.3,0.1,1.8,0.8c0.5,0.5,1,1,1.5,1.5c0.5,0.5,1.1,1,1.7,1.5c0.6,0.5,1.3,1,2,1.4
							c0.4,0.2,0.8,0.5,1.1,0.7c0.4,0.2,0.8,0.4,1.3,0.6c0.1,0,0.1-0.1,0.2-0.1l-0.2-0.2c0.1,0.1,0.2,0.1,0.3,0.2
							c0.4-0.1,0.8-0.1,1.3,0.1c0.3,0.2-0.3,0.1-0.3,0.5c0.1,0,0.2,0,0.2,0s0,0.2,0.1,0.3c0-0.1,0.2,0.1,0.3,0.2
							c-0.2,0.1-0.5,0.2-0.7,0.3l-0.7,0.2c-0.5,0.1-0.9,0.3-1.4,0.3c0.2,0.5,0.5,0.3,0.6,0.4c0.3-0.2,0.6-0.4,0.9-0.3
							c0.8-0.2,1.9,0.2,2.9,0c0.2,0.1,0.4,0.1,0.7,0.2c0.1,0.1,0.2,0.3,0.2,0.5C617.4,330.9,617.2,331.1,617,331.1z M605.6,324.8
							c0.1,0.3,0.3,0.6,0.4,1c0.1,0,0.1,0.1,0.2,0.2c0.1,0.1,0.2,0.1,0.3,0c0.3,0.4,0.7,0.7,1.1,1.1c-0.3-0.8-0.6-1.4-1.1-1.7
							c0.6,0.2,1.1,0.7,1.6,1.4c0.5,0.6,1.1,1.4,1.8,1.9c0.4,0.2,0.8,0.2,1.3,0.3c0.3,0,0.6-0.1,0.9-0.2c-2-0.7-3.6-2.1-4.9-3.5
							c-1.3-1.4-2.4-2.7-3.7-3.4C604.1,322.9,604.8,323.7,605.6,324.8z M605.1,325.2c-0.4-0.2-0.8-0.3-1.1-0.4
							c-1-0.4-2.1-0.9-3.1-0.1c1.1-0.1,2.1-0.1,3.1,0.1c-0.9-0.4-0.3,0,1,0.4C605,325.2,605.1,325.2,605.1,325.2z"/>
						<path fill="#4A68AF" d="M611,326.6c0.5,0.6,1.1,1,1.8,1.4c-0.3-0.5-0.6-0.9-0.9-1.3c-0.7-0.8-1.3-0.9-1.9-1.4
							c-1.6-1.7-2.8-2.8-4.2-3.4c-0.1-0.1-0.2-0.2-0.4-0.1c0.8,0.7,1.6,1.4,2.5,2.2c0.5,0.4,0.9,0.8,1.4,1.2
							C609.9,325.6,610.4,326,611,326.6z"/>
						<path fill="#4A68AF" d="M603.4,320c-0.3,0-0.6,0.1-0.9-0.1c0.1,0.5,0.4,0.7,0.6,0.8c0.4,0.1,0.8,0.1,1.1,0.2
							C604,320.6,603.8,320.2,603.4,320z"/>
						<path fill="#4A68AF" d="M605.5,321.7l-0.2-0.2c-0.3-0.3-0.6-0.4-1-0.6c0.3,0.5,0.6,0.9,0.9,1.4
							C605.3,322,605.4,321.8,605.5,321.7z"/>
					</g>
				</g>
			</g>
		</g>
	</g>
</g>
<g>
	<g>
		<g>
			<g>
				<g opacity="0.8">
					<g>
						<path fill="#4A68AF" d="M723.3,282.1c-1-0.2-1.9-0.2-2.7-0.2c-0.7,0-1.3-0.3-1.8-0.7c-0.5-0.4-1-0.9-1.6-1.2
							c-0.5-0.4-1-0.6-1.5-0.9c-0.4-0.5-0.8-0.9-1.3-1.4c-0.4-0.4-0.9-0.8-1.4-1.1c-0.1-0.1-0.3-0.5-0.7,0.2c-0.4-0.5-0.7-1.1-1-1.5
							c-0.4-0.4-0.8-0.8-1.3-1c-0.4-0.2-0.4-1-0.7-1.2c-0.7-0.3-0.7-1.3-1.3-1.7c-0.2,0-0.6,0.2-0.6,0.1c-0.1-1.3-1.6-0.9-2.7-1.3
							c-0.4-0.2-0.7-0.2-0.9-0.5c-0.3,0.2-0.3,0.1-0.5,0.1c-0.2-0.2-0.5-1.9-0.2-2.4c0.2-0.1,2.2,2,2.5,1.6c0.1-0.2-1.3-1.4-1.3-1.6
							c1.9,0.6,3.1,0.8,3.8,1c0.7,0.1,1,0.1,0.9,0c-0.1-0.2-1.5-0.6-2.7-0.8c-0.1-0.3-0.9-0.2-1.3-0.6c0.5,0.1,1.9-0.2,2.1-0.2
							c0.9,0.2,1.2-0.3,1.8,0.4c0.5,0.5,2.1,0.6,2.6,0.8c-0.6,0.3-2.1,0.8-2.4,0.3c0.2,1.2,2-0.4,2.6,0.4c0.1,0.1,0.2,0.1,0.4,0
							c0,0.1,0.1,0.3,0.1,0.4c0.6,0.6,1.5,0.6,2,1.2c-0.1,0,0.1-0.4,0.1-0.5c-0.1-1-1.1-0.6-1.5-1.3c0-0.2-0.6,0.2-0.7,0.1
							c-0.3-0.2-0.2-0.6-0.3-1c0.8,0,1.2,0.5,1.7,0.8c0.1,0,0.5-0.2,0.7-0.3c-0.2-0.2-0.4-0.4-0.6-0.5c-0.8-0.4-3,0-2.8-1.3
							c0,0-0.1,0-0.1,0c0,0,0-0.1,0-0.1c-0.1-0.1-0.2-0.2-0.1-0.5l0.2,0.3c1.6-0.2,1.9,1,3,1.3c0.3,0,0.2,0.7,0.4,0.7
							c0.8,0.1,1.2,0.6,1.4,1.4c0.3,0.7,0.5,1.3,0.8,2c0.3,0.6,0.6,1.3,1,2c0.4,0.6,0.8,1.4,1.3,2c0.3,0.3,0.5,0.7,0.8,1.1
							c0.3,0.3,0.6,0.7,1,1c0.1,0,0.1,0,0.2,0l-0.1-0.3c0.1,0.1,0.1,0.2,0.2,0.3c0.4,0.1,0.8,0.2,1.2,0.6c0.2,0.3-0.3,0-0.4,0.3
							c0.1,0.1,0.2,0.1,0.2,0.1s0,0.2,0,0.4c0.1-0.1,0.1,0.1,0.2,0.3l-0.7,0l-0.7-0.1c-0.5-0.1-1-0.1-1.4-0.2c0,0.5,0.3,0.5,0.4,0.6
							c0.3-0.1,0.7-0.1,1,0.1c0.8,0,1.7,0.8,2.6,1.1c0.2,0.1,0.4,0.3,0.5,0.5c0.1,0.1,0.1,0.3,0,0.5
							C723.7,282.1,723.5,282.2,723.3,282.1z M715,272.1c0,0.3,0,0.7,0,1c0,0.1,0.1,0.1,0.1,0.2c0,0.1,0.1,0.1,0.2,0.1
							c0.2,0.5,0.4,0.9,0.6,1.4c0-0.8-0.1-1.5-0.4-2c0.5,0.4,0.8,1,1,1.9c0.3,0.8,0.6,1.7,1,2.5c0.3,0.3,0.7,0.5,1.1,0.7
							c0.3,0.1,0.6,0.1,0.9,0.1c-1.6-1.4-2.6-3.3-3.3-5c-0.7-1.8-1.3-3.4-2.2-4.5C714.3,269.8,714.7,270.8,715,272.1z M714.4,272.4
							c-0.3-0.3-0.6-0.6-0.9-0.8c-0.8-0.8-1.6-1.6-2.9-1.2c1,0.3,2,0.7,2.9,1.2c-0.7-0.7-0.3-0.1,0.8,0.7
							C714.3,272.3,714.4,272.3,714.4,272.4z"/>
						<path fill="#4A68AF" d="M719.4,275.7c0.3,0.7,0.7,1.3,1.1,2c-0.1-0.6-0.2-1.1-0.4-1.6c-0.4-1-0.9-1.3-1.2-2
							c-0.9-2.2-1.6-3.6-2.7-4.7c0-0.1-0.1-0.3-0.3-0.2c0.5,1,1,1.9,1.5,3C718.1,273.2,718.6,274.4,719.4,275.7z"/>
						<path fill="#4A68AF" d="M714.7,266.9c-0.3-0.1-0.6-0.2-0.8-0.4c-0.1,0.5,0.1,0.8,0.3,1c0.3,0.2,0.7,0.4,1,0.6
							C715.1,267.6,715,267.2,714.7,266.9z"/>
						<path fill="#4A68AF" d="M716,269.3c0-0.1-0.1-0.2-0.1-0.2c-0.2-0.4-0.4-0.6-0.7-0.9c0.1,0.5,0.2,1.1,0.3,1.6
							C715.7,269.4,715.9,269.3,716,269.3z"/>
					</g>
				</g>
			</g>
		</g>
	</g>
</g>
<g>
	<g>
		<g>
			<g>
				<g opacity="0.8">
					<g>
						<path fill="#EE801C" d="M47.8,87.8c-0.2-0.2-0.4-0.3-0.7-0.1c-0.2,0.1-0.4-0.1-0.7-0.3c-0.3-0.1-0.6-0.3-0.9-0.4
							c-0.3-0.1-0.6,0-0.9,0.1c-0.4-0.1-0.8-0.1-1.2-0.1c-0.4,0-0.8,0.2-1.1,0.4c-0.1,0-0.4,0,0,0.6c-0.5,0-0.9,0.1-1.3,0.2
							c-0.4,0.1-0.7,0.4-0.9,0.8c-0.2,0.3-0.9,0.1-1.1,0.4c-0.2,0.6-1.2,0.4-1.5,0.9c0,0.1,0.2,0.5,0.1,0.5
							c-1.1,0.1-0.7,1.4-0.7,2.2c-0.1,0.3-0.1,0.6-0.3,0.8C37,94,37,94.1,37,94.2c-0.1,0.2-1.4,0.6-1.8,0.4c-0.3,0,1-2,0.7-2.2
							c-0.2-0.1-0.9,1.2-1,1.3c0.1-3.3,0.3-4.4,0.1-4.2c-0.1,0.1-0.4,1.4-0.4,2.5c-0.2,0.2,0,0.8-0.3,1.2c-0.1-0.4-0.6-1.6-0.6-1.8
							c0-0.9-0.4-1.1,0.2-1.7c0.5-0.5,0.5-2,0.8-2.6c0.2,0.6,0.7,2,0.3,2.2c1.1-0.3-0.4-1.8,0.4-2.5c0.1-0.1,0.1-0.2,0.1-0.4
							c0.1,0,0.3-0.1,0.4-0.1c0.6-0.6,0.8-1.4,1.6-1.8c0,0.1-0.3-0.2-0.4-0.2c-1,0-0.9,1-1.6,1.4c-0.2,0,0.1,0.6,0,0.7
							c-0.2,0.2-0.7,0.2-1,0.3c0.1-0.7,0.7-1.2,1.1-1.7c0.1-0.1-0.1-0.5-0.1-0.7c-0.3,0.2-0.5,0.4-0.7,0.6c-0.7,0.9-0.4,3-1.6,2.9
							c0,0,0,0.1,0,0.1c0,0-0.1,0-0.1,0c-0.1,0.1-0.2,0.2-0.5,0.2l0.3-0.3c-0.2-1.6,1.1-2.1,1.6-3.2c0.1-0.3,0.8-0.2,0.9-0.5
							c0.3-0.8,1.1-1.2,2-1.3c0.8-0.2,1.6-0.3,2.4-0.3c0.8,0,1.6-0.1,2.4,0c0.8,0.1,1.6,0.2,2.3,0.5c0.4,0.1,0.7,0.3,1.1,0.4
							c0.3,0.2,0.7,0.4,1,0.6c0,0,0.1,0,0.1-0.1l-0.1-0.2c0.1,0.1,0.1,0.1,0.2,0.2c0.3-0.1,0.5,0,0.8,0.4c0.1,0.3-0.2,0-0.2,0.3
							c0.1,0,0.1,0.1,0.1,0.1s0,0.2,0,0.3c0-0.1,0.1,0.1,0.1,0.2c-0.1,0-0.2,0-0.3,0l-0.3,0.1c-0.2,0.1-0.5,0.1-0.7,0.1
							c0.2,0.4,0.3,0.3,0.4,0.4c0.1-0.1,0.3-0.2,0.4-0.1c0.4-0.2,0.8,0.7,1,0.8c0,0.1,0.1,0.3,0.1,0.4c0.1,0.1,0,0.3-0.1,0.5
							C47.9,87.8,47.8,87.9,47.8,87.8z M39.2,84.2c0.3,0.1,0.6,0.2,0.9,0.3c0.1,0,0.1,0,0.2,0c0.1,0,0.2-0.1,0.2-0.2
							c0.5,0,0.9,0.1,1.4,0.1c-0.6-0.4-1.3-0.7-1.8-0.5c0.5-0.3,1.3-0.2,2,0c0.7,0.2,1.5,0.6,2.1,0.9c0.3,0,0.6,0.1,0.9,0.1
							c0.2,0,0.4-0.2,0.5-0.3c-1.4-0.6-3.3-1.1-5.2-1.2c-1.9-0.1-3.8,0.2-5.2,1.2C36.8,84.4,37.9,84.1,39.2,84.2z M39.2,84.8
							c-0.4,0.2-0.7,0.4-1,0.7c-0.9,0.6-1.9,1.3-1.6,2.5c0.4-0.9,0.8-1.8,1.6-2.5c-0.8,0.5-0.2,0.2,0.9-0.5
							C39.1,84.8,39.2,84.8,39.2,84.8z"/>
						<path fill="#EE801C" d="M44.7,82.8c0.3,0.2,0.6,0.4,0.8,0.6c0.3,0.2,0.5,0.4,0.7,0.7c-0.2-0.5-0.5-0.9-0.7-1.2
							c-0.7-0.7-1.3-0.6-2.1-0.9c-2.2-0.8-4.4-0.5-6.1,0.4c-0.1,0-0.3,0.1-0.4,0.3c1.3-0.4,2.5-0.6,3.8-0.7c0.6,0,1.3,0,2,0.2
							C43.4,82.2,44.1,82.4,44.7,82.8z"/>
						<path fill="#EE801C" d="M34,83.9c-0.2,0.3-0.3,0.7-0.6,0.9c0.5,0,0.8-0.2,1.1-0.4c0.3-0.4,0.6-0.7,1-1
							C34.9,83.4,34.4,83.6,34,83.9z"/>
						<path fill="#EE801C" d="M37,82.6c-0.1,0-0.2,0.1-0.3,0.1c-0.5,0.1-0.9,0.4-1.2,0.7c0.6-0.1,1.2-0.1,1.8-0.2
							C37,82.9,36.9,82.7,37,82.6z"/>
					</g>
				</g>
			</g>
		</g>
	</g>
</g>
<g>
	<g>
		<g>
			<g>
				<g opacity="0.8">
					<g>
						<path fill="#D21C8D" d="M33.9,64.6c-0.4-0.2-0.8-0.3-1.2-0.1c-0.3,0.1-0.6-0.1-1-0.3c-0.4-0.2-0.8-0.4-1.2-0.5
							c-0.4-0.1-0.8,0-1.2,0c-1-0.3-2-0.3-2.9,0.1c-0.1,0-0.5-0.1-0.1,0.7c-1.1-0.1-2.3-0.1-2.9,0.8c-0.3,0.3-1,0-1.3,0.3
							c-0.4,0.6-1.5,0.3-1.9,0.8c0,0.2,0.1,0.6,0,0.6c-1.3-0.1-1.1,1.5-1.3,2.5c-0.1,0.3-0.2,0.7-0.4,0.8c0.2,0.3,0.1,0.3,0.2,0.5
							c-0.2,0.2-1.8,0.5-2.1,0.2c-0.3-0.1,1.5-2.2,1.2-2.5c-0.2-0.1-1.3,1.3-1.5,1.3c0.4-1.9,0.7-3.2,0.9-4c0.2-0.8,0.2-1,0.1-1
							c-0.2,0.1-0.8,1.6-1,2.9c-0.3,0.2-0.2,1-0.6,1.4c0-0.5-0.4-2-0.3-2.2c0.2-1-0.3-1.3,0.5-2c0.6-0.5,1-2.3,1.4-2.9
							c0.1,0.8,0.4,2.4-0.1,2.6c1.4-0.1-0.1-2.2,1-2.8c0.1-0.1,0.1-0.2,0.2-0.4c0.2,0,0.3,0,0.5,0c0.9-0.5,1.3-1.6,2.3-1.9
							c-0.1,0.1-0.3-0.3-0.4-0.3c-1.2-0.2-1.3,1-2.2,1.4c-0.2,0,0,0.7-0.2,0.8c-0.3,0.3-0.8,0.1-1.2,0.2c0.3-0.9,1-1.3,1.6-1.8
							c0.1-0.1,0-0.6,0-0.9c-0.3,0.2-0.7,0.4-1,0.6c-0.5,0.5-0.8,1.3-1.1,2c-0.3,0.7-0.7,1.3-1.4,1.1c0,0,0,0.1,0,0.2
							c0,0-0.1,0-0.1,0c-0.1,0.1-0.3,0.2-0.6,0.2l0.4-0.3c0.1-1.9,1.7-2.3,2.6-3.5c0.2-0.3,1-0.1,1.1-0.4c0.5-0.9,1.5-1.2,2.6-1.2
							c1.9-0.1,3.8-0.1,5.7,0.3c0.5,0.1,0.9,0.2,1.4,0.3c0.5,0.1,0.9,0.3,1.3,0.5c0.9,0.3,1.7,0.8,2.4,1.4c0.1,0,0.1,0,0.2-0.1
							L32.1,60c0.1,0.1,0.1,0.1,0.2,0.2c0.3-0.1,0.7,0.1,1,0.5c0.1,0.3-0.2,0-0.3,0.3c0.1,0.1,0.1,0.1,0.1,0.1s0,0.2,0,0.4
							c0-0.1,0.1,0.1,0.1,0.3c-0.6-0.1-1.3,0.2-2,0.2c0.2,0.5,0.3,0.4,0.4,0.4c0.2-0.1,0.4-0.3,0.6-0.1c0.3-0.1,0.6,0.1,0.8,0.3
							c0.3,0.2,0.5,0.5,0.7,0.7c0.1,0.1,0.2,0.3,0.2,0.5C34.3,64.2,34,64.8,33.9,64.6z M23.3,59.5c0.3,0.1,0.7,0.3,1,0.5
							c0.1,0,0.2,0,0.3,0c0.1,0,0.2,0,0.3-0.2c0.6,0.1,1.1,0.2,1.6,0.3c-0.7-0.5-1.4-0.9-2-0.9c0.7-0.2,1.6-0.1,2.4,0.3
							c0.9,0.4,1.7,0.9,2.4,1.3c0.4,0.1,0.8,0.1,1.2,0.1c0.3,0,0.5-0.2,0.7-0.3c-1.7-0.8-3.9-1.6-6.1-2c-2.2-0.4-4.5-0.3-6.4,0.6
							c0.8,0,1.5,0,2.3,0C21.8,59.4,22.5,59.4,23.3,59.5z M23.2,60.2c-0.5,0.1-0.9,0.4-1.3,0.6c-0.6,0.2-1.2,0.5-1.7,1
							c-0.5,0.4-0.8,1-0.7,1.7c0.6-1,1.4-2,2.4-2.7c-1.1,0.5-0.3,0.2,1.1-0.5C23,60.3,23.1,60.3,23.2,60.2z"/>
						<path fill="#D21C8D" d="M30.1,58.6c0.6,0.5,1.2,1,1.8,1.5c-0.2-0.5-0.5-1-0.8-1.5c-0.8-0.9-1.5-0.8-2.4-1.3
							c-2.5-1.2-5.1-1.2-7.3-0.4c-0.1,0-0.4,0-0.5,0.3c0.8-0.1,1.6-0.2,2.3-0.2c0.8,0,1.6,0,2.3,0c0.8,0.1,1.6,0.2,2.3,0.5
							C28.6,57.8,29.4,58.2,30.1,58.6z"/>
						<path fill="#D21C8D" d="M17.2,58.4c-0.3,0.4-0.5,0.7-0.9,0.9c0.5,0.1,1-0.1,1.3-0.3c0.4-0.4,0.9-0.7,1.3-1
							C18.3,58,17.7,58.1,17.2,58.4z"/>
						<path fill="#D21C8D" d="M20.9,57.3c-0.1,0-0.2,0-0.4,0.1C20,57.5,19.5,57.7,19,58c0.7,0,1.4,0.1,2.1,0.1
							C20.9,57.7,20.9,57.5,20.9,57.3z"/>
					</g>
				</g>
			</g>
		</g>
	</g>
</g>
<linearGradient id="SVGID_1_" gradientUnits="userSpaceOnUse" x1="446.0265" y1="320.2362" x2="725.9102" y2="320.2362">
	<stop  offset="0.157" style="stop-color:#F8D551"/>
	<stop  offset="0.1847" style="stop-color:#F8D566"/>
	<stop  offset="0.2234" style="stop-color:#F8D57C"/>
	<stop  offset="0.266" style="stop-color:#F8D58B"/>
	<stop  offset="0.315" style="stop-color:#F8D594"/>
	<stop  offset="0.3849" style="stop-color:#F8D597"/>
	<stop  offset="0.4896" style="stop-color:#C6B8A7"/>
	<stop  offset="0.6173" style="stop-color:#8392BB"/>
	<stop  offset="0.7673" style="stop-color:#4058A1;stop-opacity:0.747"/>
	<stop  offset="0.8899" style="stop-color:#0E2D8D;stop-opacity:0.54"/>
</linearGradient>
<path fill="url(#SVGID_1_)" d="M446,387c0,0,0.9-0.9,2.6-2.5c16.6-15.3,111.1-118.8,220.4-58c21.8,12.1,39.4,9.6,52.8-7.4
	c10.1-12.9,3-33.2-36.9-51.5c-3.8-1.7-39.1-14.1-39.1-14.1s-3.4,5.2-11.2,5.1c-78-0.9-131.6,35-187.7,127.5"/>
</svg>
