<svg xmlns="http://www.w3.org/2000/svg" xmlns:xlink="http://www.w3.org/1999/xlink" width="733" height="749" viewBox="0 0 733.01 749"><defs><style>.cls-1{stroke-miterlimit:10;fill:url(#linear-gradient);stroke:url(#linear-gradient-2);}.cls-2{fill:url(#linear-gradient-3);}</style><linearGradient id="linear-gradient" x1="-5305.08" y1="335.41" x2="-4841.15" y2="335.41" gradientTransform="translate(-4819.41 840.97) rotate(179.46)" gradientUnits="userSpaceOnUse"><stop offset="0.15" stop-color="#8e9396" stop-opacity="0.7"/><stop offset="0.22" stop-color="#999d9f" stop-opacity="0.6"/><stop offset="0.38" stop-color="#abacad" stop-opacity="0.45"/><stop offset="0.49" stop-color="#b1b1b2" stop-opacity="0.4"/><stop offset="0.58" stop-color="#b6b5a4" stop-opacity="0.4"/><stop offset="0.69" stop-color="#c4bf7c" stop-opacity="0.4"/><stop offset="0.81" stop-color="#dbd03a" stop-opacity="0.4"/><stop offset="0.9" stop-color="#efdf00" stop-opacity="0.4"/></linearGradient><linearGradient id="linear-gradient-2" x1="18.42" y1="458.72" x2="482.94" y2="458.72" gradientUnits="userSpaceOnUse"><stop offset="0.13" stop-color="#efdf00" stop-opacity="0.4"/><stop offset="0.49" stop-color="#b1b1b2" stop-opacity="0.4"/><stop offset="0.64" stop-color="#abacad" stop-opacity="0.45"/><stop offset="0.83" stop-color="#9b9ea0" stop-opacity="0.59"/><stop offset="0.94" stop-color="#8e9396" stop-opacity="0.7"/></linearGradient><linearGradient id="linear-gradient-3" x1="234.52" y1="463.7" x2="673.17" y2="463.7" gradientUnits="userSpaceOnUse"><stop offset="0.09" stop-color="#1c2381"/><stop offset="0.4" stop-color="#12918d"/><stop offset="0.81" stop-color="#8ca984"/><stop offset="0.93" stop-color="#8fab83"/></linearGradient></defs><title>idk anymore</title><g id="dark_th" data-name="dark th"><path class="cls-1" d="M478.43,509s-1.05-6.1-3.55-16.08c-23.75-94.78-111.73-158.11-209.33-153.27-18.91.93-35.21-1.34-39-11-10.08-25.84-63.68-33.51-63.68-33.51S3.06,442,20.21,530.79C41.69,641.93,284.92,647.5,349,571.37c24.92-29.6,81.33-65.22,133.85-56.22"/><path class="cls-2" d="M500.37,472.39c-46.91-32-77.65-80.3-142.75-87.15-85.63-9-122.29,75.13-122.29,75.13s-8.09,30.81,27,18,19.47-76.35,91.48-71.37S571.74,589.6,673.17,531c0,0-41.47,4.07-82.15-8.09C554.6,512,519.77,485.62,500.37,472.39Z"/></g></svg>