<svg xmlns="http://www.w3.org/2000/svg" xmlns:xlink="http://www.w3.org/1999/xlink" width="733" height="749" viewBox="0 0 733.01 749"><defs><style>.cls-1{fill:url(#linear-gradient);}.cls-2{fill:url(#linear-gradient-2);}</style><linearGradient id="linear-gradient" x1="-5288.38" y1="2003.6" x2="-4824.45" y2="2003.6" gradientTransform="translate(-4787.09 2508.93) rotate(179.46)" gradientUnits="userSpaceOnUse"><stop offset="0.11" stop-color="#002e3c" stop-opacity="0.3"/><stop offset="0.49" stop-color="#b0b0b1" stop-opacity="0.4"/><stop offset="0.71" stop-color="#96a297" stop-opacity="0.49"/><stop offset="0.95" stop-color="#568057" stop-opacity="0.7"/></linearGradient><linearGradient id="linear-gradient-2" x1="234.52" y1="463.7" x2="673.17" y2="463.7" gradientUnits="userSpaceOnUse"><stop offset="0.09" stop-color="#1c2c78"/><stop offset="0.24" stop-color="#a67560"/><stop offset="0.33" stop-color="#f39e53"/><stop offset="0.44" stop-color="#afa774"/><stop offset="0.5" stop-color="#90ab84"/><stop offset="0.54" stop-color="#6ea586"/><stop offset="0.59" stop-color="#3f9d89"/><stop offset="0.64" stop-color="#22988a"/><stop offset="0.66" stop-color="#17968b"/></linearGradient></defs><title>idk anymore</title><g id="dark_th" data-name="dark th"><path class="cls-1" d="M478.43,509s-1.05-6.1-3.55-16.08c-23.75-94.78-111.73-158.11-209.33-153.27-18.91.93-35.21-1.34-39-11-10.08-25.84-63.68-33.51-63.68-33.51S3.06,442,20.21,530.79C41.69,641.93,284.92,647.5,349,571.37c24.92-29.6,81.33-65.22,133.85-56.22"/><path class="cls-2" d="M500.37,472.39c-46.91-32-77.65-80.3-142.75-87.15-85.63-9-122.29,75.13-122.29,75.13s-8.09,30.81,27,18,19.47-76.35,91.48-71.37S571.74,589.6,673.17,531c0,0-41.47,4.07-82.15-8.09C554.6,512,519.77,485.62,500.37,472.39Z"/></g></svg>