<svg xmlns="http://www.w3.org/2000/svg" width="733" height="749" viewBox="0 0 733.01 749"><defs><linearGradient id="a" x1="-5305.08" y1="335.41" x2="-4841.15" y2="335.41" gradientTransform="rotate(179.46 -2411.687 409.13)" gradientUnits="userSpaceOnUse"><stop offset=".15" stop-color="#8e9396" stop-opacity=".7"/><stop offset=".22" stop-color="#999d9f" stop-opacity=".6"/><stop offset=".38" stop-color="#abacad" stop-opacity=".45"/><stop offset=".49" stop-color="#b1b1b2" stop-opacity=".4"/><stop offset=".58" stop-color="#b6b5a4" stop-opacity=".4"/><stop offset=".69" stop-color="#c4bf7c" stop-opacity=".4"/><stop offset=".81" stop-color="#dbd03a" stop-opacity=".4"/><stop offset=".9" stop-color="#efdf00" stop-opacity=".4"/></linearGradient><linearGradient id="b" x1="18.42" y1="458.72" x2="482.94" y2="458.72" gradientUnits="userSpaceOnUse"><stop offset=".13" stop-color="#efdf00" stop-opacity=".4"/><stop offset=".49" stop-color="#b1b1b2" stop-opacity=".4"/><stop offset=".64" stop-color="#abacad" stop-opacity=".45"/><stop offset=".83" stop-color="#9b9ea0" stop-opacity=".59"/><stop offset=".94" stop-color="#8e9396" stop-opacity=".7"/></linearGradient><linearGradient id="c" x1="234.52" y1="463.7" x2="673.17" y2="463.7" gradientUnits="userSpaceOnUse"><stop offset=".09" stop-color="#1c2381"/><stop offset=".4" stop-color="#12918d"/><stop offset=".81" stop-color="#8ca984"/><stop offset=".93" stop-color="#8fab83"/></linearGradient></defs><g data-name="dark th"><path d="M478.43 509s-1.05-6.1-3.55-16.08c-23.75-94.78-111.73-158.11-209.33-153.27-18.91.93-35.21-1.34-39-11-10.08-25.84-63.68-33.51-63.68-33.51S3.06 442 20.21 530.79C41.69 641.93 284.92 647.5 349 571.37c24.92-29.6 81.33-65.22 133.85-56.22" stroke-miterlimit="10" fill="url(#a)" stroke="url(#b)"/><path d="M500.37 472.39c-46.91-32-77.65-80.3-142.75-87.15-85.63-9-122.29 75.13-122.29 75.13s-8.09 30.81 27 18 19.47-76.35 91.48-71.37 217.93 182.6 319.36 124c0 0-41.47 4.07-82.15-8.09-36.42-10.91-71.25-37.29-90.65-50.52z" fill="url(#c)"/></g></svg>